%TF.GenerationSoftware,KiCad,Pcbnew,8.0.3*%
%TF.CreationDate,2024-09-22T19:56:22+01:00*%
%TF.ProjectId,BetetrDom,42657465-7472-4446-9f6d-2e6b69636164,rev?*%
%TF.SameCoordinates,Original*%
%TF.FileFunction,Drillmap*%
%TF.FilePolarity,Positive*%
%FSLAX45Y45*%
G04 Gerber Fmt 4.5, Leading zero omitted, Abs format (unit mm)*
G04 Created by KiCad (PCBNEW 8.0.3) date 2024-09-22 19:56:22*
%MOMM*%
%LPD*%
G01*
G04 APERTURE LIST*
%ADD10C,0.050000*%
%ADD11C,0.200000*%
%ADD12C,0.100000*%
%ADD13C,0.110000*%
%ADD14C,0.270000*%
%ADD15C,0.320000*%
G04 APERTURE END LIST*
D10*
X14400000Y-4900000D02*
X7900000Y-4900000D01*
X7600000Y-5200000D02*
G75*
G02*
X7900000Y-4900000I300000J0D01*
G01*
X14700000Y-13600000D02*
X14700000Y-5200000D01*
X5200000Y-14325000D02*
G75*
G02*
X4900000Y-14025000I0J300000D01*
G01*
X14700000Y-14087868D02*
G75*
G02*
X14400000Y-14325001I-268570J31438D01*
G01*
X14400000Y-4900000D02*
G75*
G02*
X14700000Y-5200000I0J-300000D01*
G01*
X4900000Y-10200000D02*
X4900000Y-14025000D01*
X5200000Y-14325000D02*
X14400000Y-14325000D01*
X7600000Y-5200000D02*
X7600000Y-9800000D01*
X7400000Y-10000000D02*
X5100000Y-10000000D01*
X14700000Y-14087868D02*
X14700000Y-13600000D01*
X4900000Y-10200000D02*
G75*
G02*
X5100000Y-10000000I200000J0D01*
G01*
X7600000Y-9800000D02*
G75*
G02*
X7400000Y-10000000I-200000J0D01*
G01*
D11*
D12*
X7085000Y-11985000D02*
X7115000Y-12015000D01*
X7115000Y-11985000D02*
X7085000Y-12015000D01*
X7185000Y-13485000D02*
X7215000Y-13515000D01*
X7215000Y-13485000D02*
X7185000Y-13515000D01*
X7435000Y-12835000D02*
X7465000Y-12865000D01*
X7465000Y-12835000D02*
X7435000Y-12865000D01*
X7535000Y-11485000D02*
X7565000Y-11515000D01*
X7565000Y-11485000D02*
X7535000Y-11515000D01*
X7935000Y-11935000D02*
X7965000Y-11965000D01*
X7965000Y-11935000D02*
X7935000Y-11965000D01*
X7960000Y-12185000D02*
X7990000Y-12215000D01*
X7990000Y-12185000D02*
X7960000Y-12215000D01*
X8016000Y-6417000D02*
X8046000Y-6447000D01*
X8046000Y-6417000D02*
X8016000Y-6447000D01*
X8017000Y-6618000D02*
X8047000Y-6648000D01*
X8047000Y-6618000D02*
X8017000Y-6648000D01*
X8029000Y-6205000D02*
X8059000Y-6235000D01*
X8059000Y-6205000D02*
X8029000Y-6235000D01*
X8381000Y-8313000D02*
X8411000Y-8343000D01*
X8411000Y-8313000D02*
X8381000Y-8343000D01*
X8400000Y-10533000D02*
X8430000Y-10563000D01*
X8430000Y-10533000D02*
X8400000Y-10563000D01*
X8685000Y-5935000D02*
X8715000Y-5965000D01*
X8715000Y-5935000D02*
X8685000Y-5965000D01*
X8785000Y-11885000D02*
X8815000Y-11915000D01*
X8815000Y-11885000D02*
X8785000Y-11915000D01*
X8785000Y-12085000D02*
X8815000Y-12115000D01*
X8815000Y-12085000D02*
X8785000Y-12115000D01*
X8869000Y-5809000D02*
X8899000Y-5839000D01*
X8899000Y-5809000D02*
X8869000Y-5839000D01*
X8879000Y-7825000D02*
X8909000Y-7855000D01*
X8909000Y-7825000D02*
X8879000Y-7855000D01*
X9035000Y-5835000D02*
X9065000Y-5865000D01*
X9065000Y-5835000D02*
X9035000Y-5865000D01*
X9285000Y-5735000D02*
X9315000Y-5765000D01*
X9315000Y-5735000D02*
X9285000Y-5765000D01*
X9340000Y-7804000D02*
X9370000Y-7834000D01*
X9370000Y-7804000D02*
X9340000Y-7834000D01*
X9356000Y-5844000D02*
X9386000Y-5874000D01*
X9386000Y-5844000D02*
X9356000Y-5874000D01*
X9385000Y-11885000D02*
X9415000Y-11915000D01*
X9415000Y-11885000D02*
X9385000Y-11915000D01*
X9385000Y-12085000D02*
X9415000Y-12115000D01*
X9415000Y-12085000D02*
X9385000Y-12115000D01*
X9435000Y-5935000D02*
X9465000Y-5965000D01*
X9465000Y-5935000D02*
X9435000Y-5965000D01*
X9485000Y-13585000D02*
X9515000Y-13615000D01*
X9515000Y-13585000D02*
X9485000Y-13615000D01*
X9485000Y-13785000D02*
X9515000Y-13815000D01*
X9515000Y-13785000D02*
X9485000Y-13815000D01*
X9610000Y-5885000D02*
X9640000Y-5915000D01*
X9640000Y-5885000D02*
X9610000Y-5915000D01*
X9620000Y-6795000D02*
X9650000Y-6825000D01*
X9650000Y-6795000D02*
X9620000Y-6825000D01*
X9626000Y-6039000D02*
X9656000Y-6069000D01*
X9656000Y-6039000D02*
X9626000Y-6069000D01*
X9685000Y-13585000D02*
X9715000Y-13615000D01*
X9715000Y-13585000D02*
X9685000Y-13615000D01*
X9685000Y-13785000D02*
X9715000Y-13815000D01*
X9715000Y-13785000D02*
X9685000Y-13815000D01*
X9826000Y-7779000D02*
X9856000Y-7809000D01*
X9856000Y-7779000D02*
X9826000Y-7809000D01*
X9835000Y-5960000D02*
X9865000Y-5990000D01*
X9865000Y-5960000D02*
X9835000Y-5990000D01*
X9885000Y-11885000D02*
X9915000Y-11915000D01*
X9915000Y-11885000D02*
X9885000Y-11915000D01*
X9885000Y-12085000D02*
X9915000Y-12115000D01*
X9915000Y-12085000D02*
X9885000Y-12115000D01*
X9885000Y-12760000D02*
X9915000Y-12790000D01*
X9915000Y-12760000D02*
X9885000Y-12790000D01*
X9920000Y-5848000D02*
X9950000Y-5878000D01*
X9950000Y-5848000D02*
X9920000Y-5878000D01*
X9985000Y-12935000D02*
X10015000Y-12965000D01*
X10015000Y-12935000D02*
X9985000Y-12965000D01*
X10035000Y-5960000D02*
X10065000Y-5990000D01*
X10065000Y-5960000D02*
X10035000Y-5990000D01*
X10110000Y-12760000D02*
X10140000Y-12790000D01*
X10140000Y-12760000D02*
X10110000Y-12790000D01*
X10210000Y-5785000D02*
X10240000Y-5815000D01*
X10240000Y-5785000D02*
X10210000Y-5815000D01*
X10235000Y-12935000D02*
X10265000Y-12965000D01*
X10265000Y-12935000D02*
X10235000Y-12965000D01*
X10248000Y-7854000D02*
X10278000Y-7884000D01*
X10278000Y-7854000D02*
X10248000Y-7884000D01*
X10335000Y-12760000D02*
X10365000Y-12790000D01*
X10365000Y-12760000D02*
X10335000Y-12790000D01*
X10402000Y-5805000D02*
X10432000Y-5835000D01*
X10432000Y-5805000D02*
X10402000Y-5835000D01*
X10465000Y-10455000D02*
X10495000Y-10485000D01*
X10495000Y-10455000D02*
X10465000Y-10485000D01*
X10535000Y-5960000D02*
X10565000Y-5990000D01*
X10565000Y-5960000D02*
X10535000Y-5990000D01*
X10685000Y-13685000D02*
X10715000Y-13715000D01*
X10715000Y-13685000D02*
X10685000Y-13715000D01*
X10725000Y-12367500D02*
X10755000Y-12397500D01*
X10755000Y-12367500D02*
X10725000Y-12397500D01*
X10767500Y-10460000D02*
X10797500Y-10490000D01*
X10797500Y-10460000D02*
X10767500Y-10490000D01*
X10767500Y-11337500D02*
X10797500Y-11367500D01*
X10797500Y-11337500D02*
X10767500Y-11367500D01*
X10788000Y-11724000D02*
X10818000Y-11754000D01*
X10818000Y-11724000D02*
X10788000Y-11754000D01*
X10827500Y-12367500D02*
X10857500Y-12397500D01*
X10857500Y-12367500D02*
X10827500Y-12397500D01*
X10890000Y-12228000D02*
X10920000Y-12258000D01*
X10920000Y-12228000D02*
X10890000Y-12258000D01*
X10985000Y-13685000D02*
X11015000Y-13715000D01*
X11015000Y-13685000D02*
X10985000Y-13715000D01*
X11017500Y-11810000D02*
X11047500Y-11840000D01*
X11047500Y-11810000D02*
X11017500Y-11840000D01*
X11235000Y-8185000D02*
X11265000Y-8215000D01*
X11265000Y-8185000D02*
X11235000Y-8215000D01*
X11285000Y-6210000D02*
X11315000Y-6240000D01*
X11315000Y-6210000D02*
X11285000Y-6240000D01*
X11285000Y-13685000D02*
X11315000Y-13715000D01*
X11315000Y-13685000D02*
X11285000Y-13715000D01*
X11293000Y-6566000D02*
X11323000Y-6596000D01*
X11323000Y-6566000D02*
X11293000Y-6596000D01*
X11296000Y-6386000D02*
X11326000Y-6416000D01*
X11326000Y-6386000D02*
X11296000Y-6416000D01*
X11335000Y-12312500D02*
X11365000Y-12342500D01*
X11365000Y-12312500D02*
X11335000Y-12342500D01*
X11528000Y-10578000D02*
X11558000Y-10608000D01*
X11558000Y-10578000D02*
X11528000Y-10608000D01*
X11991000Y-7577000D02*
X12021000Y-7607000D01*
X12021000Y-7577000D02*
X11991000Y-7607000D01*
X12035000Y-5735000D02*
X12065000Y-5765000D01*
X12065000Y-5735000D02*
X12035000Y-5765000D01*
X12135000Y-9985000D02*
X12165000Y-10015000D01*
X12165000Y-9985000D02*
X12135000Y-10015000D01*
X12235000Y-5960000D02*
X12265000Y-5990000D01*
X12265000Y-5960000D02*
X12235000Y-5990000D01*
X12238000Y-5742000D02*
X12268000Y-5772000D01*
X12268000Y-5742000D02*
X12238000Y-5772000D01*
X12281000Y-11226000D02*
X12311000Y-11256000D01*
X12311000Y-11226000D02*
X12281000Y-11256000D01*
X12510000Y-5885000D02*
X12540000Y-5915000D01*
X12540000Y-5885000D02*
X12510000Y-5915000D01*
X12616000Y-7632000D02*
X12646000Y-7662000D01*
X12646000Y-7632000D02*
X12616000Y-7662000D01*
X12674000Y-5790000D02*
X12704000Y-5820000D01*
X12704000Y-5790000D02*
X12674000Y-5820000D01*
X12785000Y-5735000D02*
X12815000Y-5765000D01*
X12815000Y-5735000D02*
X12785000Y-5765000D01*
X12910000Y-11685000D02*
X12940000Y-11715000D01*
X12940000Y-11685000D02*
X12910000Y-11715000D01*
X12926000Y-6088000D02*
X12956000Y-6118000D01*
X12956000Y-6088000D02*
X12926000Y-6118000D01*
X12935000Y-5910000D02*
X12965000Y-5940000D01*
X12965000Y-5910000D02*
X12935000Y-5940000D01*
X12935000Y-6696000D02*
X12965000Y-6726000D01*
X12965000Y-6696000D02*
X12935000Y-6726000D01*
X13085000Y-5685000D02*
X13115000Y-5715000D01*
X13115000Y-5685000D02*
X13085000Y-5715000D01*
X13143000Y-7637000D02*
X13173000Y-7667000D01*
X13173000Y-7637000D02*
X13143000Y-7667000D01*
X13193000Y-5741000D02*
X13223000Y-5771000D01*
X13223000Y-5741000D02*
X13193000Y-5771000D01*
X13285000Y-5810000D02*
X13315000Y-5840000D01*
X13315000Y-5810000D02*
X13285000Y-5840000D01*
X13335000Y-11960000D02*
X13365000Y-11990000D01*
X13365000Y-11960000D02*
X13335000Y-11990000D01*
X13335000Y-12410000D02*
X13365000Y-12440000D01*
X13365000Y-12410000D02*
X13335000Y-12440000D01*
X13335000Y-12656000D02*
X13365000Y-12686000D01*
X13365000Y-12656000D02*
X13335000Y-12686000D01*
X13386000Y-10414000D02*
X13416000Y-10444000D01*
X13416000Y-10414000D02*
X13386000Y-10444000D01*
X13485000Y-13685000D02*
X13515000Y-13715000D01*
X13515000Y-13685000D02*
X13485000Y-13715000D01*
X13535000Y-5885000D02*
X13565000Y-5915000D01*
X13565000Y-5885000D02*
X13535000Y-5915000D01*
X13642000Y-5694000D02*
X13672000Y-5724000D01*
X13672000Y-5694000D02*
X13642000Y-5724000D01*
X13650000Y-12407500D02*
X13680000Y-12437500D01*
X13680000Y-12407500D02*
X13650000Y-12437500D01*
X13660000Y-11960000D02*
X13690000Y-11990000D01*
X13690000Y-11960000D02*
X13660000Y-11990000D01*
X13685000Y-13685000D02*
X13715000Y-13715000D01*
X13715000Y-13685000D02*
X13685000Y-13715000D01*
X13835000Y-5885000D02*
X13865000Y-5915000D01*
X13865000Y-5885000D02*
X13835000Y-5915000D01*
X13873000Y-7603000D02*
X13903000Y-7633000D01*
X13903000Y-7603000D02*
X13873000Y-7633000D01*
X13967500Y-12407500D02*
X13997500Y-12437500D01*
X13997500Y-12407500D02*
X13967500Y-12437500D01*
X14285000Y-10335000D02*
X14315000Y-10365000D01*
X14315000Y-10335000D02*
X14285000Y-10365000D01*
X14285000Y-10860000D02*
X14315000Y-10890000D01*
X14315000Y-10860000D02*
X14285000Y-10890000D01*
X14492000Y-6401000D02*
X14522000Y-6431000D01*
X14522000Y-6401000D02*
X14492000Y-6431000D01*
X14494000Y-6570000D02*
X14524000Y-6600000D01*
X14524000Y-6570000D02*
X14494000Y-6600000D01*
X14499000Y-6215000D02*
X14529000Y-6245000D01*
X14529000Y-6215000D02*
X14499000Y-6245000D01*
X5950000Y-10450000D02*
G75*
G02*
X5890000Y-10450000I-30000J0D01*
G01*
X5890000Y-10450000D02*
G75*
G02*
X5950000Y-10450000I30000J0D01*
G01*
X5865000Y-10480000D02*
X5975000Y-10480000D01*
X5975000Y-10420000D02*
G75*
G02*
X5975000Y-10480000I0J-30000D01*
G01*
X5975000Y-10420000D02*
X5865000Y-10420000D01*
X5865000Y-10420000D02*
G75*
G03*
X5865000Y-10480000I0J-30000D01*
G01*
X5950000Y-11800000D02*
G75*
G02*
X5890000Y-11800000I-30000J0D01*
G01*
X5890000Y-11800000D02*
G75*
G02*
X5950000Y-11800000I30000J0D01*
G01*
X5865000Y-11830000D02*
X5975000Y-11830000D01*
X5975000Y-11770000D02*
G75*
G02*
X5975000Y-11830000I0J-30000D01*
G01*
X5975000Y-11770000D02*
X5865000Y-11770000D01*
X5865000Y-11770000D02*
G75*
G03*
X5865000Y-11830000I0J-30000D01*
G01*
X5950000Y-12100000D02*
G75*
G02*
X5890000Y-12100000I-30000J0D01*
G01*
X5890000Y-12100000D02*
G75*
G02*
X5950000Y-12100000I30000J0D01*
G01*
X5865000Y-12130000D02*
X5975000Y-12130000D01*
X5975000Y-12070000D02*
G75*
G02*
X5975000Y-12130000I0J-30000D01*
G01*
X5975000Y-12070000D02*
X5865000Y-12070000D01*
X5865000Y-12070000D02*
G75*
G03*
X5865000Y-12130000I0J-30000D01*
G01*
X5950000Y-13450000D02*
G75*
G02*
X5890000Y-13450000I-30000J0D01*
G01*
X5890000Y-13450000D02*
G75*
G02*
X5950000Y-13450000I30000J0D01*
G01*
X5865000Y-13480000D02*
X5975000Y-13480000D01*
X5975000Y-13420000D02*
G75*
G02*
X5975000Y-13480000I0J-30000D01*
G01*
X5975000Y-13420000D02*
X5865000Y-13420000D01*
X5865000Y-13420000D02*
G75*
G03*
X5865000Y-13480000I0J-30000D01*
G01*
X8701000Y-8261000D02*
X8701000Y-8341000D01*
X8661000Y-8301000D02*
X8741000Y-8301000D01*
X8701000Y-9531000D02*
X8701000Y-9611000D01*
X8661000Y-9571000D02*
X8741000Y-9571000D01*
X8955000Y-8261000D02*
X8955000Y-8341000D01*
X8915000Y-8301000D02*
X8995000Y-8301000D01*
X8955000Y-9531000D02*
X8955000Y-9611000D01*
X8915000Y-9571000D02*
X8995000Y-9571000D01*
X9209000Y-8261000D02*
X9209000Y-8341000D01*
X9169000Y-8301000D02*
X9249000Y-8301000D01*
X9209000Y-9531000D02*
X9209000Y-9611000D01*
X9169000Y-9571000D02*
X9249000Y-9571000D01*
X9463000Y-8261000D02*
X9463000Y-8341000D01*
X9423000Y-8301000D02*
X9503000Y-8301000D01*
X9463000Y-9531000D02*
X9463000Y-9611000D01*
X9423000Y-9571000D02*
X9503000Y-9571000D01*
X9717000Y-8261000D02*
X9717000Y-8341000D01*
X9677000Y-8301000D02*
X9757000Y-8301000D01*
X9717000Y-9531000D02*
X9717000Y-9611000D01*
X9677000Y-9571000D02*
X9757000Y-9571000D01*
X9971000Y-8261000D02*
X9971000Y-8341000D01*
X9931000Y-8301000D02*
X10011000Y-8301000D01*
X9971000Y-9531000D02*
X9971000Y-9611000D01*
X9931000Y-9571000D02*
X10011000Y-9571000D01*
X10225000Y-8261000D02*
X10225000Y-8341000D01*
X10185000Y-8301000D02*
X10265000Y-8301000D01*
X10225000Y-9531000D02*
X10225000Y-9611000D01*
X10185000Y-9571000D02*
X10265000Y-9571000D01*
X10479000Y-8261000D02*
X10479000Y-8341000D01*
X10439000Y-8301000D02*
X10519000Y-8301000D01*
X10479000Y-9531000D02*
X10479000Y-9611000D01*
X10439000Y-9571000D02*
X10519000Y-9571000D01*
X12011000Y-8261000D02*
X12011000Y-8341000D01*
X11971000Y-8301000D02*
X12051000Y-8301000D01*
X12011000Y-9531000D02*
X12011000Y-9611000D01*
X11971000Y-9571000D02*
X12051000Y-9571000D01*
X12265000Y-8261000D02*
X12265000Y-8341000D01*
X12225000Y-8301000D02*
X12305000Y-8301000D01*
X12265000Y-9531000D02*
X12265000Y-9611000D01*
X12225000Y-9571000D02*
X12305000Y-9571000D01*
X12519000Y-8261000D02*
X12519000Y-8341000D01*
X12479000Y-8301000D02*
X12559000Y-8301000D01*
X12519000Y-9531000D02*
X12519000Y-9611000D01*
X12479000Y-9571000D02*
X12559000Y-9571000D01*
X12773000Y-8261000D02*
X12773000Y-8341000D01*
X12733000Y-8301000D02*
X12813000Y-8301000D01*
X12773000Y-9531000D02*
X12773000Y-9611000D01*
X12733000Y-9571000D02*
X12813000Y-9571000D01*
X13027000Y-8261000D02*
X13027000Y-8341000D01*
X12987000Y-8301000D02*
X13067000Y-8301000D01*
X13027000Y-9531000D02*
X13027000Y-9611000D01*
X12987000Y-9571000D02*
X13067000Y-9571000D01*
X13281000Y-8261000D02*
X13281000Y-8341000D01*
X13241000Y-8301000D02*
X13321000Y-8301000D01*
X13281000Y-9531000D02*
X13281000Y-9611000D01*
X13241000Y-9571000D02*
X13321000Y-9571000D01*
X13535000Y-8261000D02*
X13535000Y-8341000D01*
X13495000Y-8301000D02*
X13575000Y-8301000D01*
X13535000Y-9531000D02*
X13535000Y-9611000D01*
X13495000Y-9571000D02*
X13575000Y-9571000D01*
X13789000Y-8261000D02*
X13789000Y-8341000D01*
X13749000Y-8301000D02*
X13829000Y-8301000D01*
X13789000Y-9531000D02*
X13789000Y-9611000D01*
X13749000Y-9571000D02*
X13829000Y-9571000D01*
X9283356Y-10810356D02*
X9283356Y-10739644D01*
X9212644Y-10739644D01*
X9212644Y-10810356D01*
X9283356Y-10810356D01*
X9283356Y-11064356D02*
X9283356Y-10993644D01*
X9212644Y-10993644D01*
X9212644Y-11064356D01*
X9283356Y-11064356D01*
X9537356Y-10810356D02*
X9537356Y-10739644D01*
X9466644Y-10739644D01*
X9466644Y-10810356D01*
X9537356Y-10810356D01*
X9537356Y-11064356D02*
X9537356Y-10993644D01*
X9466644Y-10993644D01*
X9466644Y-11064356D01*
X9537356Y-11064356D01*
X9791356Y-10810356D02*
X9791356Y-10739644D01*
X9720644Y-10739644D01*
X9720644Y-10810356D01*
X9791356Y-10810356D01*
X9791356Y-11064356D02*
X9791356Y-10993644D01*
X9720644Y-10993644D01*
X9720644Y-11064356D01*
X9791356Y-11064356D01*
X10045356Y-10810356D02*
X10045356Y-10739644D01*
X9974644Y-10739644D01*
X9974644Y-10810356D01*
X10045356Y-10810356D01*
X10045356Y-11064356D02*
X10045356Y-10993644D01*
X9974644Y-10993644D01*
X9974644Y-11064356D01*
X10045356Y-11064356D01*
X10299356Y-10810356D02*
X10299356Y-10739644D01*
X10228644Y-10739644D01*
X10228644Y-10810356D01*
X10299356Y-10810356D01*
X10299356Y-11064356D02*
X10299356Y-10993644D01*
X10228644Y-10993644D01*
X10228644Y-11064356D01*
X10299356Y-11064356D01*
X10553356Y-10810356D02*
X10553356Y-10739644D01*
X10482644Y-10739644D01*
X10482644Y-10810356D01*
X10553356Y-10810356D01*
X10553356Y-11064356D02*
X10553356Y-10993644D01*
X10482644Y-10993644D01*
X10482644Y-11064356D01*
X10553356Y-11064356D01*
X10807356Y-10810356D02*
X10807356Y-10739644D01*
X10736644Y-10739644D01*
X10736644Y-10810356D01*
X10807356Y-10810356D01*
X10807356Y-11064356D02*
X10807356Y-10993644D01*
X10736644Y-10993644D01*
X10736644Y-11064356D01*
X10807356Y-11064356D01*
X11061356Y-10810356D02*
X11061356Y-10739644D01*
X10990644Y-10739644D01*
X10990644Y-10810356D01*
X11061356Y-10810356D01*
X11061356Y-11064356D02*
X11061356Y-10993644D01*
X10990644Y-10993644D01*
X10990644Y-11064356D01*
X11061356Y-11064356D01*
X11315356Y-10810356D02*
X11315356Y-10739644D01*
X11244644Y-10739644D01*
X11244644Y-10810356D01*
X11315356Y-10810356D01*
X11315356Y-11064356D02*
X11315356Y-10993644D01*
X11244644Y-10993644D01*
X11244644Y-11064356D01*
X11315356Y-11064356D01*
X11569356Y-10810356D02*
X11569356Y-10739644D01*
X11498644Y-10739644D01*
X11498644Y-10810356D01*
X11569356Y-10810356D01*
X11569356Y-11064356D02*
X11569356Y-10993644D01*
X11498644Y-10993644D01*
X11498644Y-11064356D01*
X11569356Y-11064356D01*
X11823356Y-10810356D02*
X11823356Y-10739644D01*
X11752644Y-10739644D01*
X11752644Y-10810356D01*
X11823356Y-10810356D01*
X11823356Y-11064356D02*
X11823356Y-10993644D01*
X11752644Y-10993644D01*
X11752644Y-11064356D01*
X11823356Y-11064356D01*
X12077356Y-10810356D02*
X12077356Y-10739644D01*
X12006644Y-10739644D01*
X12006644Y-10810356D01*
X12077356Y-10810356D01*
X12077356Y-11064356D02*
X12077356Y-10993644D01*
X12006644Y-10993644D01*
X12006644Y-11064356D01*
X12077356Y-11064356D01*
X12331356Y-10810356D02*
X12331356Y-10739644D01*
X12260644Y-10739644D01*
X12260644Y-10810356D01*
X12331356Y-10810356D01*
X12331356Y-11064356D02*
X12331356Y-10993644D01*
X12260644Y-10993644D01*
X12260644Y-11064356D01*
X12331356Y-11064356D01*
X12585356Y-10810356D02*
X12585356Y-10739644D01*
X12514644Y-10739644D01*
X12514644Y-10810356D01*
X12585356Y-10810356D01*
X12585356Y-11064356D02*
X12585356Y-10993644D01*
X12514644Y-10993644D01*
X12514644Y-11064356D01*
X12585356Y-11064356D01*
X12839356Y-10810356D02*
X12839356Y-10739644D01*
X12768644Y-10739644D01*
X12768644Y-10810356D01*
X12839356Y-10810356D01*
X12839356Y-11064356D02*
X12839356Y-10993644D01*
X12768644Y-10993644D01*
X12768644Y-11064356D01*
X12839356Y-11064356D01*
X13093356Y-10810356D02*
X13093356Y-10739644D01*
X13022644Y-10739644D01*
X13022644Y-10810356D01*
X13093356Y-10810356D01*
X13093356Y-11064356D02*
X13093356Y-10993644D01*
X13022644Y-10993644D01*
X13022644Y-11064356D01*
X13093356Y-11064356D01*
X13347356Y-10810356D02*
X13347356Y-10739644D01*
X13276644Y-10739644D01*
X13276644Y-10810356D01*
X13347356Y-10810356D01*
X13347356Y-11064356D02*
X13347356Y-10993644D01*
X13276644Y-10993644D01*
X13276644Y-11064356D01*
X13347356Y-11064356D01*
X13601356Y-10810356D02*
X13601356Y-10739644D01*
X13530644Y-10739644D01*
X13530644Y-10810356D01*
X13601356Y-10810356D01*
X13601356Y-11064356D02*
X13601356Y-10993644D01*
X13530644Y-10993644D01*
X13530644Y-11064356D01*
X13601356Y-11064356D01*
X13855356Y-10810356D02*
X13855356Y-10739644D01*
X13784644Y-10739644D01*
X13784644Y-10810356D01*
X13855356Y-10810356D01*
X13855356Y-11064356D02*
X13855356Y-10993644D01*
X13784644Y-10993644D01*
X13784644Y-11064356D01*
X13855356Y-11064356D01*
X14109356Y-10810356D02*
X14109356Y-10739644D01*
X14038644Y-10739644D01*
X14038644Y-10810356D01*
X14109356Y-10810356D01*
X14109356Y-11064356D02*
X14109356Y-10993644D01*
X14038644Y-10993644D01*
X14038644Y-11064356D01*
X14109356Y-11064356D01*
D13*
X9258000Y-5340000D02*
X9313000Y-5285000D01*
X9258000Y-5230000D01*
X9203000Y-5285000D01*
X9258000Y-5340000D01*
X9512000Y-5340000D02*
X9567000Y-5285000D01*
X9512000Y-5230000D01*
X9457000Y-5285000D01*
X9512000Y-5340000D01*
X9766000Y-5340000D02*
X9821000Y-5285000D01*
X9766000Y-5230000D01*
X9711000Y-5285000D01*
X9766000Y-5340000D01*
X10020000Y-5340000D02*
X10075000Y-5285000D01*
X10020000Y-5230000D01*
X9965000Y-5285000D01*
X10020000Y-5340000D01*
X12573500Y-5337500D02*
X12628500Y-5282500D01*
X12573500Y-5227500D01*
X12518500Y-5282500D01*
X12573500Y-5337500D01*
X12827500Y-5337500D02*
X12882500Y-5282500D01*
X12827500Y-5227500D01*
X12772500Y-5282500D01*
X12827500Y-5337500D01*
X13081500Y-5337500D02*
X13136500Y-5282500D01*
X13081500Y-5227500D01*
X13026500Y-5282500D01*
X13081500Y-5337500D01*
X13335500Y-5337500D02*
X13390500Y-5282500D01*
X13335500Y-5227500D01*
X13280500Y-5282500D01*
X13335500Y-5337500D01*
D14*
X6385000Y-10630000D02*
X6655000Y-10900000D01*
X6655000Y-10630000D02*
X6385000Y-10900000D01*
X6655000Y-10765000D02*
G75*
G02*
X6385000Y-10765000I-135000J0D01*
G01*
X6385000Y-10765000D02*
G75*
G02*
X6655000Y-10765000I135000J0D01*
G01*
X6385000Y-11350000D02*
X6655000Y-11620000D01*
X6655000Y-11350000D02*
X6385000Y-11620000D01*
X6655000Y-11485000D02*
G75*
G02*
X6385000Y-11485000I-135000J0D01*
G01*
X6385000Y-11485000D02*
G75*
G02*
X6655000Y-11485000I135000J0D01*
G01*
X6385000Y-12280000D02*
X6655000Y-12550000D01*
X6655000Y-12280000D02*
X6385000Y-12550000D01*
X6655000Y-12415000D02*
G75*
G02*
X6385000Y-12415000I-135000J0D01*
G01*
X6385000Y-12415000D02*
G75*
G02*
X6655000Y-12415000I135000J0D01*
G01*
X6385000Y-13000000D02*
X6655000Y-13270000D01*
X6655000Y-13000000D02*
X6385000Y-13270000D01*
X6655000Y-13135000D02*
G75*
G02*
X6385000Y-13135000I-135000J0D01*
G01*
X6385000Y-13135000D02*
G75*
G02*
X6655000Y-13135000I135000J0D01*
G01*
D15*
X5120000Y-13785000D02*
X5440000Y-14105000D01*
X5440000Y-13785000D02*
X5120000Y-14105000D01*
X5280000Y-13785000D02*
X5280000Y-14105000D01*
X5120000Y-13945000D02*
X5440000Y-13945000D01*
X7840000Y-5140000D02*
X8160000Y-5460000D01*
X8160000Y-5140000D02*
X7840000Y-5460000D01*
X8000000Y-5140000D02*
X8000000Y-5460000D01*
X7840000Y-5300000D02*
X8160000Y-5300000D01*
X14140000Y-5140000D02*
X14460000Y-5460000D01*
X14460000Y-5140000D02*
X14140000Y-5460000D01*
X14300000Y-5140000D02*
X14300000Y-5460000D01*
X14140000Y-5300000D02*
X14460000Y-5300000D01*
X14140000Y-13740000D02*
X14460000Y-14060000D01*
X14460000Y-13740000D02*
X14140000Y-14060000D01*
X14300000Y-13740000D02*
X14300000Y-14060000D01*
X14140000Y-13900000D02*
X14460000Y-13900000D01*
D11*
X5158277Y-14640818D02*
X5158277Y-14440818D01*
X5158277Y-14440818D02*
X5205896Y-14440818D01*
X5205896Y-14440818D02*
X5234467Y-14450341D01*
X5234467Y-14450341D02*
X5253515Y-14469389D01*
X5253515Y-14469389D02*
X5263039Y-14488437D01*
X5263039Y-14488437D02*
X5272563Y-14526532D01*
X5272563Y-14526532D02*
X5272563Y-14555103D01*
X5272563Y-14555103D02*
X5263039Y-14593198D01*
X5263039Y-14593198D02*
X5253515Y-14612246D01*
X5253515Y-14612246D02*
X5234467Y-14631294D01*
X5234467Y-14631294D02*
X5205896Y-14640818D01*
X5205896Y-14640818D02*
X5158277Y-14640818D01*
X5358277Y-14640818D02*
X5358277Y-14507484D01*
X5358277Y-14545579D02*
X5367801Y-14526532D01*
X5367801Y-14526532D02*
X5377324Y-14517008D01*
X5377324Y-14517008D02*
X5396372Y-14507484D01*
X5396372Y-14507484D02*
X5415420Y-14507484D01*
X5482086Y-14640818D02*
X5482086Y-14507484D01*
X5482086Y-14440818D02*
X5472563Y-14450341D01*
X5472563Y-14450341D02*
X5482086Y-14459865D01*
X5482086Y-14459865D02*
X5491610Y-14450341D01*
X5491610Y-14450341D02*
X5482086Y-14440818D01*
X5482086Y-14440818D02*
X5482086Y-14459865D01*
X5605896Y-14640818D02*
X5586848Y-14631294D01*
X5586848Y-14631294D02*
X5577324Y-14612246D01*
X5577324Y-14612246D02*
X5577324Y-14440818D01*
X5710658Y-14640818D02*
X5691610Y-14631294D01*
X5691610Y-14631294D02*
X5682086Y-14612246D01*
X5682086Y-14612246D02*
X5682086Y-14440818D01*
X5939229Y-14640818D02*
X5939229Y-14440818D01*
X5939229Y-14440818D02*
X6005896Y-14583675D01*
X6005896Y-14583675D02*
X6072562Y-14440818D01*
X6072562Y-14440818D02*
X6072562Y-14640818D01*
X6253515Y-14640818D02*
X6253515Y-14536056D01*
X6253515Y-14536056D02*
X6243991Y-14517008D01*
X6243991Y-14517008D02*
X6224943Y-14507484D01*
X6224943Y-14507484D02*
X6186848Y-14507484D01*
X6186848Y-14507484D02*
X6167801Y-14517008D01*
X6253515Y-14631294D02*
X6234467Y-14640818D01*
X6234467Y-14640818D02*
X6186848Y-14640818D01*
X6186848Y-14640818D02*
X6167801Y-14631294D01*
X6167801Y-14631294D02*
X6158277Y-14612246D01*
X6158277Y-14612246D02*
X6158277Y-14593198D01*
X6158277Y-14593198D02*
X6167801Y-14574151D01*
X6167801Y-14574151D02*
X6186848Y-14564627D01*
X6186848Y-14564627D02*
X6234467Y-14564627D01*
X6234467Y-14564627D02*
X6253515Y-14555103D01*
X6348753Y-14507484D02*
X6348753Y-14707484D01*
X6348753Y-14517008D02*
X6367801Y-14507484D01*
X6367801Y-14507484D02*
X6405896Y-14507484D01*
X6405896Y-14507484D02*
X6424943Y-14517008D01*
X6424943Y-14517008D02*
X6434467Y-14526532D01*
X6434467Y-14526532D02*
X6443991Y-14545579D01*
X6443991Y-14545579D02*
X6443991Y-14602722D01*
X6443991Y-14602722D02*
X6434467Y-14621770D01*
X6434467Y-14621770D02*
X6424943Y-14631294D01*
X6424943Y-14631294D02*
X6405896Y-14640818D01*
X6405896Y-14640818D02*
X6367801Y-14640818D01*
X6367801Y-14640818D02*
X6348753Y-14631294D01*
X6529705Y-14621770D02*
X6539229Y-14631294D01*
X6539229Y-14631294D02*
X6529705Y-14640818D01*
X6529705Y-14640818D02*
X6520182Y-14631294D01*
X6520182Y-14631294D02*
X6529705Y-14621770D01*
X6529705Y-14621770D02*
X6529705Y-14640818D01*
X6529705Y-14517008D02*
X6539229Y-14526532D01*
X6539229Y-14526532D02*
X6529705Y-14536056D01*
X6529705Y-14536056D02*
X6520182Y-14526532D01*
X6520182Y-14526532D02*
X6529705Y-14517008D01*
X6529705Y-14517008D02*
X6529705Y-14536056D01*
D12*
X4867500Y-14954334D02*
X4897500Y-14984334D01*
X4897500Y-14954334D02*
X4867500Y-14984334D01*
D11*
X5196372Y-14860818D02*
X5215420Y-14860818D01*
X5215420Y-14860818D02*
X5234467Y-14870341D01*
X5234467Y-14870341D02*
X5243991Y-14879865D01*
X5243991Y-14879865D02*
X5253515Y-14898913D01*
X5253515Y-14898913D02*
X5263039Y-14937008D01*
X5263039Y-14937008D02*
X5263039Y-14984627D01*
X5263039Y-14984627D02*
X5253515Y-15022722D01*
X5253515Y-15022722D02*
X5243991Y-15041770D01*
X5243991Y-15041770D02*
X5234467Y-15051294D01*
X5234467Y-15051294D02*
X5215420Y-15060818D01*
X5215420Y-15060818D02*
X5196372Y-15060818D01*
X5196372Y-15060818D02*
X5177324Y-15051294D01*
X5177324Y-15051294D02*
X5167801Y-15041770D01*
X5167801Y-15041770D02*
X5158277Y-15022722D01*
X5158277Y-15022722D02*
X5148753Y-14984627D01*
X5148753Y-14984627D02*
X5148753Y-14937008D01*
X5148753Y-14937008D02*
X5158277Y-14898913D01*
X5158277Y-14898913D02*
X5167801Y-14879865D01*
X5167801Y-14879865D02*
X5177324Y-14870341D01*
X5177324Y-14870341D02*
X5196372Y-14860818D01*
X5348753Y-15041770D02*
X5358277Y-15051294D01*
X5358277Y-15051294D02*
X5348753Y-15060818D01*
X5348753Y-15060818D02*
X5339229Y-15051294D01*
X5339229Y-15051294D02*
X5348753Y-15041770D01*
X5348753Y-15041770D02*
X5348753Y-15060818D01*
X5424944Y-14860818D02*
X5548753Y-14860818D01*
X5548753Y-14860818D02*
X5482086Y-14937008D01*
X5482086Y-14937008D02*
X5510658Y-14937008D01*
X5510658Y-14937008D02*
X5529705Y-14946532D01*
X5529705Y-14946532D02*
X5539229Y-14956056D01*
X5539229Y-14956056D02*
X5548753Y-14975103D01*
X5548753Y-14975103D02*
X5548753Y-15022722D01*
X5548753Y-15022722D02*
X5539229Y-15041770D01*
X5539229Y-15041770D02*
X5529705Y-15051294D01*
X5529705Y-15051294D02*
X5510658Y-15060818D01*
X5510658Y-15060818D02*
X5453515Y-15060818D01*
X5453515Y-15060818D02*
X5434467Y-15051294D01*
X5434467Y-15051294D02*
X5424944Y-15041770D01*
X5672562Y-14860818D02*
X5691610Y-14860818D01*
X5691610Y-14860818D02*
X5710658Y-14870341D01*
X5710658Y-14870341D02*
X5720182Y-14879865D01*
X5720182Y-14879865D02*
X5729705Y-14898913D01*
X5729705Y-14898913D02*
X5739229Y-14937008D01*
X5739229Y-14937008D02*
X5739229Y-14984627D01*
X5739229Y-14984627D02*
X5729705Y-15022722D01*
X5729705Y-15022722D02*
X5720182Y-15041770D01*
X5720182Y-15041770D02*
X5710658Y-15051294D01*
X5710658Y-15051294D02*
X5691610Y-15060818D01*
X5691610Y-15060818D02*
X5672562Y-15060818D01*
X5672562Y-15060818D02*
X5653515Y-15051294D01*
X5653515Y-15051294D02*
X5643991Y-15041770D01*
X5643991Y-15041770D02*
X5634467Y-15022722D01*
X5634467Y-15022722D02*
X5624943Y-14984627D01*
X5624943Y-14984627D02*
X5624943Y-14937008D01*
X5624943Y-14937008D02*
X5634467Y-14898913D01*
X5634467Y-14898913D02*
X5643991Y-14879865D01*
X5643991Y-14879865D02*
X5653515Y-14870341D01*
X5653515Y-14870341D02*
X5672562Y-14860818D01*
X5863039Y-14860818D02*
X5882086Y-14860818D01*
X5882086Y-14860818D02*
X5901134Y-14870341D01*
X5901134Y-14870341D02*
X5910658Y-14879865D01*
X5910658Y-14879865D02*
X5920182Y-14898913D01*
X5920182Y-14898913D02*
X5929705Y-14937008D01*
X5929705Y-14937008D02*
X5929705Y-14984627D01*
X5929705Y-14984627D02*
X5920182Y-15022722D01*
X5920182Y-15022722D02*
X5910658Y-15041770D01*
X5910658Y-15041770D02*
X5901134Y-15051294D01*
X5901134Y-15051294D02*
X5882086Y-15060818D01*
X5882086Y-15060818D02*
X5863039Y-15060818D01*
X5863039Y-15060818D02*
X5843991Y-15051294D01*
X5843991Y-15051294D02*
X5834467Y-15041770D01*
X5834467Y-15041770D02*
X5824943Y-15022722D01*
X5824943Y-15022722D02*
X5815420Y-14984627D01*
X5815420Y-14984627D02*
X5815420Y-14937008D01*
X5815420Y-14937008D02*
X5824943Y-14898913D01*
X5824943Y-14898913D02*
X5834467Y-14879865D01*
X5834467Y-14879865D02*
X5843991Y-14870341D01*
X5843991Y-14870341D02*
X5863039Y-14860818D01*
X6015420Y-15060818D02*
X6015420Y-14927484D01*
X6015420Y-14946532D02*
X6024943Y-14937008D01*
X6024943Y-14937008D02*
X6043991Y-14927484D01*
X6043991Y-14927484D02*
X6072563Y-14927484D01*
X6072563Y-14927484D02*
X6091610Y-14937008D01*
X6091610Y-14937008D02*
X6101134Y-14956056D01*
X6101134Y-14956056D02*
X6101134Y-15060818D01*
X6101134Y-14956056D02*
X6110658Y-14937008D01*
X6110658Y-14937008D02*
X6129705Y-14927484D01*
X6129705Y-14927484D02*
X6158277Y-14927484D01*
X6158277Y-14927484D02*
X6177324Y-14937008D01*
X6177324Y-14937008D02*
X6186848Y-14956056D01*
X6186848Y-14956056D02*
X6186848Y-15060818D01*
X6282086Y-15060818D02*
X6282086Y-14927484D01*
X6282086Y-14946532D02*
X6291610Y-14937008D01*
X6291610Y-14937008D02*
X6310658Y-14927484D01*
X6310658Y-14927484D02*
X6339229Y-14927484D01*
X6339229Y-14927484D02*
X6358277Y-14937008D01*
X6358277Y-14937008D02*
X6367801Y-14956056D01*
X6367801Y-14956056D02*
X6367801Y-15060818D01*
X6367801Y-14956056D02*
X6377324Y-14937008D01*
X6377324Y-14937008D02*
X6396372Y-14927484D01*
X6396372Y-14927484D02*
X6424943Y-14927484D01*
X6424943Y-14927484D02*
X6443991Y-14937008D01*
X6443991Y-14937008D02*
X6453515Y-14956056D01*
X6453515Y-14956056D02*
X6453515Y-15060818D01*
X6843991Y-14851294D02*
X6672563Y-15108437D01*
X7101134Y-14860818D02*
X7120182Y-14860818D01*
X7120182Y-14860818D02*
X7139229Y-14870341D01*
X7139229Y-14870341D02*
X7148753Y-14879865D01*
X7148753Y-14879865D02*
X7158277Y-14898913D01*
X7158277Y-14898913D02*
X7167801Y-14937008D01*
X7167801Y-14937008D02*
X7167801Y-14984627D01*
X7167801Y-14984627D02*
X7158277Y-15022722D01*
X7158277Y-15022722D02*
X7148753Y-15041770D01*
X7148753Y-15041770D02*
X7139229Y-15051294D01*
X7139229Y-15051294D02*
X7120182Y-15060818D01*
X7120182Y-15060818D02*
X7101134Y-15060818D01*
X7101134Y-15060818D02*
X7082086Y-15051294D01*
X7082086Y-15051294D02*
X7072563Y-15041770D01*
X7072563Y-15041770D02*
X7063039Y-15022722D01*
X7063039Y-15022722D02*
X7053515Y-14984627D01*
X7053515Y-14984627D02*
X7053515Y-14937008D01*
X7053515Y-14937008D02*
X7063039Y-14898913D01*
X7063039Y-14898913D02*
X7072563Y-14879865D01*
X7072563Y-14879865D02*
X7082086Y-14870341D01*
X7082086Y-14870341D02*
X7101134Y-14860818D01*
X7253515Y-15041770D02*
X7263039Y-15051294D01*
X7263039Y-15051294D02*
X7253515Y-15060818D01*
X7253515Y-15060818D02*
X7243991Y-15051294D01*
X7243991Y-15051294D02*
X7253515Y-15041770D01*
X7253515Y-15041770D02*
X7253515Y-15060818D01*
X7386848Y-14860818D02*
X7405896Y-14860818D01*
X7405896Y-14860818D02*
X7424944Y-14870341D01*
X7424944Y-14870341D02*
X7434467Y-14879865D01*
X7434467Y-14879865D02*
X7443991Y-14898913D01*
X7443991Y-14898913D02*
X7453515Y-14937008D01*
X7453515Y-14937008D02*
X7453515Y-14984627D01*
X7453515Y-14984627D02*
X7443991Y-15022722D01*
X7443991Y-15022722D02*
X7434467Y-15041770D01*
X7434467Y-15041770D02*
X7424944Y-15051294D01*
X7424944Y-15051294D02*
X7405896Y-15060818D01*
X7405896Y-15060818D02*
X7386848Y-15060818D01*
X7386848Y-15060818D02*
X7367801Y-15051294D01*
X7367801Y-15051294D02*
X7358277Y-15041770D01*
X7358277Y-15041770D02*
X7348753Y-15022722D01*
X7348753Y-15022722D02*
X7339229Y-14984627D01*
X7339229Y-14984627D02*
X7339229Y-14937008D01*
X7339229Y-14937008D02*
X7348753Y-14898913D01*
X7348753Y-14898913D02*
X7358277Y-14879865D01*
X7358277Y-14879865D02*
X7367801Y-14870341D01*
X7367801Y-14870341D02*
X7386848Y-14860818D01*
X7643991Y-15060818D02*
X7529706Y-15060818D01*
X7586848Y-15060818D02*
X7586848Y-14860818D01*
X7586848Y-14860818D02*
X7567801Y-14889389D01*
X7567801Y-14889389D02*
X7548753Y-14908437D01*
X7548753Y-14908437D02*
X7529706Y-14917960D01*
X7834467Y-15060818D02*
X7720182Y-15060818D01*
X7777325Y-15060818D02*
X7777325Y-14860818D01*
X7777325Y-14860818D02*
X7758277Y-14889389D01*
X7758277Y-14889389D02*
X7739229Y-14908437D01*
X7739229Y-14908437D02*
X7720182Y-14917960D01*
X7948753Y-14946532D02*
X7929706Y-14937008D01*
X7929706Y-14937008D02*
X7920182Y-14927484D01*
X7920182Y-14927484D02*
X7910658Y-14908437D01*
X7910658Y-14908437D02*
X7910658Y-14898913D01*
X7910658Y-14898913D02*
X7920182Y-14879865D01*
X7920182Y-14879865D02*
X7929706Y-14870341D01*
X7929706Y-14870341D02*
X7948753Y-14860818D01*
X7948753Y-14860818D02*
X7986848Y-14860818D01*
X7986848Y-14860818D02*
X8005896Y-14870341D01*
X8005896Y-14870341D02*
X8015420Y-14879865D01*
X8015420Y-14879865D02*
X8024944Y-14898913D01*
X8024944Y-14898913D02*
X8024944Y-14908437D01*
X8024944Y-14908437D02*
X8015420Y-14927484D01*
X8015420Y-14927484D02*
X8005896Y-14937008D01*
X8005896Y-14937008D02*
X7986848Y-14946532D01*
X7986848Y-14946532D02*
X7948753Y-14946532D01*
X7948753Y-14946532D02*
X7929706Y-14956056D01*
X7929706Y-14956056D02*
X7920182Y-14965579D01*
X7920182Y-14965579D02*
X7910658Y-14984627D01*
X7910658Y-14984627D02*
X7910658Y-15022722D01*
X7910658Y-15022722D02*
X7920182Y-15041770D01*
X7920182Y-15041770D02*
X7929706Y-15051294D01*
X7929706Y-15051294D02*
X7948753Y-15060818D01*
X7948753Y-15060818D02*
X7986848Y-15060818D01*
X7986848Y-15060818D02*
X8005896Y-15051294D01*
X8005896Y-15051294D02*
X8015420Y-15041770D01*
X8015420Y-15041770D02*
X8024944Y-15022722D01*
X8024944Y-15022722D02*
X8024944Y-14984627D01*
X8024944Y-14984627D02*
X8015420Y-14965579D01*
X8015420Y-14965579D02*
X8005896Y-14956056D01*
X8005896Y-14956056D02*
X7986848Y-14946532D01*
X8101134Y-14860818D02*
X8101134Y-14898913D01*
X8177325Y-14860818D02*
X8177325Y-14898913D01*
X8472563Y-15137008D02*
X8463039Y-15127484D01*
X8463039Y-15127484D02*
X8443991Y-15098913D01*
X8443991Y-15098913D02*
X8434468Y-15079865D01*
X8434468Y-15079865D02*
X8424944Y-15051294D01*
X8424944Y-15051294D02*
X8415420Y-15003675D01*
X8415420Y-15003675D02*
X8415420Y-14965579D01*
X8415420Y-14965579D02*
X8424944Y-14917960D01*
X8424944Y-14917960D02*
X8434468Y-14889389D01*
X8434468Y-14889389D02*
X8443991Y-14870341D01*
X8443991Y-14870341D02*
X8463039Y-14841770D01*
X8463039Y-14841770D02*
X8472563Y-14832246D01*
X8558277Y-15060818D02*
X8596372Y-15060818D01*
X8596372Y-15060818D02*
X8615420Y-15051294D01*
X8615420Y-15051294D02*
X8624944Y-15041770D01*
X8624944Y-15041770D02*
X8643991Y-15013198D01*
X8643991Y-15013198D02*
X8653515Y-14975103D01*
X8653515Y-14975103D02*
X8653515Y-14898913D01*
X8653515Y-14898913D02*
X8643991Y-14879865D01*
X8643991Y-14879865D02*
X8634468Y-14870341D01*
X8634468Y-14870341D02*
X8615420Y-14860818D01*
X8615420Y-14860818D02*
X8577325Y-14860818D01*
X8577325Y-14860818D02*
X8558277Y-14870341D01*
X8558277Y-14870341D02*
X8548753Y-14879865D01*
X8548753Y-14879865D02*
X8539230Y-14898913D01*
X8539230Y-14898913D02*
X8539230Y-14946532D01*
X8539230Y-14946532D02*
X8548753Y-14965579D01*
X8548753Y-14965579D02*
X8558277Y-14975103D01*
X8558277Y-14975103D02*
X8577325Y-14984627D01*
X8577325Y-14984627D02*
X8615420Y-14984627D01*
X8615420Y-14984627D02*
X8634468Y-14975103D01*
X8634468Y-14975103D02*
X8643991Y-14965579D01*
X8643991Y-14965579D02*
X8653515Y-14946532D01*
X8767801Y-14946532D02*
X8748753Y-14937008D01*
X8748753Y-14937008D02*
X8739230Y-14927484D01*
X8739230Y-14927484D02*
X8729706Y-14908437D01*
X8729706Y-14908437D02*
X8729706Y-14898913D01*
X8729706Y-14898913D02*
X8739230Y-14879865D01*
X8739230Y-14879865D02*
X8748753Y-14870341D01*
X8748753Y-14870341D02*
X8767801Y-14860818D01*
X8767801Y-14860818D02*
X8805896Y-14860818D01*
X8805896Y-14860818D02*
X8824944Y-14870341D01*
X8824944Y-14870341D02*
X8834468Y-14879865D01*
X8834468Y-14879865D02*
X8843991Y-14898913D01*
X8843991Y-14898913D02*
X8843991Y-14908437D01*
X8843991Y-14908437D02*
X8834468Y-14927484D01*
X8834468Y-14927484D02*
X8824944Y-14937008D01*
X8824944Y-14937008D02*
X8805896Y-14946532D01*
X8805896Y-14946532D02*
X8767801Y-14946532D01*
X8767801Y-14946532D02*
X8748753Y-14956056D01*
X8748753Y-14956056D02*
X8739230Y-14965579D01*
X8739230Y-14965579D02*
X8729706Y-14984627D01*
X8729706Y-14984627D02*
X8729706Y-15022722D01*
X8729706Y-15022722D02*
X8739230Y-15041770D01*
X8739230Y-15041770D02*
X8748753Y-15051294D01*
X8748753Y-15051294D02*
X8767801Y-15060818D01*
X8767801Y-15060818D02*
X8805896Y-15060818D01*
X8805896Y-15060818D02*
X8824944Y-15051294D01*
X8824944Y-15051294D02*
X8834468Y-15041770D01*
X8834468Y-15041770D02*
X8843991Y-15022722D01*
X8843991Y-15022722D02*
X8843991Y-14984627D01*
X8843991Y-14984627D02*
X8834468Y-14965579D01*
X8834468Y-14965579D02*
X8824944Y-14956056D01*
X8824944Y-14956056D02*
X8805896Y-14946532D01*
X9082087Y-15060818D02*
X9082087Y-14860818D01*
X9167801Y-15060818D02*
X9167801Y-14956056D01*
X9167801Y-14956056D02*
X9158277Y-14937008D01*
X9158277Y-14937008D02*
X9139230Y-14927484D01*
X9139230Y-14927484D02*
X9110658Y-14927484D01*
X9110658Y-14927484D02*
X9091611Y-14937008D01*
X9091611Y-14937008D02*
X9082087Y-14946532D01*
X9291611Y-15060818D02*
X9272563Y-15051294D01*
X9272563Y-15051294D02*
X9263039Y-15041770D01*
X9263039Y-15041770D02*
X9253515Y-15022722D01*
X9253515Y-15022722D02*
X9253515Y-14965579D01*
X9253515Y-14965579D02*
X9263039Y-14946532D01*
X9263039Y-14946532D02*
X9272563Y-14937008D01*
X9272563Y-14937008D02*
X9291611Y-14927484D01*
X9291611Y-14927484D02*
X9320182Y-14927484D01*
X9320182Y-14927484D02*
X9339230Y-14937008D01*
X9339230Y-14937008D02*
X9348753Y-14946532D01*
X9348753Y-14946532D02*
X9358277Y-14965579D01*
X9358277Y-14965579D02*
X9358277Y-15022722D01*
X9358277Y-15022722D02*
X9348753Y-15041770D01*
X9348753Y-15041770D02*
X9339230Y-15051294D01*
X9339230Y-15051294D02*
X9320182Y-15060818D01*
X9320182Y-15060818D02*
X9291611Y-15060818D01*
X9472563Y-15060818D02*
X9453515Y-15051294D01*
X9453515Y-15051294D02*
X9443992Y-15032246D01*
X9443992Y-15032246D02*
X9443992Y-14860818D01*
X9624944Y-15051294D02*
X9605896Y-15060818D01*
X9605896Y-15060818D02*
X9567801Y-15060818D01*
X9567801Y-15060818D02*
X9548753Y-15051294D01*
X9548753Y-15051294D02*
X9539230Y-15032246D01*
X9539230Y-15032246D02*
X9539230Y-14956056D01*
X9539230Y-14956056D02*
X9548753Y-14937008D01*
X9548753Y-14937008D02*
X9567801Y-14927484D01*
X9567801Y-14927484D02*
X9605896Y-14927484D01*
X9605896Y-14927484D02*
X9624944Y-14937008D01*
X9624944Y-14937008D02*
X9634468Y-14956056D01*
X9634468Y-14956056D02*
X9634468Y-14975103D01*
X9634468Y-14975103D02*
X9539230Y-14994151D01*
X9710658Y-15051294D02*
X9729706Y-15060818D01*
X9729706Y-15060818D02*
X9767801Y-15060818D01*
X9767801Y-15060818D02*
X9786849Y-15051294D01*
X9786849Y-15051294D02*
X9796373Y-15032246D01*
X9796373Y-15032246D02*
X9796373Y-15022722D01*
X9796373Y-15022722D02*
X9786849Y-15003675D01*
X9786849Y-15003675D02*
X9767801Y-14994151D01*
X9767801Y-14994151D02*
X9739230Y-14994151D01*
X9739230Y-14994151D02*
X9720182Y-14984627D01*
X9720182Y-14984627D02*
X9710658Y-14965579D01*
X9710658Y-14965579D02*
X9710658Y-14956056D01*
X9710658Y-14956056D02*
X9720182Y-14937008D01*
X9720182Y-14937008D02*
X9739230Y-14927484D01*
X9739230Y-14927484D02*
X9767801Y-14927484D01*
X9767801Y-14927484D02*
X9786849Y-14937008D01*
X9863039Y-15137008D02*
X9872563Y-15127484D01*
X9872563Y-15127484D02*
X9891611Y-15098913D01*
X9891611Y-15098913D02*
X9901134Y-15079865D01*
X9901134Y-15079865D02*
X9910658Y-15051294D01*
X9910658Y-15051294D02*
X9920182Y-15003675D01*
X9920182Y-15003675D02*
X9920182Y-14965579D01*
X9920182Y-14965579D02*
X9910658Y-14917960D01*
X9910658Y-14917960D02*
X9901134Y-14889389D01*
X9901134Y-14889389D02*
X9891611Y-14870341D01*
X9891611Y-14870341D02*
X9872563Y-14841770D01*
X9872563Y-14841770D02*
X9863039Y-14832246D01*
D12*
X4897500Y-15233334D02*
G75*
G02*
X4837500Y-15233334I-30000J0D01*
G01*
X4837500Y-15233334D02*
G75*
G02*
X4897500Y-15233334I30000J0D01*
G01*
D11*
X5196372Y-15124818D02*
X5215420Y-15124818D01*
X5215420Y-15124818D02*
X5234467Y-15134341D01*
X5234467Y-15134341D02*
X5243991Y-15143865D01*
X5243991Y-15143865D02*
X5253515Y-15162913D01*
X5253515Y-15162913D02*
X5263039Y-15201008D01*
X5263039Y-15201008D02*
X5263039Y-15248627D01*
X5263039Y-15248627D02*
X5253515Y-15286722D01*
X5253515Y-15286722D02*
X5243991Y-15305770D01*
X5243991Y-15305770D02*
X5234467Y-15315294D01*
X5234467Y-15315294D02*
X5215420Y-15324818D01*
X5215420Y-15324818D02*
X5196372Y-15324818D01*
X5196372Y-15324818D02*
X5177324Y-15315294D01*
X5177324Y-15315294D02*
X5167801Y-15305770D01*
X5167801Y-15305770D02*
X5158277Y-15286722D01*
X5158277Y-15286722D02*
X5148753Y-15248627D01*
X5148753Y-15248627D02*
X5148753Y-15201008D01*
X5148753Y-15201008D02*
X5158277Y-15162913D01*
X5158277Y-15162913D02*
X5167801Y-15143865D01*
X5167801Y-15143865D02*
X5177324Y-15134341D01*
X5177324Y-15134341D02*
X5196372Y-15124818D01*
X5348753Y-15305770D02*
X5358277Y-15315294D01*
X5358277Y-15315294D02*
X5348753Y-15324818D01*
X5348753Y-15324818D02*
X5339229Y-15315294D01*
X5339229Y-15315294D02*
X5348753Y-15305770D01*
X5348753Y-15305770D02*
X5348753Y-15324818D01*
X5529705Y-15124818D02*
X5491610Y-15124818D01*
X5491610Y-15124818D02*
X5472563Y-15134341D01*
X5472563Y-15134341D02*
X5463039Y-15143865D01*
X5463039Y-15143865D02*
X5443991Y-15172437D01*
X5443991Y-15172437D02*
X5434467Y-15210532D01*
X5434467Y-15210532D02*
X5434467Y-15286722D01*
X5434467Y-15286722D02*
X5443991Y-15305770D01*
X5443991Y-15305770D02*
X5453515Y-15315294D01*
X5453515Y-15315294D02*
X5472563Y-15324818D01*
X5472563Y-15324818D02*
X5510658Y-15324818D01*
X5510658Y-15324818D02*
X5529705Y-15315294D01*
X5529705Y-15315294D02*
X5539229Y-15305770D01*
X5539229Y-15305770D02*
X5548753Y-15286722D01*
X5548753Y-15286722D02*
X5548753Y-15239103D01*
X5548753Y-15239103D02*
X5539229Y-15220056D01*
X5539229Y-15220056D02*
X5529705Y-15210532D01*
X5529705Y-15210532D02*
X5510658Y-15201008D01*
X5510658Y-15201008D02*
X5472563Y-15201008D01*
X5472563Y-15201008D02*
X5453515Y-15210532D01*
X5453515Y-15210532D02*
X5443991Y-15220056D01*
X5443991Y-15220056D02*
X5434467Y-15239103D01*
X5672562Y-15124818D02*
X5691610Y-15124818D01*
X5691610Y-15124818D02*
X5710658Y-15134341D01*
X5710658Y-15134341D02*
X5720182Y-15143865D01*
X5720182Y-15143865D02*
X5729705Y-15162913D01*
X5729705Y-15162913D02*
X5739229Y-15201008D01*
X5739229Y-15201008D02*
X5739229Y-15248627D01*
X5739229Y-15248627D02*
X5729705Y-15286722D01*
X5729705Y-15286722D02*
X5720182Y-15305770D01*
X5720182Y-15305770D02*
X5710658Y-15315294D01*
X5710658Y-15315294D02*
X5691610Y-15324818D01*
X5691610Y-15324818D02*
X5672562Y-15324818D01*
X5672562Y-15324818D02*
X5653515Y-15315294D01*
X5653515Y-15315294D02*
X5643991Y-15305770D01*
X5643991Y-15305770D02*
X5634467Y-15286722D01*
X5634467Y-15286722D02*
X5624943Y-15248627D01*
X5624943Y-15248627D02*
X5624943Y-15201008D01*
X5624943Y-15201008D02*
X5634467Y-15162913D01*
X5634467Y-15162913D02*
X5643991Y-15143865D01*
X5643991Y-15143865D02*
X5653515Y-15134341D01*
X5653515Y-15134341D02*
X5672562Y-15124818D01*
X5863039Y-15124818D02*
X5882086Y-15124818D01*
X5882086Y-15124818D02*
X5901134Y-15134341D01*
X5901134Y-15134341D02*
X5910658Y-15143865D01*
X5910658Y-15143865D02*
X5920182Y-15162913D01*
X5920182Y-15162913D02*
X5929705Y-15201008D01*
X5929705Y-15201008D02*
X5929705Y-15248627D01*
X5929705Y-15248627D02*
X5920182Y-15286722D01*
X5920182Y-15286722D02*
X5910658Y-15305770D01*
X5910658Y-15305770D02*
X5901134Y-15315294D01*
X5901134Y-15315294D02*
X5882086Y-15324818D01*
X5882086Y-15324818D02*
X5863039Y-15324818D01*
X5863039Y-15324818D02*
X5843991Y-15315294D01*
X5843991Y-15315294D02*
X5834467Y-15305770D01*
X5834467Y-15305770D02*
X5824943Y-15286722D01*
X5824943Y-15286722D02*
X5815420Y-15248627D01*
X5815420Y-15248627D02*
X5815420Y-15201008D01*
X5815420Y-15201008D02*
X5824943Y-15162913D01*
X5824943Y-15162913D02*
X5834467Y-15143865D01*
X5834467Y-15143865D02*
X5843991Y-15134341D01*
X5843991Y-15134341D02*
X5863039Y-15124818D01*
X6015420Y-15324818D02*
X6015420Y-15191484D01*
X6015420Y-15210532D02*
X6024943Y-15201008D01*
X6024943Y-15201008D02*
X6043991Y-15191484D01*
X6043991Y-15191484D02*
X6072563Y-15191484D01*
X6072563Y-15191484D02*
X6091610Y-15201008D01*
X6091610Y-15201008D02*
X6101134Y-15220056D01*
X6101134Y-15220056D02*
X6101134Y-15324818D01*
X6101134Y-15220056D02*
X6110658Y-15201008D01*
X6110658Y-15201008D02*
X6129705Y-15191484D01*
X6129705Y-15191484D02*
X6158277Y-15191484D01*
X6158277Y-15191484D02*
X6177324Y-15201008D01*
X6177324Y-15201008D02*
X6186848Y-15220056D01*
X6186848Y-15220056D02*
X6186848Y-15324818D01*
X6282086Y-15324818D02*
X6282086Y-15191484D01*
X6282086Y-15210532D02*
X6291610Y-15201008D01*
X6291610Y-15201008D02*
X6310658Y-15191484D01*
X6310658Y-15191484D02*
X6339229Y-15191484D01*
X6339229Y-15191484D02*
X6358277Y-15201008D01*
X6358277Y-15201008D02*
X6367801Y-15220056D01*
X6367801Y-15220056D02*
X6367801Y-15324818D01*
X6367801Y-15220056D02*
X6377324Y-15201008D01*
X6377324Y-15201008D02*
X6396372Y-15191484D01*
X6396372Y-15191484D02*
X6424943Y-15191484D01*
X6424943Y-15191484D02*
X6443991Y-15201008D01*
X6443991Y-15201008D02*
X6453515Y-15220056D01*
X6453515Y-15220056D02*
X6453515Y-15324818D01*
X6843991Y-15115294D02*
X6672563Y-15372437D01*
X7101134Y-15124818D02*
X7120182Y-15124818D01*
X7120182Y-15124818D02*
X7139229Y-15134341D01*
X7139229Y-15134341D02*
X7148753Y-15143865D01*
X7148753Y-15143865D02*
X7158277Y-15162913D01*
X7158277Y-15162913D02*
X7167801Y-15201008D01*
X7167801Y-15201008D02*
X7167801Y-15248627D01*
X7167801Y-15248627D02*
X7158277Y-15286722D01*
X7158277Y-15286722D02*
X7148753Y-15305770D01*
X7148753Y-15305770D02*
X7139229Y-15315294D01*
X7139229Y-15315294D02*
X7120182Y-15324818D01*
X7120182Y-15324818D02*
X7101134Y-15324818D01*
X7101134Y-15324818D02*
X7082086Y-15315294D01*
X7082086Y-15315294D02*
X7072563Y-15305770D01*
X7072563Y-15305770D02*
X7063039Y-15286722D01*
X7063039Y-15286722D02*
X7053515Y-15248627D01*
X7053515Y-15248627D02*
X7053515Y-15201008D01*
X7053515Y-15201008D02*
X7063039Y-15162913D01*
X7063039Y-15162913D02*
X7072563Y-15143865D01*
X7072563Y-15143865D02*
X7082086Y-15134341D01*
X7082086Y-15134341D02*
X7101134Y-15124818D01*
X7253515Y-15305770D02*
X7263039Y-15315294D01*
X7263039Y-15315294D02*
X7253515Y-15324818D01*
X7253515Y-15324818D02*
X7243991Y-15315294D01*
X7243991Y-15315294D02*
X7253515Y-15305770D01*
X7253515Y-15305770D02*
X7253515Y-15324818D01*
X7386848Y-15124818D02*
X7405896Y-15124818D01*
X7405896Y-15124818D02*
X7424944Y-15134341D01*
X7424944Y-15134341D02*
X7434467Y-15143865D01*
X7434467Y-15143865D02*
X7443991Y-15162913D01*
X7443991Y-15162913D02*
X7453515Y-15201008D01*
X7453515Y-15201008D02*
X7453515Y-15248627D01*
X7453515Y-15248627D02*
X7443991Y-15286722D01*
X7443991Y-15286722D02*
X7434467Y-15305770D01*
X7434467Y-15305770D02*
X7424944Y-15315294D01*
X7424944Y-15315294D02*
X7405896Y-15324818D01*
X7405896Y-15324818D02*
X7386848Y-15324818D01*
X7386848Y-15324818D02*
X7367801Y-15315294D01*
X7367801Y-15315294D02*
X7358277Y-15305770D01*
X7358277Y-15305770D02*
X7348753Y-15286722D01*
X7348753Y-15286722D02*
X7339229Y-15248627D01*
X7339229Y-15248627D02*
X7339229Y-15201008D01*
X7339229Y-15201008D02*
X7348753Y-15162913D01*
X7348753Y-15162913D02*
X7358277Y-15143865D01*
X7358277Y-15143865D02*
X7367801Y-15134341D01*
X7367801Y-15134341D02*
X7386848Y-15124818D01*
X7529706Y-15143865D02*
X7539229Y-15134341D01*
X7539229Y-15134341D02*
X7558277Y-15124818D01*
X7558277Y-15124818D02*
X7605896Y-15124818D01*
X7605896Y-15124818D02*
X7624944Y-15134341D01*
X7624944Y-15134341D02*
X7634467Y-15143865D01*
X7634467Y-15143865D02*
X7643991Y-15162913D01*
X7643991Y-15162913D02*
X7643991Y-15181960D01*
X7643991Y-15181960D02*
X7634467Y-15210532D01*
X7634467Y-15210532D02*
X7520182Y-15324818D01*
X7520182Y-15324818D02*
X7643991Y-15324818D01*
X7710658Y-15124818D02*
X7834467Y-15124818D01*
X7834467Y-15124818D02*
X7767801Y-15201008D01*
X7767801Y-15201008D02*
X7796372Y-15201008D01*
X7796372Y-15201008D02*
X7815420Y-15210532D01*
X7815420Y-15210532D02*
X7824944Y-15220056D01*
X7824944Y-15220056D02*
X7834467Y-15239103D01*
X7834467Y-15239103D02*
X7834467Y-15286722D01*
X7834467Y-15286722D02*
X7824944Y-15305770D01*
X7824944Y-15305770D02*
X7815420Y-15315294D01*
X7815420Y-15315294D02*
X7796372Y-15324818D01*
X7796372Y-15324818D02*
X7739229Y-15324818D01*
X7739229Y-15324818D02*
X7720182Y-15315294D01*
X7720182Y-15315294D02*
X7710658Y-15305770D01*
X8005896Y-15124818D02*
X7967801Y-15124818D01*
X7967801Y-15124818D02*
X7948753Y-15134341D01*
X7948753Y-15134341D02*
X7939229Y-15143865D01*
X7939229Y-15143865D02*
X7920182Y-15172437D01*
X7920182Y-15172437D02*
X7910658Y-15210532D01*
X7910658Y-15210532D02*
X7910658Y-15286722D01*
X7910658Y-15286722D02*
X7920182Y-15305770D01*
X7920182Y-15305770D02*
X7929706Y-15315294D01*
X7929706Y-15315294D02*
X7948753Y-15324818D01*
X7948753Y-15324818D02*
X7986848Y-15324818D01*
X7986848Y-15324818D02*
X8005896Y-15315294D01*
X8005896Y-15315294D02*
X8015420Y-15305770D01*
X8015420Y-15305770D02*
X8024944Y-15286722D01*
X8024944Y-15286722D02*
X8024944Y-15239103D01*
X8024944Y-15239103D02*
X8015420Y-15220056D01*
X8015420Y-15220056D02*
X8005896Y-15210532D01*
X8005896Y-15210532D02*
X7986848Y-15201008D01*
X7986848Y-15201008D02*
X7948753Y-15201008D01*
X7948753Y-15201008D02*
X7929706Y-15210532D01*
X7929706Y-15210532D02*
X7920182Y-15220056D01*
X7920182Y-15220056D02*
X7910658Y-15239103D01*
X8101134Y-15124818D02*
X8101134Y-15162913D01*
X8177325Y-15124818D02*
X8177325Y-15162913D01*
X8472563Y-15401008D02*
X8463039Y-15391484D01*
X8463039Y-15391484D02*
X8443991Y-15362913D01*
X8443991Y-15362913D02*
X8434468Y-15343865D01*
X8434468Y-15343865D02*
X8424944Y-15315294D01*
X8424944Y-15315294D02*
X8415420Y-15267675D01*
X8415420Y-15267675D02*
X8415420Y-15229579D01*
X8415420Y-15229579D02*
X8424944Y-15181960D01*
X8424944Y-15181960D02*
X8434468Y-15153389D01*
X8434468Y-15153389D02*
X8443991Y-15134341D01*
X8443991Y-15134341D02*
X8463039Y-15105770D01*
X8463039Y-15105770D02*
X8472563Y-15096246D01*
X8586849Y-15124818D02*
X8605896Y-15124818D01*
X8605896Y-15124818D02*
X8624944Y-15134341D01*
X8624944Y-15134341D02*
X8634468Y-15143865D01*
X8634468Y-15143865D02*
X8643991Y-15162913D01*
X8643991Y-15162913D02*
X8653515Y-15201008D01*
X8653515Y-15201008D02*
X8653515Y-15248627D01*
X8653515Y-15248627D02*
X8643991Y-15286722D01*
X8643991Y-15286722D02*
X8634468Y-15305770D01*
X8634468Y-15305770D02*
X8624944Y-15315294D01*
X8624944Y-15315294D02*
X8605896Y-15324818D01*
X8605896Y-15324818D02*
X8586849Y-15324818D01*
X8586849Y-15324818D02*
X8567801Y-15315294D01*
X8567801Y-15315294D02*
X8558277Y-15305770D01*
X8558277Y-15305770D02*
X8548753Y-15286722D01*
X8548753Y-15286722D02*
X8539230Y-15248627D01*
X8539230Y-15248627D02*
X8539230Y-15201008D01*
X8539230Y-15201008D02*
X8548753Y-15162913D01*
X8548753Y-15162913D02*
X8558277Y-15143865D01*
X8558277Y-15143865D02*
X8567801Y-15134341D01*
X8567801Y-15134341D02*
X8586849Y-15124818D01*
X8891611Y-15324818D02*
X8891611Y-15124818D01*
X8977325Y-15324818D02*
X8977325Y-15220056D01*
X8977325Y-15220056D02*
X8967801Y-15201008D01*
X8967801Y-15201008D02*
X8948753Y-15191484D01*
X8948753Y-15191484D02*
X8920182Y-15191484D01*
X8920182Y-15191484D02*
X8901134Y-15201008D01*
X8901134Y-15201008D02*
X8891611Y-15210532D01*
X9101134Y-15324818D02*
X9082087Y-15315294D01*
X9082087Y-15315294D02*
X9072563Y-15305770D01*
X9072563Y-15305770D02*
X9063039Y-15286722D01*
X9063039Y-15286722D02*
X9063039Y-15229579D01*
X9063039Y-15229579D02*
X9072563Y-15210532D01*
X9072563Y-15210532D02*
X9082087Y-15201008D01*
X9082087Y-15201008D02*
X9101134Y-15191484D01*
X9101134Y-15191484D02*
X9129706Y-15191484D01*
X9129706Y-15191484D02*
X9148753Y-15201008D01*
X9148753Y-15201008D02*
X9158277Y-15210532D01*
X9158277Y-15210532D02*
X9167801Y-15229579D01*
X9167801Y-15229579D02*
X9167801Y-15286722D01*
X9167801Y-15286722D02*
X9158277Y-15305770D01*
X9158277Y-15305770D02*
X9148753Y-15315294D01*
X9148753Y-15315294D02*
X9129706Y-15324818D01*
X9129706Y-15324818D02*
X9101134Y-15324818D01*
X9282087Y-15324818D02*
X9263039Y-15315294D01*
X9263039Y-15315294D02*
X9253515Y-15296246D01*
X9253515Y-15296246D02*
X9253515Y-15124818D01*
X9434468Y-15315294D02*
X9415420Y-15324818D01*
X9415420Y-15324818D02*
X9377325Y-15324818D01*
X9377325Y-15324818D02*
X9358277Y-15315294D01*
X9358277Y-15315294D02*
X9348753Y-15296246D01*
X9348753Y-15296246D02*
X9348753Y-15220056D01*
X9348753Y-15220056D02*
X9358277Y-15201008D01*
X9358277Y-15201008D02*
X9377325Y-15191484D01*
X9377325Y-15191484D02*
X9415420Y-15191484D01*
X9415420Y-15191484D02*
X9434468Y-15201008D01*
X9434468Y-15201008D02*
X9443992Y-15220056D01*
X9443992Y-15220056D02*
X9443992Y-15239103D01*
X9443992Y-15239103D02*
X9348753Y-15258151D01*
X9520182Y-15315294D02*
X9539230Y-15324818D01*
X9539230Y-15324818D02*
X9577325Y-15324818D01*
X9577325Y-15324818D02*
X9596373Y-15315294D01*
X9596373Y-15315294D02*
X9605896Y-15296246D01*
X9605896Y-15296246D02*
X9605896Y-15286722D01*
X9605896Y-15286722D02*
X9596373Y-15267675D01*
X9596373Y-15267675D02*
X9577325Y-15258151D01*
X9577325Y-15258151D02*
X9548753Y-15258151D01*
X9548753Y-15258151D02*
X9529706Y-15248627D01*
X9529706Y-15248627D02*
X9520182Y-15229579D01*
X9520182Y-15229579D02*
X9520182Y-15220056D01*
X9520182Y-15220056D02*
X9529706Y-15201008D01*
X9529706Y-15201008D02*
X9548753Y-15191484D01*
X9548753Y-15191484D02*
X9577325Y-15191484D01*
X9577325Y-15191484D02*
X9596373Y-15201008D01*
X9843992Y-15248627D02*
X9996373Y-15248627D01*
X9920182Y-15324818D02*
X9920182Y-15172437D01*
X10329706Y-15191484D02*
X10329706Y-15324818D01*
X10282087Y-15115294D02*
X10234468Y-15258151D01*
X10234468Y-15258151D02*
X10358277Y-15258151D01*
X10577325Y-15315294D02*
X10596373Y-15324818D01*
X10596373Y-15324818D02*
X10634468Y-15324818D01*
X10634468Y-15324818D02*
X10653516Y-15315294D01*
X10653516Y-15315294D02*
X10663039Y-15296246D01*
X10663039Y-15296246D02*
X10663039Y-15286722D01*
X10663039Y-15286722D02*
X10653516Y-15267675D01*
X10653516Y-15267675D02*
X10634468Y-15258151D01*
X10634468Y-15258151D02*
X10605896Y-15258151D01*
X10605896Y-15258151D02*
X10586849Y-15248627D01*
X10586849Y-15248627D02*
X10577325Y-15229579D01*
X10577325Y-15229579D02*
X10577325Y-15220056D01*
X10577325Y-15220056D02*
X10586849Y-15201008D01*
X10586849Y-15201008D02*
X10605896Y-15191484D01*
X10605896Y-15191484D02*
X10634468Y-15191484D01*
X10634468Y-15191484D02*
X10653516Y-15201008D01*
X10777325Y-15324818D02*
X10758277Y-15315294D01*
X10758277Y-15315294D02*
X10748754Y-15296246D01*
X10748754Y-15296246D02*
X10748754Y-15124818D01*
X10882087Y-15324818D02*
X10863039Y-15315294D01*
X10863039Y-15315294D02*
X10853516Y-15305770D01*
X10853516Y-15305770D02*
X10843992Y-15286722D01*
X10843992Y-15286722D02*
X10843992Y-15229579D01*
X10843992Y-15229579D02*
X10853516Y-15210532D01*
X10853516Y-15210532D02*
X10863039Y-15201008D01*
X10863039Y-15201008D02*
X10882087Y-15191484D01*
X10882087Y-15191484D02*
X10910658Y-15191484D01*
X10910658Y-15191484D02*
X10929706Y-15201008D01*
X10929706Y-15201008D02*
X10939230Y-15210532D01*
X10939230Y-15210532D02*
X10948754Y-15229579D01*
X10948754Y-15229579D02*
X10948754Y-15286722D01*
X10948754Y-15286722D02*
X10939230Y-15305770D01*
X10939230Y-15305770D02*
X10929706Y-15315294D01*
X10929706Y-15315294D02*
X10910658Y-15324818D01*
X10910658Y-15324818D02*
X10882087Y-15324818D01*
X11005897Y-15191484D02*
X11082087Y-15191484D01*
X11034468Y-15124818D02*
X11034468Y-15296246D01*
X11034468Y-15296246D02*
X11043992Y-15315294D01*
X11043992Y-15315294D02*
X11063039Y-15324818D01*
X11063039Y-15324818D02*
X11082087Y-15324818D01*
X11139230Y-15315294D02*
X11158277Y-15324818D01*
X11158277Y-15324818D02*
X11196373Y-15324818D01*
X11196373Y-15324818D02*
X11215420Y-15315294D01*
X11215420Y-15315294D02*
X11224944Y-15296246D01*
X11224944Y-15296246D02*
X11224944Y-15286722D01*
X11224944Y-15286722D02*
X11215420Y-15267675D01*
X11215420Y-15267675D02*
X11196373Y-15258151D01*
X11196373Y-15258151D02*
X11167801Y-15258151D01*
X11167801Y-15258151D02*
X11148754Y-15248627D01*
X11148754Y-15248627D02*
X11139230Y-15229579D01*
X11139230Y-15229579D02*
X11139230Y-15220056D01*
X11139230Y-15220056D02*
X11148754Y-15201008D01*
X11148754Y-15201008D02*
X11167801Y-15191484D01*
X11167801Y-15191484D02*
X11196373Y-15191484D01*
X11196373Y-15191484D02*
X11215420Y-15201008D01*
X11291611Y-15401008D02*
X11301135Y-15391484D01*
X11301135Y-15391484D02*
X11320182Y-15362913D01*
X11320182Y-15362913D02*
X11329706Y-15343865D01*
X11329706Y-15343865D02*
X11339230Y-15315294D01*
X11339230Y-15315294D02*
X11348754Y-15267675D01*
X11348754Y-15267675D02*
X11348754Y-15229579D01*
X11348754Y-15229579D02*
X11339230Y-15181960D01*
X11339230Y-15181960D02*
X11329706Y-15153389D01*
X11329706Y-15153389D02*
X11320182Y-15134341D01*
X11320182Y-15134341D02*
X11301135Y-15105770D01*
X11301135Y-15105770D02*
X11291611Y-15096246D01*
D12*
X4857500Y-15457334D02*
X4857500Y-15537334D01*
X4817500Y-15497334D02*
X4897500Y-15497334D01*
D11*
X5196372Y-15388818D02*
X5215420Y-15388818D01*
X5215420Y-15388818D02*
X5234467Y-15398341D01*
X5234467Y-15398341D02*
X5243991Y-15407865D01*
X5243991Y-15407865D02*
X5253515Y-15426913D01*
X5253515Y-15426913D02*
X5263039Y-15465008D01*
X5263039Y-15465008D02*
X5263039Y-15512627D01*
X5263039Y-15512627D02*
X5253515Y-15550722D01*
X5253515Y-15550722D02*
X5243991Y-15569770D01*
X5243991Y-15569770D02*
X5234467Y-15579294D01*
X5234467Y-15579294D02*
X5215420Y-15588818D01*
X5215420Y-15588818D02*
X5196372Y-15588818D01*
X5196372Y-15588818D02*
X5177324Y-15579294D01*
X5177324Y-15579294D02*
X5167801Y-15569770D01*
X5167801Y-15569770D02*
X5158277Y-15550722D01*
X5158277Y-15550722D02*
X5148753Y-15512627D01*
X5148753Y-15512627D02*
X5148753Y-15465008D01*
X5148753Y-15465008D02*
X5158277Y-15426913D01*
X5158277Y-15426913D02*
X5167801Y-15407865D01*
X5167801Y-15407865D02*
X5177324Y-15398341D01*
X5177324Y-15398341D02*
X5196372Y-15388818D01*
X5348753Y-15569770D02*
X5358277Y-15579294D01*
X5358277Y-15579294D02*
X5348753Y-15588818D01*
X5348753Y-15588818D02*
X5339229Y-15579294D01*
X5339229Y-15579294D02*
X5348753Y-15569770D01*
X5348753Y-15569770D02*
X5348753Y-15588818D01*
X5472563Y-15474532D02*
X5453515Y-15465008D01*
X5453515Y-15465008D02*
X5443991Y-15455484D01*
X5443991Y-15455484D02*
X5434467Y-15436437D01*
X5434467Y-15436437D02*
X5434467Y-15426913D01*
X5434467Y-15426913D02*
X5443991Y-15407865D01*
X5443991Y-15407865D02*
X5453515Y-15398341D01*
X5453515Y-15398341D02*
X5472563Y-15388818D01*
X5472563Y-15388818D02*
X5510658Y-15388818D01*
X5510658Y-15388818D02*
X5529705Y-15398341D01*
X5529705Y-15398341D02*
X5539229Y-15407865D01*
X5539229Y-15407865D02*
X5548753Y-15426913D01*
X5548753Y-15426913D02*
X5548753Y-15436437D01*
X5548753Y-15436437D02*
X5539229Y-15455484D01*
X5539229Y-15455484D02*
X5529705Y-15465008D01*
X5529705Y-15465008D02*
X5510658Y-15474532D01*
X5510658Y-15474532D02*
X5472563Y-15474532D01*
X5472563Y-15474532D02*
X5453515Y-15484056D01*
X5453515Y-15484056D02*
X5443991Y-15493579D01*
X5443991Y-15493579D02*
X5434467Y-15512627D01*
X5434467Y-15512627D02*
X5434467Y-15550722D01*
X5434467Y-15550722D02*
X5443991Y-15569770D01*
X5443991Y-15569770D02*
X5453515Y-15579294D01*
X5453515Y-15579294D02*
X5472563Y-15588818D01*
X5472563Y-15588818D02*
X5510658Y-15588818D01*
X5510658Y-15588818D02*
X5529705Y-15579294D01*
X5529705Y-15579294D02*
X5539229Y-15569770D01*
X5539229Y-15569770D02*
X5548753Y-15550722D01*
X5548753Y-15550722D02*
X5548753Y-15512627D01*
X5548753Y-15512627D02*
X5539229Y-15493579D01*
X5539229Y-15493579D02*
X5529705Y-15484056D01*
X5529705Y-15484056D02*
X5510658Y-15474532D01*
X5672562Y-15388818D02*
X5691610Y-15388818D01*
X5691610Y-15388818D02*
X5710658Y-15398341D01*
X5710658Y-15398341D02*
X5720182Y-15407865D01*
X5720182Y-15407865D02*
X5729705Y-15426913D01*
X5729705Y-15426913D02*
X5739229Y-15465008D01*
X5739229Y-15465008D02*
X5739229Y-15512627D01*
X5739229Y-15512627D02*
X5729705Y-15550722D01*
X5729705Y-15550722D02*
X5720182Y-15569770D01*
X5720182Y-15569770D02*
X5710658Y-15579294D01*
X5710658Y-15579294D02*
X5691610Y-15588818D01*
X5691610Y-15588818D02*
X5672562Y-15588818D01*
X5672562Y-15588818D02*
X5653515Y-15579294D01*
X5653515Y-15579294D02*
X5643991Y-15569770D01*
X5643991Y-15569770D02*
X5634467Y-15550722D01*
X5634467Y-15550722D02*
X5624943Y-15512627D01*
X5624943Y-15512627D02*
X5624943Y-15465008D01*
X5624943Y-15465008D02*
X5634467Y-15426913D01*
X5634467Y-15426913D02*
X5643991Y-15407865D01*
X5643991Y-15407865D02*
X5653515Y-15398341D01*
X5653515Y-15398341D02*
X5672562Y-15388818D01*
X5863039Y-15388818D02*
X5882086Y-15388818D01*
X5882086Y-15388818D02*
X5901134Y-15398341D01*
X5901134Y-15398341D02*
X5910658Y-15407865D01*
X5910658Y-15407865D02*
X5920182Y-15426913D01*
X5920182Y-15426913D02*
X5929705Y-15465008D01*
X5929705Y-15465008D02*
X5929705Y-15512627D01*
X5929705Y-15512627D02*
X5920182Y-15550722D01*
X5920182Y-15550722D02*
X5910658Y-15569770D01*
X5910658Y-15569770D02*
X5901134Y-15579294D01*
X5901134Y-15579294D02*
X5882086Y-15588818D01*
X5882086Y-15588818D02*
X5863039Y-15588818D01*
X5863039Y-15588818D02*
X5843991Y-15579294D01*
X5843991Y-15579294D02*
X5834467Y-15569770D01*
X5834467Y-15569770D02*
X5824943Y-15550722D01*
X5824943Y-15550722D02*
X5815420Y-15512627D01*
X5815420Y-15512627D02*
X5815420Y-15465008D01*
X5815420Y-15465008D02*
X5824943Y-15426913D01*
X5824943Y-15426913D02*
X5834467Y-15407865D01*
X5834467Y-15407865D02*
X5843991Y-15398341D01*
X5843991Y-15398341D02*
X5863039Y-15388818D01*
X6015420Y-15588818D02*
X6015420Y-15455484D01*
X6015420Y-15474532D02*
X6024943Y-15465008D01*
X6024943Y-15465008D02*
X6043991Y-15455484D01*
X6043991Y-15455484D02*
X6072563Y-15455484D01*
X6072563Y-15455484D02*
X6091610Y-15465008D01*
X6091610Y-15465008D02*
X6101134Y-15484056D01*
X6101134Y-15484056D02*
X6101134Y-15588818D01*
X6101134Y-15484056D02*
X6110658Y-15465008D01*
X6110658Y-15465008D02*
X6129705Y-15455484D01*
X6129705Y-15455484D02*
X6158277Y-15455484D01*
X6158277Y-15455484D02*
X6177324Y-15465008D01*
X6177324Y-15465008D02*
X6186848Y-15484056D01*
X6186848Y-15484056D02*
X6186848Y-15588818D01*
X6282086Y-15588818D02*
X6282086Y-15455484D01*
X6282086Y-15474532D02*
X6291610Y-15465008D01*
X6291610Y-15465008D02*
X6310658Y-15455484D01*
X6310658Y-15455484D02*
X6339229Y-15455484D01*
X6339229Y-15455484D02*
X6358277Y-15465008D01*
X6358277Y-15465008D02*
X6367801Y-15484056D01*
X6367801Y-15484056D02*
X6367801Y-15588818D01*
X6367801Y-15484056D02*
X6377324Y-15465008D01*
X6377324Y-15465008D02*
X6396372Y-15455484D01*
X6396372Y-15455484D02*
X6424943Y-15455484D01*
X6424943Y-15455484D02*
X6443991Y-15465008D01*
X6443991Y-15465008D02*
X6453515Y-15484056D01*
X6453515Y-15484056D02*
X6453515Y-15588818D01*
X6843991Y-15379294D02*
X6672563Y-15636437D01*
X7101134Y-15388818D02*
X7120182Y-15388818D01*
X7120182Y-15388818D02*
X7139229Y-15398341D01*
X7139229Y-15398341D02*
X7148753Y-15407865D01*
X7148753Y-15407865D02*
X7158277Y-15426913D01*
X7158277Y-15426913D02*
X7167801Y-15465008D01*
X7167801Y-15465008D02*
X7167801Y-15512627D01*
X7167801Y-15512627D02*
X7158277Y-15550722D01*
X7158277Y-15550722D02*
X7148753Y-15569770D01*
X7148753Y-15569770D02*
X7139229Y-15579294D01*
X7139229Y-15579294D02*
X7120182Y-15588818D01*
X7120182Y-15588818D02*
X7101134Y-15588818D01*
X7101134Y-15588818D02*
X7082086Y-15579294D01*
X7082086Y-15579294D02*
X7072563Y-15569770D01*
X7072563Y-15569770D02*
X7063039Y-15550722D01*
X7063039Y-15550722D02*
X7053515Y-15512627D01*
X7053515Y-15512627D02*
X7053515Y-15465008D01*
X7053515Y-15465008D02*
X7063039Y-15426913D01*
X7063039Y-15426913D02*
X7072563Y-15407865D01*
X7072563Y-15407865D02*
X7082086Y-15398341D01*
X7082086Y-15398341D02*
X7101134Y-15388818D01*
X7253515Y-15569770D02*
X7263039Y-15579294D01*
X7263039Y-15579294D02*
X7253515Y-15588818D01*
X7253515Y-15588818D02*
X7243991Y-15579294D01*
X7243991Y-15579294D02*
X7253515Y-15569770D01*
X7253515Y-15569770D02*
X7253515Y-15588818D01*
X7386848Y-15388818D02*
X7405896Y-15388818D01*
X7405896Y-15388818D02*
X7424944Y-15398341D01*
X7424944Y-15398341D02*
X7434467Y-15407865D01*
X7434467Y-15407865D02*
X7443991Y-15426913D01*
X7443991Y-15426913D02*
X7453515Y-15465008D01*
X7453515Y-15465008D02*
X7453515Y-15512627D01*
X7453515Y-15512627D02*
X7443991Y-15550722D01*
X7443991Y-15550722D02*
X7434467Y-15569770D01*
X7434467Y-15569770D02*
X7424944Y-15579294D01*
X7424944Y-15579294D02*
X7405896Y-15588818D01*
X7405896Y-15588818D02*
X7386848Y-15588818D01*
X7386848Y-15588818D02*
X7367801Y-15579294D01*
X7367801Y-15579294D02*
X7358277Y-15569770D01*
X7358277Y-15569770D02*
X7348753Y-15550722D01*
X7348753Y-15550722D02*
X7339229Y-15512627D01*
X7339229Y-15512627D02*
X7339229Y-15465008D01*
X7339229Y-15465008D02*
X7348753Y-15426913D01*
X7348753Y-15426913D02*
X7358277Y-15407865D01*
X7358277Y-15407865D02*
X7367801Y-15398341D01*
X7367801Y-15398341D02*
X7386848Y-15388818D01*
X7520182Y-15388818D02*
X7643991Y-15388818D01*
X7643991Y-15388818D02*
X7577325Y-15465008D01*
X7577325Y-15465008D02*
X7605896Y-15465008D01*
X7605896Y-15465008D02*
X7624944Y-15474532D01*
X7624944Y-15474532D02*
X7634467Y-15484056D01*
X7634467Y-15484056D02*
X7643991Y-15503103D01*
X7643991Y-15503103D02*
X7643991Y-15550722D01*
X7643991Y-15550722D02*
X7634467Y-15569770D01*
X7634467Y-15569770D02*
X7624944Y-15579294D01*
X7624944Y-15579294D02*
X7605896Y-15588818D01*
X7605896Y-15588818D02*
X7548753Y-15588818D01*
X7548753Y-15588818D02*
X7529706Y-15579294D01*
X7529706Y-15579294D02*
X7520182Y-15569770D01*
X7834467Y-15588818D02*
X7720182Y-15588818D01*
X7777325Y-15588818D02*
X7777325Y-15388818D01*
X7777325Y-15388818D02*
X7758277Y-15417389D01*
X7758277Y-15417389D02*
X7739229Y-15436437D01*
X7739229Y-15436437D02*
X7720182Y-15445960D01*
X8015420Y-15388818D02*
X7920182Y-15388818D01*
X7920182Y-15388818D02*
X7910658Y-15484056D01*
X7910658Y-15484056D02*
X7920182Y-15474532D01*
X7920182Y-15474532D02*
X7939229Y-15465008D01*
X7939229Y-15465008D02*
X7986848Y-15465008D01*
X7986848Y-15465008D02*
X8005896Y-15474532D01*
X8005896Y-15474532D02*
X8015420Y-15484056D01*
X8015420Y-15484056D02*
X8024944Y-15503103D01*
X8024944Y-15503103D02*
X8024944Y-15550722D01*
X8024944Y-15550722D02*
X8015420Y-15569770D01*
X8015420Y-15569770D02*
X8005896Y-15579294D01*
X8005896Y-15579294D02*
X7986848Y-15588818D01*
X7986848Y-15588818D02*
X7939229Y-15588818D01*
X7939229Y-15588818D02*
X7920182Y-15579294D01*
X7920182Y-15579294D02*
X7910658Y-15569770D01*
X8101134Y-15388818D02*
X8101134Y-15426913D01*
X8177325Y-15388818D02*
X8177325Y-15426913D01*
X8472563Y-15665008D02*
X8463039Y-15655484D01*
X8463039Y-15655484D02*
X8443991Y-15626913D01*
X8443991Y-15626913D02*
X8434468Y-15607865D01*
X8434468Y-15607865D02*
X8424944Y-15579294D01*
X8424944Y-15579294D02*
X8415420Y-15531675D01*
X8415420Y-15531675D02*
X8415420Y-15493579D01*
X8415420Y-15493579D02*
X8424944Y-15445960D01*
X8424944Y-15445960D02*
X8434468Y-15417389D01*
X8434468Y-15417389D02*
X8443991Y-15398341D01*
X8443991Y-15398341D02*
X8463039Y-15369770D01*
X8463039Y-15369770D02*
X8472563Y-15360246D01*
X8529706Y-15388818D02*
X8653515Y-15388818D01*
X8653515Y-15388818D02*
X8586849Y-15465008D01*
X8586849Y-15465008D02*
X8615420Y-15465008D01*
X8615420Y-15465008D02*
X8634468Y-15474532D01*
X8634468Y-15474532D02*
X8643991Y-15484056D01*
X8643991Y-15484056D02*
X8653515Y-15503103D01*
X8653515Y-15503103D02*
X8653515Y-15550722D01*
X8653515Y-15550722D02*
X8643991Y-15569770D01*
X8643991Y-15569770D02*
X8634468Y-15579294D01*
X8634468Y-15579294D02*
X8615420Y-15588818D01*
X8615420Y-15588818D02*
X8558277Y-15588818D01*
X8558277Y-15588818D02*
X8539230Y-15579294D01*
X8539230Y-15579294D02*
X8529706Y-15569770D01*
X8729706Y-15407865D02*
X8739230Y-15398341D01*
X8739230Y-15398341D02*
X8758277Y-15388818D01*
X8758277Y-15388818D02*
X8805896Y-15388818D01*
X8805896Y-15388818D02*
X8824944Y-15398341D01*
X8824944Y-15398341D02*
X8834468Y-15407865D01*
X8834468Y-15407865D02*
X8843991Y-15426913D01*
X8843991Y-15426913D02*
X8843991Y-15445960D01*
X8843991Y-15445960D02*
X8834468Y-15474532D01*
X8834468Y-15474532D02*
X8720182Y-15588818D01*
X8720182Y-15588818D02*
X8843991Y-15588818D01*
X9082087Y-15588818D02*
X9082087Y-15388818D01*
X9167801Y-15588818D02*
X9167801Y-15484056D01*
X9167801Y-15484056D02*
X9158277Y-15465008D01*
X9158277Y-15465008D02*
X9139230Y-15455484D01*
X9139230Y-15455484D02*
X9110658Y-15455484D01*
X9110658Y-15455484D02*
X9091611Y-15465008D01*
X9091611Y-15465008D02*
X9082087Y-15474532D01*
X9291611Y-15588818D02*
X9272563Y-15579294D01*
X9272563Y-15579294D02*
X9263039Y-15569770D01*
X9263039Y-15569770D02*
X9253515Y-15550722D01*
X9253515Y-15550722D02*
X9253515Y-15493579D01*
X9253515Y-15493579D02*
X9263039Y-15474532D01*
X9263039Y-15474532D02*
X9272563Y-15465008D01*
X9272563Y-15465008D02*
X9291611Y-15455484D01*
X9291611Y-15455484D02*
X9320182Y-15455484D01*
X9320182Y-15455484D02*
X9339230Y-15465008D01*
X9339230Y-15465008D02*
X9348753Y-15474532D01*
X9348753Y-15474532D02*
X9358277Y-15493579D01*
X9358277Y-15493579D02*
X9358277Y-15550722D01*
X9358277Y-15550722D02*
X9348753Y-15569770D01*
X9348753Y-15569770D02*
X9339230Y-15579294D01*
X9339230Y-15579294D02*
X9320182Y-15588818D01*
X9320182Y-15588818D02*
X9291611Y-15588818D01*
X9472563Y-15588818D02*
X9453515Y-15579294D01*
X9453515Y-15579294D02*
X9443992Y-15560246D01*
X9443992Y-15560246D02*
X9443992Y-15388818D01*
X9624944Y-15579294D02*
X9605896Y-15588818D01*
X9605896Y-15588818D02*
X9567801Y-15588818D01*
X9567801Y-15588818D02*
X9548753Y-15579294D01*
X9548753Y-15579294D02*
X9539230Y-15560246D01*
X9539230Y-15560246D02*
X9539230Y-15484056D01*
X9539230Y-15484056D02*
X9548753Y-15465008D01*
X9548753Y-15465008D02*
X9567801Y-15455484D01*
X9567801Y-15455484D02*
X9605896Y-15455484D01*
X9605896Y-15455484D02*
X9624944Y-15465008D01*
X9624944Y-15465008D02*
X9634468Y-15484056D01*
X9634468Y-15484056D02*
X9634468Y-15503103D01*
X9634468Y-15503103D02*
X9539230Y-15522151D01*
X9710658Y-15579294D02*
X9729706Y-15588818D01*
X9729706Y-15588818D02*
X9767801Y-15588818D01*
X9767801Y-15588818D02*
X9786849Y-15579294D01*
X9786849Y-15579294D02*
X9796373Y-15560246D01*
X9796373Y-15560246D02*
X9796373Y-15550722D01*
X9796373Y-15550722D02*
X9786849Y-15531675D01*
X9786849Y-15531675D02*
X9767801Y-15522151D01*
X9767801Y-15522151D02*
X9739230Y-15522151D01*
X9739230Y-15522151D02*
X9720182Y-15512627D01*
X9720182Y-15512627D02*
X9710658Y-15493579D01*
X9710658Y-15493579D02*
X9710658Y-15484056D01*
X9710658Y-15484056D02*
X9720182Y-15465008D01*
X9720182Y-15465008D02*
X9739230Y-15455484D01*
X9739230Y-15455484D02*
X9767801Y-15455484D01*
X9767801Y-15455484D02*
X9786849Y-15465008D01*
X9863039Y-15665008D02*
X9872563Y-15655484D01*
X9872563Y-15655484D02*
X9891611Y-15626913D01*
X9891611Y-15626913D02*
X9901134Y-15607865D01*
X9901134Y-15607865D02*
X9910658Y-15579294D01*
X9910658Y-15579294D02*
X9920182Y-15531675D01*
X9920182Y-15531675D02*
X9920182Y-15493579D01*
X9920182Y-15493579D02*
X9910658Y-15445960D01*
X9910658Y-15445960D02*
X9901134Y-15417389D01*
X9901134Y-15417389D02*
X9891611Y-15398341D01*
X9891611Y-15398341D02*
X9872563Y-15369770D01*
X9872563Y-15369770D02*
X9863039Y-15360246D01*
D12*
X4882856Y-15796689D02*
X4882856Y-15725978D01*
X4812144Y-15725978D01*
X4812144Y-15796689D01*
X4882856Y-15796689D01*
D11*
X5263039Y-15852818D02*
X5148753Y-15852818D01*
X5205896Y-15852818D02*
X5205896Y-15652818D01*
X5205896Y-15652818D02*
X5186848Y-15681389D01*
X5186848Y-15681389D02*
X5167801Y-15700437D01*
X5167801Y-15700437D02*
X5148753Y-15709960D01*
X5348753Y-15833770D02*
X5358277Y-15843294D01*
X5358277Y-15843294D02*
X5348753Y-15852818D01*
X5348753Y-15852818D02*
X5339229Y-15843294D01*
X5339229Y-15843294D02*
X5348753Y-15833770D01*
X5348753Y-15833770D02*
X5348753Y-15852818D01*
X5482086Y-15652818D02*
X5501134Y-15652818D01*
X5501134Y-15652818D02*
X5520182Y-15662341D01*
X5520182Y-15662341D02*
X5529705Y-15671865D01*
X5529705Y-15671865D02*
X5539229Y-15690913D01*
X5539229Y-15690913D02*
X5548753Y-15729008D01*
X5548753Y-15729008D02*
X5548753Y-15776627D01*
X5548753Y-15776627D02*
X5539229Y-15814722D01*
X5539229Y-15814722D02*
X5529705Y-15833770D01*
X5529705Y-15833770D02*
X5520182Y-15843294D01*
X5520182Y-15843294D02*
X5501134Y-15852818D01*
X5501134Y-15852818D02*
X5482086Y-15852818D01*
X5482086Y-15852818D02*
X5463039Y-15843294D01*
X5463039Y-15843294D02*
X5453515Y-15833770D01*
X5453515Y-15833770D02*
X5443991Y-15814722D01*
X5443991Y-15814722D02*
X5434467Y-15776627D01*
X5434467Y-15776627D02*
X5434467Y-15729008D01*
X5434467Y-15729008D02*
X5443991Y-15690913D01*
X5443991Y-15690913D02*
X5453515Y-15671865D01*
X5453515Y-15671865D02*
X5463039Y-15662341D01*
X5463039Y-15662341D02*
X5482086Y-15652818D01*
X5672562Y-15652818D02*
X5691610Y-15652818D01*
X5691610Y-15652818D02*
X5710658Y-15662341D01*
X5710658Y-15662341D02*
X5720182Y-15671865D01*
X5720182Y-15671865D02*
X5729705Y-15690913D01*
X5729705Y-15690913D02*
X5739229Y-15729008D01*
X5739229Y-15729008D02*
X5739229Y-15776627D01*
X5739229Y-15776627D02*
X5729705Y-15814722D01*
X5729705Y-15814722D02*
X5720182Y-15833770D01*
X5720182Y-15833770D02*
X5710658Y-15843294D01*
X5710658Y-15843294D02*
X5691610Y-15852818D01*
X5691610Y-15852818D02*
X5672562Y-15852818D01*
X5672562Y-15852818D02*
X5653515Y-15843294D01*
X5653515Y-15843294D02*
X5643991Y-15833770D01*
X5643991Y-15833770D02*
X5634467Y-15814722D01*
X5634467Y-15814722D02*
X5624943Y-15776627D01*
X5624943Y-15776627D02*
X5624943Y-15729008D01*
X5624943Y-15729008D02*
X5634467Y-15690913D01*
X5634467Y-15690913D02*
X5643991Y-15671865D01*
X5643991Y-15671865D02*
X5653515Y-15662341D01*
X5653515Y-15662341D02*
X5672562Y-15652818D01*
X5863039Y-15652818D02*
X5882086Y-15652818D01*
X5882086Y-15652818D02*
X5901134Y-15662341D01*
X5901134Y-15662341D02*
X5910658Y-15671865D01*
X5910658Y-15671865D02*
X5920182Y-15690913D01*
X5920182Y-15690913D02*
X5929705Y-15729008D01*
X5929705Y-15729008D02*
X5929705Y-15776627D01*
X5929705Y-15776627D02*
X5920182Y-15814722D01*
X5920182Y-15814722D02*
X5910658Y-15833770D01*
X5910658Y-15833770D02*
X5901134Y-15843294D01*
X5901134Y-15843294D02*
X5882086Y-15852818D01*
X5882086Y-15852818D02*
X5863039Y-15852818D01*
X5863039Y-15852818D02*
X5843991Y-15843294D01*
X5843991Y-15843294D02*
X5834467Y-15833770D01*
X5834467Y-15833770D02*
X5824943Y-15814722D01*
X5824943Y-15814722D02*
X5815420Y-15776627D01*
X5815420Y-15776627D02*
X5815420Y-15729008D01*
X5815420Y-15729008D02*
X5824943Y-15690913D01*
X5824943Y-15690913D02*
X5834467Y-15671865D01*
X5834467Y-15671865D02*
X5843991Y-15662341D01*
X5843991Y-15662341D02*
X5863039Y-15652818D01*
X6015420Y-15852818D02*
X6015420Y-15719484D01*
X6015420Y-15738532D02*
X6024943Y-15729008D01*
X6024943Y-15729008D02*
X6043991Y-15719484D01*
X6043991Y-15719484D02*
X6072563Y-15719484D01*
X6072563Y-15719484D02*
X6091610Y-15729008D01*
X6091610Y-15729008D02*
X6101134Y-15748056D01*
X6101134Y-15748056D02*
X6101134Y-15852818D01*
X6101134Y-15748056D02*
X6110658Y-15729008D01*
X6110658Y-15729008D02*
X6129705Y-15719484D01*
X6129705Y-15719484D02*
X6158277Y-15719484D01*
X6158277Y-15719484D02*
X6177324Y-15729008D01*
X6177324Y-15729008D02*
X6186848Y-15748056D01*
X6186848Y-15748056D02*
X6186848Y-15852818D01*
X6282086Y-15852818D02*
X6282086Y-15719484D01*
X6282086Y-15738532D02*
X6291610Y-15729008D01*
X6291610Y-15729008D02*
X6310658Y-15719484D01*
X6310658Y-15719484D02*
X6339229Y-15719484D01*
X6339229Y-15719484D02*
X6358277Y-15729008D01*
X6358277Y-15729008D02*
X6367801Y-15748056D01*
X6367801Y-15748056D02*
X6367801Y-15852818D01*
X6367801Y-15748056D02*
X6377324Y-15729008D01*
X6377324Y-15729008D02*
X6396372Y-15719484D01*
X6396372Y-15719484D02*
X6424943Y-15719484D01*
X6424943Y-15719484D02*
X6443991Y-15729008D01*
X6443991Y-15729008D02*
X6453515Y-15748056D01*
X6453515Y-15748056D02*
X6453515Y-15852818D01*
X6843991Y-15643294D02*
X6672563Y-15900437D01*
X7101134Y-15652818D02*
X7120182Y-15652818D01*
X7120182Y-15652818D02*
X7139229Y-15662341D01*
X7139229Y-15662341D02*
X7148753Y-15671865D01*
X7148753Y-15671865D02*
X7158277Y-15690913D01*
X7158277Y-15690913D02*
X7167801Y-15729008D01*
X7167801Y-15729008D02*
X7167801Y-15776627D01*
X7167801Y-15776627D02*
X7158277Y-15814722D01*
X7158277Y-15814722D02*
X7148753Y-15833770D01*
X7148753Y-15833770D02*
X7139229Y-15843294D01*
X7139229Y-15843294D02*
X7120182Y-15852818D01*
X7120182Y-15852818D02*
X7101134Y-15852818D01*
X7101134Y-15852818D02*
X7082086Y-15843294D01*
X7082086Y-15843294D02*
X7072563Y-15833770D01*
X7072563Y-15833770D02*
X7063039Y-15814722D01*
X7063039Y-15814722D02*
X7053515Y-15776627D01*
X7053515Y-15776627D02*
X7053515Y-15729008D01*
X7053515Y-15729008D02*
X7063039Y-15690913D01*
X7063039Y-15690913D02*
X7072563Y-15671865D01*
X7072563Y-15671865D02*
X7082086Y-15662341D01*
X7082086Y-15662341D02*
X7101134Y-15652818D01*
X7253515Y-15833770D02*
X7263039Y-15843294D01*
X7263039Y-15843294D02*
X7253515Y-15852818D01*
X7253515Y-15852818D02*
X7243991Y-15843294D01*
X7243991Y-15843294D02*
X7253515Y-15833770D01*
X7253515Y-15833770D02*
X7253515Y-15852818D01*
X7386848Y-15652818D02*
X7405896Y-15652818D01*
X7405896Y-15652818D02*
X7424944Y-15662341D01*
X7424944Y-15662341D02*
X7434467Y-15671865D01*
X7434467Y-15671865D02*
X7443991Y-15690913D01*
X7443991Y-15690913D02*
X7453515Y-15729008D01*
X7453515Y-15729008D02*
X7453515Y-15776627D01*
X7453515Y-15776627D02*
X7443991Y-15814722D01*
X7443991Y-15814722D02*
X7434467Y-15833770D01*
X7434467Y-15833770D02*
X7424944Y-15843294D01*
X7424944Y-15843294D02*
X7405896Y-15852818D01*
X7405896Y-15852818D02*
X7386848Y-15852818D01*
X7386848Y-15852818D02*
X7367801Y-15843294D01*
X7367801Y-15843294D02*
X7358277Y-15833770D01*
X7358277Y-15833770D02*
X7348753Y-15814722D01*
X7348753Y-15814722D02*
X7339229Y-15776627D01*
X7339229Y-15776627D02*
X7339229Y-15729008D01*
X7339229Y-15729008D02*
X7348753Y-15690913D01*
X7348753Y-15690913D02*
X7358277Y-15671865D01*
X7358277Y-15671865D02*
X7367801Y-15662341D01*
X7367801Y-15662341D02*
X7386848Y-15652818D01*
X7520182Y-15652818D02*
X7643991Y-15652818D01*
X7643991Y-15652818D02*
X7577325Y-15729008D01*
X7577325Y-15729008D02*
X7605896Y-15729008D01*
X7605896Y-15729008D02*
X7624944Y-15738532D01*
X7624944Y-15738532D02*
X7634467Y-15748056D01*
X7634467Y-15748056D02*
X7643991Y-15767103D01*
X7643991Y-15767103D02*
X7643991Y-15814722D01*
X7643991Y-15814722D02*
X7634467Y-15833770D01*
X7634467Y-15833770D02*
X7624944Y-15843294D01*
X7624944Y-15843294D02*
X7605896Y-15852818D01*
X7605896Y-15852818D02*
X7548753Y-15852818D01*
X7548753Y-15852818D02*
X7529706Y-15843294D01*
X7529706Y-15843294D02*
X7520182Y-15833770D01*
X7739229Y-15852818D02*
X7777325Y-15852818D01*
X7777325Y-15852818D02*
X7796372Y-15843294D01*
X7796372Y-15843294D02*
X7805896Y-15833770D01*
X7805896Y-15833770D02*
X7824944Y-15805198D01*
X7824944Y-15805198D02*
X7834467Y-15767103D01*
X7834467Y-15767103D02*
X7834467Y-15690913D01*
X7834467Y-15690913D02*
X7824944Y-15671865D01*
X7824944Y-15671865D02*
X7815420Y-15662341D01*
X7815420Y-15662341D02*
X7796372Y-15652818D01*
X7796372Y-15652818D02*
X7758277Y-15652818D01*
X7758277Y-15652818D02*
X7739229Y-15662341D01*
X7739229Y-15662341D02*
X7729706Y-15671865D01*
X7729706Y-15671865D02*
X7720182Y-15690913D01*
X7720182Y-15690913D02*
X7720182Y-15738532D01*
X7720182Y-15738532D02*
X7729706Y-15757579D01*
X7729706Y-15757579D02*
X7739229Y-15767103D01*
X7739229Y-15767103D02*
X7758277Y-15776627D01*
X7758277Y-15776627D02*
X7796372Y-15776627D01*
X7796372Y-15776627D02*
X7815420Y-15767103D01*
X7815420Y-15767103D02*
X7824944Y-15757579D01*
X7824944Y-15757579D02*
X7834467Y-15738532D01*
X8005896Y-15719484D02*
X8005896Y-15852818D01*
X7958277Y-15643294D02*
X7910658Y-15786151D01*
X7910658Y-15786151D02*
X8034467Y-15786151D01*
X8101134Y-15652818D02*
X8101134Y-15690913D01*
X8177325Y-15652818D02*
X8177325Y-15690913D01*
X8472563Y-15929008D02*
X8463039Y-15919484D01*
X8463039Y-15919484D02*
X8443991Y-15890913D01*
X8443991Y-15890913D02*
X8434468Y-15871865D01*
X8434468Y-15871865D02*
X8424944Y-15843294D01*
X8424944Y-15843294D02*
X8415420Y-15795675D01*
X8415420Y-15795675D02*
X8415420Y-15757579D01*
X8415420Y-15757579D02*
X8424944Y-15709960D01*
X8424944Y-15709960D02*
X8434468Y-15681389D01*
X8434468Y-15681389D02*
X8443991Y-15662341D01*
X8443991Y-15662341D02*
X8463039Y-15633770D01*
X8463039Y-15633770D02*
X8472563Y-15624246D01*
X8634468Y-15719484D02*
X8634468Y-15852818D01*
X8586849Y-15643294D02*
X8539230Y-15786151D01*
X8539230Y-15786151D02*
X8663039Y-15786151D01*
X8777325Y-15652818D02*
X8796372Y-15652818D01*
X8796372Y-15652818D02*
X8815420Y-15662341D01*
X8815420Y-15662341D02*
X8824944Y-15671865D01*
X8824944Y-15671865D02*
X8834468Y-15690913D01*
X8834468Y-15690913D02*
X8843991Y-15729008D01*
X8843991Y-15729008D02*
X8843991Y-15776627D01*
X8843991Y-15776627D02*
X8834468Y-15814722D01*
X8834468Y-15814722D02*
X8824944Y-15833770D01*
X8824944Y-15833770D02*
X8815420Y-15843294D01*
X8815420Y-15843294D02*
X8796372Y-15852818D01*
X8796372Y-15852818D02*
X8777325Y-15852818D01*
X8777325Y-15852818D02*
X8758277Y-15843294D01*
X8758277Y-15843294D02*
X8748753Y-15833770D01*
X8748753Y-15833770D02*
X8739230Y-15814722D01*
X8739230Y-15814722D02*
X8729706Y-15776627D01*
X8729706Y-15776627D02*
X8729706Y-15729008D01*
X8729706Y-15729008D02*
X8739230Y-15690913D01*
X8739230Y-15690913D02*
X8748753Y-15671865D01*
X8748753Y-15671865D02*
X8758277Y-15662341D01*
X8758277Y-15662341D02*
X8777325Y-15652818D01*
X9082087Y-15852818D02*
X9082087Y-15652818D01*
X9167801Y-15852818D02*
X9167801Y-15748056D01*
X9167801Y-15748056D02*
X9158277Y-15729008D01*
X9158277Y-15729008D02*
X9139230Y-15719484D01*
X9139230Y-15719484D02*
X9110658Y-15719484D01*
X9110658Y-15719484D02*
X9091611Y-15729008D01*
X9091611Y-15729008D02*
X9082087Y-15738532D01*
X9291611Y-15852818D02*
X9272563Y-15843294D01*
X9272563Y-15843294D02*
X9263039Y-15833770D01*
X9263039Y-15833770D02*
X9253515Y-15814722D01*
X9253515Y-15814722D02*
X9253515Y-15757579D01*
X9253515Y-15757579D02*
X9263039Y-15738532D01*
X9263039Y-15738532D02*
X9272563Y-15729008D01*
X9272563Y-15729008D02*
X9291611Y-15719484D01*
X9291611Y-15719484D02*
X9320182Y-15719484D01*
X9320182Y-15719484D02*
X9339230Y-15729008D01*
X9339230Y-15729008D02*
X9348753Y-15738532D01*
X9348753Y-15738532D02*
X9358277Y-15757579D01*
X9358277Y-15757579D02*
X9358277Y-15814722D01*
X9358277Y-15814722D02*
X9348753Y-15833770D01*
X9348753Y-15833770D02*
X9339230Y-15843294D01*
X9339230Y-15843294D02*
X9320182Y-15852818D01*
X9320182Y-15852818D02*
X9291611Y-15852818D01*
X9472563Y-15852818D02*
X9453515Y-15843294D01*
X9453515Y-15843294D02*
X9443992Y-15824246D01*
X9443992Y-15824246D02*
X9443992Y-15652818D01*
X9624944Y-15843294D02*
X9605896Y-15852818D01*
X9605896Y-15852818D02*
X9567801Y-15852818D01*
X9567801Y-15852818D02*
X9548753Y-15843294D01*
X9548753Y-15843294D02*
X9539230Y-15824246D01*
X9539230Y-15824246D02*
X9539230Y-15748056D01*
X9539230Y-15748056D02*
X9548753Y-15729008D01*
X9548753Y-15729008D02*
X9567801Y-15719484D01*
X9567801Y-15719484D02*
X9605896Y-15719484D01*
X9605896Y-15719484D02*
X9624944Y-15729008D01*
X9624944Y-15729008D02*
X9634468Y-15748056D01*
X9634468Y-15748056D02*
X9634468Y-15767103D01*
X9634468Y-15767103D02*
X9539230Y-15786151D01*
X9710658Y-15843294D02*
X9729706Y-15852818D01*
X9729706Y-15852818D02*
X9767801Y-15852818D01*
X9767801Y-15852818D02*
X9786849Y-15843294D01*
X9786849Y-15843294D02*
X9796373Y-15824246D01*
X9796373Y-15824246D02*
X9796373Y-15814722D01*
X9796373Y-15814722D02*
X9786849Y-15795675D01*
X9786849Y-15795675D02*
X9767801Y-15786151D01*
X9767801Y-15786151D02*
X9739230Y-15786151D01*
X9739230Y-15786151D02*
X9720182Y-15776627D01*
X9720182Y-15776627D02*
X9710658Y-15757579D01*
X9710658Y-15757579D02*
X9710658Y-15748056D01*
X9710658Y-15748056D02*
X9720182Y-15729008D01*
X9720182Y-15729008D02*
X9739230Y-15719484D01*
X9739230Y-15719484D02*
X9767801Y-15719484D01*
X9767801Y-15719484D02*
X9786849Y-15729008D01*
X9863039Y-15929008D02*
X9872563Y-15919484D01*
X9872563Y-15919484D02*
X9891611Y-15890913D01*
X9891611Y-15890913D02*
X9901134Y-15871865D01*
X9901134Y-15871865D02*
X9910658Y-15843294D01*
X9910658Y-15843294D02*
X9920182Y-15795675D01*
X9920182Y-15795675D02*
X9920182Y-15757579D01*
X9920182Y-15757579D02*
X9910658Y-15709960D01*
X9910658Y-15709960D02*
X9901134Y-15681389D01*
X9901134Y-15681389D02*
X9891611Y-15662341D01*
X9891611Y-15662341D02*
X9872563Y-15633770D01*
X9872563Y-15633770D02*
X9863039Y-15624246D01*
D13*
X4842500Y-16080334D02*
X4897500Y-16025334D01*
X4842500Y-15970334D01*
X4787500Y-16025334D01*
X4842500Y-16080334D01*
D11*
X5263039Y-16116818D02*
X5148753Y-16116818D01*
X5205896Y-16116818D02*
X5205896Y-15916818D01*
X5205896Y-15916818D02*
X5186848Y-15945389D01*
X5186848Y-15945389D02*
X5167801Y-15964437D01*
X5167801Y-15964437D02*
X5148753Y-15973960D01*
X5348753Y-16097770D02*
X5358277Y-16107294D01*
X5358277Y-16107294D02*
X5348753Y-16116818D01*
X5348753Y-16116818D02*
X5339229Y-16107294D01*
X5339229Y-16107294D02*
X5348753Y-16097770D01*
X5348753Y-16097770D02*
X5348753Y-16116818D01*
X5548753Y-16116818D02*
X5434467Y-16116818D01*
X5491610Y-16116818D02*
X5491610Y-15916818D01*
X5491610Y-15916818D02*
X5472563Y-15945389D01*
X5472563Y-15945389D02*
X5453515Y-15964437D01*
X5453515Y-15964437D02*
X5434467Y-15973960D01*
X5672562Y-15916818D02*
X5691610Y-15916818D01*
X5691610Y-15916818D02*
X5710658Y-15926341D01*
X5710658Y-15926341D02*
X5720182Y-15935865D01*
X5720182Y-15935865D02*
X5729705Y-15954913D01*
X5729705Y-15954913D02*
X5739229Y-15993008D01*
X5739229Y-15993008D02*
X5739229Y-16040627D01*
X5739229Y-16040627D02*
X5729705Y-16078722D01*
X5729705Y-16078722D02*
X5720182Y-16097770D01*
X5720182Y-16097770D02*
X5710658Y-16107294D01*
X5710658Y-16107294D02*
X5691610Y-16116818D01*
X5691610Y-16116818D02*
X5672562Y-16116818D01*
X5672562Y-16116818D02*
X5653515Y-16107294D01*
X5653515Y-16107294D02*
X5643991Y-16097770D01*
X5643991Y-16097770D02*
X5634467Y-16078722D01*
X5634467Y-16078722D02*
X5624943Y-16040627D01*
X5624943Y-16040627D02*
X5624943Y-15993008D01*
X5624943Y-15993008D02*
X5634467Y-15954913D01*
X5634467Y-15954913D02*
X5643991Y-15935865D01*
X5643991Y-15935865D02*
X5653515Y-15926341D01*
X5653515Y-15926341D02*
X5672562Y-15916818D01*
X5863039Y-15916818D02*
X5882086Y-15916818D01*
X5882086Y-15916818D02*
X5901134Y-15926341D01*
X5901134Y-15926341D02*
X5910658Y-15935865D01*
X5910658Y-15935865D02*
X5920182Y-15954913D01*
X5920182Y-15954913D02*
X5929705Y-15993008D01*
X5929705Y-15993008D02*
X5929705Y-16040627D01*
X5929705Y-16040627D02*
X5920182Y-16078722D01*
X5920182Y-16078722D02*
X5910658Y-16097770D01*
X5910658Y-16097770D02*
X5901134Y-16107294D01*
X5901134Y-16107294D02*
X5882086Y-16116818D01*
X5882086Y-16116818D02*
X5863039Y-16116818D01*
X5863039Y-16116818D02*
X5843991Y-16107294D01*
X5843991Y-16107294D02*
X5834467Y-16097770D01*
X5834467Y-16097770D02*
X5824943Y-16078722D01*
X5824943Y-16078722D02*
X5815420Y-16040627D01*
X5815420Y-16040627D02*
X5815420Y-15993008D01*
X5815420Y-15993008D02*
X5824943Y-15954913D01*
X5824943Y-15954913D02*
X5834467Y-15935865D01*
X5834467Y-15935865D02*
X5843991Y-15926341D01*
X5843991Y-15926341D02*
X5863039Y-15916818D01*
X6015420Y-16116818D02*
X6015420Y-15983484D01*
X6015420Y-16002532D02*
X6024943Y-15993008D01*
X6024943Y-15993008D02*
X6043991Y-15983484D01*
X6043991Y-15983484D02*
X6072563Y-15983484D01*
X6072563Y-15983484D02*
X6091610Y-15993008D01*
X6091610Y-15993008D02*
X6101134Y-16012056D01*
X6101134Y-16012056D02*
X6101134Y-16116818D01*
X6101134Y-16012056D02*
X6110658Y-15993008D01*
X6110658Y-15993008D02*
X6129705Y-15983484D01*
X6129705Y-15983484D02*
X6158277Y-15983484D01*
X6158277Y-15983484D02*
X6177324Y-15993008D01*
X6177324Y-15993008D02*
X6186848Y-16012056D01*
X6186848Y-16012056D02*
X6186848Y-16116818D01*
X6282086Y-16116818D02*
X6282086Y-15983484D01*
X6282086Y-16002532D02*
X6291610Y-15993008D01*
X6291610Y-15993008D02*
X6310658Y-15983484D01*
X6310658Y-15983484D02*
X6339229Y-15983484D01*
X6339229Y-15983484D02*
X6358277Y-15993008D01*
X6358277Y-15993008D02*
X6367801Y-16012056D01*
X6367801Y-16012056D02*
X6367801Y-16116818D01*
X6367801Y-16012056D02*
X6377324Y-15993008D01*
X6377324Y-15993008D02*
X6396372Y-15983484D01*
X6396372Y-15983484D02*
X6424943Y-15983484D01*
X6424943Y-15983484D02*
X6443991Y-15993008D01*
X6443991Y-15993008D02*
X6453515Y-16012056D01*
X6453515Y-16012056D02*
X6453515Y-16116818D01*
X6843991Y-15907294D02*
X6672563Y-16164437D01*
X7101134Y-15916818D02*
X7120182Y-15916818D01*
X7120182Y-15916818D02*
X7139229Y-15926341D01*
X7139229Y-15926341D02*
X7148753Y-15935865D01*
X7148753Y-15935865D02*
X7158277Y-15954913D01*
X7158277Y-15954913D02*
X7167801Y-15993008D01*
X7167801Y-15993008D02*
X7167801Y-16040627D01*
X7167801Y-16040627D02*
X7158277Y-16078722D01*
X7158277Y-16078722D02*
X7148753Y-16097770D01*
X7148753Y-16097770D02*
X7139229Y-16107294D01*
X7139229Y-16107294D02*
X7120182Y-16116818D01*
X7120182Y-16116818D02*
X7101134Y-16116818D01*
X7101134Y-16116818D02*
X7082086Y-16107294D01*
X7082086Y-16107294D02*
X7072563Y-16097770D01*
X7072563Y-16097770D02*
X7063039Y-16078722D01*
X7063039Y-16078722D02*
X7053515Y-16040627D01*
X7053515Y-16040627D02*
X7053515Y-15993008D01*
X7053515Y-15993008D02*
X7063039Y-15954913D01*
X7063039Y-15954913D02*
X7072563Y-15935865D01*
X7072563Y-15935865D02*
X7082086Y-15926341D01*
X7082086Y-15926341D02*
X7101134Y-15916818D01*
X7253515Y-16097770D02*
X7263039Y-16107294D01*
X7263039Y-16107294D02*
X7253515Y-16116818D01*
X7253515Y-16116818D02*
X7243991Y-16107294D01*
X7243991Y-16107294D02*
X7253515Y-16097770D01*
X7253515Y-16097770D02*
X7253515Y-16116818D01*
X7386848Y-15916818D02*
X7405896Y-15916818D01*
X7405896Y-15916818D02*
X7424944Y-15926341D01*
X7424944Y-15926341D02*
X7434467Y-15935865D01*
X7434467Y-15935865D02*
X7443991Y-15954913D01*
X7443991Y-15954913D02*
X7453515Y-15993008D01*
X7453515Y-15993008D02*
X7453515Y-16040627D01*
X7453515Y-16040627D02*
X7443991Y-16078722D01*
X7443991Y-16078722D02*
X7434467Y-16097770D01*
X7434467Y-16097770D02*
X7424944Y-16107294D01*
X7424944Y-16107294D02*
X7405896Y-16116818D01*
X7405896Y-16116818D02*
X7386848Y-16116818D01*
X7386848Y-16116818D02*
X7367801Y-16107294D01*
X7367801Y-16107294D02*
X7358277Y-16097770D01*
X7358277Y-16097770D02*
X7348753Y-16078722D01*
X7348753Y-16078722D02*
X7339229Y-16040627D01*
X7339229Y-16040627D02*
X7339229Y-15993008D01*
X7339229Y-15993008D02*
X7348753Y-15954913D01*
X7348753Y-15954913D02*
X7358277Y-15935865D01*
X7358277Y-15935865D02*
X7367801Y-15926341D01*
X7367801Y-15926341D02*
X7386848Y-15916818D01*
X7624944Y-15983484D02*
X7624944Y-16116818D01*
X7577325Y-15907294D02*
X7529706Y-16050151D01*
X7529706Y-16050151D02*
X7653515Y-16050151D01*
X7710658Y-15916818D02*
X7834467Y-15916818D01*
X7834467Y-15916818D02*
X7767801Y-15993008D01*
X7767801Y-15993008D02*
X7796372Y-15993008D01*
X7796372Y-15993008D02*
X7815420Y-16002532D01*
X7815420Y-16002532D02*
X7824944Y-16012056D01*
X7824944Y-16012056D02*
X7834467Y-16031103D01*
X7834467Y-16031103D02*
X7834467Y-16078722D01*
X7834467Y-16078722D02*
X7824944Y-16097770D01*
X7824944Y-16097770D02*
X7815420Y-16107294D01*
X7815420Y-16107294D02*
X7796372Y-16116818D01*
X7796372Y-16116818D02*
X7739229Y-16116818D01*
X7739229Y-16116818D02*
X7720182Y-16107294D01*
X7720182Y-16107294D02*
X7710658Y-16097770D01*
X7901134Y-15916818D02*
X8024944Y-15916818D01*
X8024944Y-15916818D02*
X7958277Y-15993008D01*
X7958277Y-15993008D02*
X7986848Y-15993008D01*
X7986848Y-15993008D02*
X8005896Y-16002532D01*
X8005896Y-16002532D02*
X8015420Y-16012056D01*
X8015420Y-16012056D02*
X8024944Y-16031103D01*
X8024944Y-16031103D02*
X8024944Y-16078722D01*
X8024944Y-16078722D02*
X8015420Y-16097770D01*
X8015420Y-16097770D02*
X8005896Y-16107294D01*
X8005896Y-16107294D02*
X7986848Y-16116818D01*
X7986848Y-16116818D02*
X7929706Y-16116818D01*
X7929706Y-16116818D02*
X7910658Y-16107294D01*
X7910658Y-16107294D02*
X7901134Y-16097770D01*
X8101134Y-15916818D02*
X8101134Y-15954913D01*
X8177325Y-15916818D02*
X8177325Y-15954913D01*
X8472563Y-16193008D02*
X8463039Y-16183484D01*
X8463039Y-16183484D02*
X8443991Y-16154913D01*
X8443991Y-16154913D02*
X8434468Y-16135865D01*
X8434468Y-16135865D02*
X8424944Y-16107294D01*
X8424944Y-16107294D02*
X8415420Y-16059675D01*
X8415420Y-16059675D02*
X8415420Y-16021579D01*
X8415420Y-16021579D02*
X8424944Y-15973960D01*
X8424944Y-15973960D02*
X8434468Y-15945389D01*
X8434468Y-15945389D02*
X8443991Y-15926341D01*
X8443991Y-15926341D02*
X8463039Y-15897770D01*
X8463039Y-15897770D02*
X8472563Y-15888246D01*
X8577325Y-16002532D02*
X8558277Y-15993008D01*
X8558277Y-15993008D02*
X8548753Y-15983484D01*
X8548753Y-15983484D02*
X8539230Y-15964437D01*
X8539230Y-15964437D02*
X8539230Y-15954913D01*
X8539230Y-15954913D02*
X8548753Y-15935865D01*
X8548753Y-15935865D02*
X8558277Y-15926341D01*
X8558277Y-15926341D02*
X8577325Y-15916818D01*
X8577325Y-15916818D02*
X8615420Y-15916818D01*
X8615420Y-15916818D02*
X8634468Y-15926341D01*
X8634468Y-15926341D02*
X8643991Y-15935865D01*
X8643991Y-15935865D02*
X8653515Y-15954913D01*
X8653515Y-15954913D02*
X8653515Y-15964437D01*
X8653515Y-15964437D02*
X8643991Y-15983484D01*
X8643991Y-15983484D02*
X8634468Y-15993008D01*
X8634468Y-15993008D02*
X8615420Y-16002532D01*
X8615420Y-16002532D02*
X8577325Y-16002532D01*
X8577325Y-16002532D02*
X8558277Y-16012056D01*
X8558277Y-16012056D02*
X8548753Y-16021579D01*
X8548753Y-16021579D02*
X8539230Y-16040627D01*
X8539230Y-16040627D02*
X8539230Y-16078722D01*
X8539230Y-16078722D02*
X8548753Y-16097770D01*
X8548753Y-16097770D02*
X8558277Y-16107294D01*
X8558277Y-16107294D02*
X8577325Y-16116818D01*
X8577325Y-16116818D02*
X8615420Y-16116818D01*
X8615420Y-16116818D02*
X8634468Y-16107294D01*
X8634468Y-16107294D02*
X8643991Y-16097770D01*
X8643991Y-16097770D02*
X8653515Y-16078722D01*
X8653515Y-16078722D02*
X8653515Y-16040627D01*
X8653515Y-16040627D02*
X8643991Y-16021579D01*
X8643991Y-16021579D02*
X8634468Y-16012056D01*
X8634468Y-16012056D02*
X8615420Y-16002532D01*
X8891611Y-16116818D02*
X8891611Y-15916818D01*
X8977325Y-16116818D02*
X8977325Y-16012056D01*
X8977325Y-16012056D02*
X8967801Y-15993008D01*
X8967801Y-15993008D02*
X8948753Y-15983484D01*
X8948753Y-15983484D02*
X8920182Y-15983484D01*
X8920182Y-15983484D02*
X8901134Y-15993008D01*
X8901134Y-15993008D02*
X8891611Y-16002532D01*
X9101134Y-16116818D02*
X9082087Y-16107294D01*
X9082087Y-16107294D02*
X9072563Y-16097770D01*
X9072563Y-16097770D02*
X9063039Y-16078722D01*
X9063039Y-16078722D02*
X9063039Y-16021579D01*
X9063039Y-16021579D02*
X9072563Y-16002532D01*
X9072563Y-16002532D02*
X9082087Y-15993008D01*
X9082087Y-15993008D02*
X9101134Y-15983484D01*
X9101134Y-15983484D02*
X9129706Y-15983484D01*
X9129706Y-15983484D02*
X9148753Y-15993008D01*
X9148753Y-15993008D02*
X9158277Y-16002532D01*
X9158277Y-16002532D02*
X9167801Y-16021579D01*
X9167801Y-16021579D02*
X9167801Y-16078722D01*
X9167801Y-16078722D02*
X9158277Y-16097770D01*
X9158277Y-16097770D02*
X9148753Y-16107294D01*
X9148753Y-16107294D02*
X9129706Y-16116818D01*
X9129706Y-16116818D02*
X9101134Y-16116818D01*
X9282087Y-16116818D02*
X9263039Y-16107294D01*
X9263039Y-16107294D02*
X9253515Y-16088246D01*
X9253515Y-16088246D02*
X9253515Y-15916818D01*
X9434468Y-16107294D02*
X9415420Y-16116818D01*
X9415420Y-16116818D02*
X9377325Y-16116818D01*
X9377325Y-16116818D02*
X9358277Y-16107294D01*
X9358277Y-16107294D02*
X9348753Y-16088246D01*
X9348753Y-16088246D02*
X9348753Y-16012056D01*
X9348753Y-16012056D02*
X9358277Y-15993008D01*
X9358277Y-15993008D02*
X9377325Y-15983484D01*
X9377325Y-15983484D02*
X9415420Y-15983484D01*
X9415420Y-15983484D02*
X9434468Y-15993008D01*
X9434468Y-15993008D02*
X9443992Y-16012056D01*
X9443992Y-16012056D02*
X9443992Y-16031103D01*
X9443992Y-16031103D02*
X9348753Y-16050151D01*
X9520182Y-16107294D02*
X9539230Y-16116818D01*
X9539230Y-16116818D02*
X9577325Y-16116818D01*
X9577325Y-16116818D02*
X9596373Y-16107294D01*
X9596373Y-16107294D02*
X9605896Y-16088246D01*
X9605896Y-16088246D02*
X9605896Y-16078722D01*
X9605896Y-16078722D02*
X9596373Y-16059675D01*
X9596373Y-16059675D02*
X9577325Y-16050151D01*
X9577325Y-16050151D02*
X9548753Y-16050151D01*
X9548753Y-16050151D02*
X9529706Y-16040627D01*
X9529706Y-16040627D02*
X9520182Y-16021579D01*
X9520182Y-16021579D02*
X9520182Y-16012056D01*
X9520182Y-16012056D02*
X9529706Y-15993008D01*
X9529706Y-15993008D02*
X9548753Y-15983484D01*
X9548753Y-15983484D02*
X9577325Y-15983484D01*
X9577325Y-15983484D02*
X9596373Y-15993008D01*
X9672563Y-16193008D02*
X9682087Y-16183484D01*
X9682087Y-16183484D02*
X9701134Y-16154913D01*
X9701134Y-16154913D02*
X9710658Y-16135865D01*
X9710658Y-16135865D02*
X9720182Y-16107294D01*
X9720182Y-16107294D02*
X9729706Y-16059675D01*
X9729706Y-16059675D02*
X9729706Y-16021579D01*
X9729706Y-16021579D02*
X9720182Y-15973960D01*
X9720182Y-15973960D02*
X9710658Y-15945389D01*
X9710658Y-15945389D02*
X9701134Y-15926341D01*
X9701134Y-15926341D02*
X9682087Y-15897770D01*
X9682087Y-15897770D02*
X9672563Y-15888246D01*
X4697500Y-16189334D02*
X4897500Y-16389334D01*
X4897500Y-16189334D02*
X4697500Y-16389334D01*
X4897500Y-16289334D02*
G75*
G02*
X4697500Y-16289334I-100000J0D01*
G01*
X4697500Y-16289334D02*
G75*
G02*
X4897500Y-16289334I100000J0D01*
G01*
X5148753Y-16199865D02*
X5158277Y-16190341D01*
X5158277Y-16190341D02*
X5177324Y-16180818D01*
X5177324Y-16180818D02*
X5224944Y-16180818D01*
X5224944Y-16180818D02*
X5243991Y-16190341D01*
X5243991Y-16190341D02*
X5253515Y-16199865D01*
X5253515Y-16199865D02*
X5263039Y-16218913D01*
X5263039Y-16218913D02*
X5263039Y-16237960D01*
X5263039Y-16237960D02*
X5253515Y-16266532D01*
X5253515Y-16266532D02*
X5139229Y-16380818D01*
X5139229Y-16380818D02*
X5263039Y-16380818D01*
X5348753Y-16361770D02*
X5358277Y-16371294D01*
X5358277Y-16371294D02*
X5348753Y-16380818D01*
X5348753Y-16380818D02*
X5339229Y-16371294D01*
X5339229Y-16371294D02*
X5348753Y-16361770D01*
X5348753Y-16361770D02*
X5348753Y-16380818D01*
X5424944Y-16180818D02*
X5558277Y-16180818D01*
X5558277Y-16180818D02*
X5472563Y-16380818D01*
X5672562Y-16180818D02*
X5691610Y-16180818D01*
X5691610Y-16180818D02*
X5710658Y-16190341D01*
X5710658Y-16190341D02*
X5720182Y-16199865D01*
X5720182Y-16199865D02*
X5729705Y-16218913D01*
X5729705Y-16218913D02*
X5739229Y-16257008D01*
X5739229Y-16257008D02*
X5739229Y-16304627D01*
X5739229Y-16304627D02*
X5729705Y-16342722D01*
X5729705Y-16342722D02*
X5720182Y-16361770D01*
X5720182Y-16361770D02*
X5710658Y-16371294D01*
X5710658Y-16371294D02*
X5691610Y-16380818D01*
X5691610Y-16380818D02*
X5672562Y-16380818D01*
X5672562Y-16380818D02*
X5653515Y-16371294D01*
X5653515Y-16371294D02*
X5643991Y-16361770D01*
X5643991Y-16361770D02*
X5634467Y-16342722D01*
X5634467Y-16342722D02*
X5624943Y-16304627D01*
X5624943Y-16304627D02*
X5624943Y-16257008D01*
X5624943Y-16257008D02*
X5634467Y-16218913D01*
X5634467Y-16218913D02*
X5643991Y-16199865D01*
X5643991Y-16199865D02*
X5653515Y-16190341D01*
X5653515Y-16190341D02*
X5672562Y-16180818D01*
X5863039Y-16180818D02*
X5882086Y-16180818D01*
X5882086Y-16180818D02*
X5901134Y-16190341D01*
X5901134Y-16190341D02*
X5910658Y-16199865D01*
X5910658Y-16199865D02*
X5920182Y-16218913D01*
X5920182Y-16218913D02*
X5929705Y-16257008D01*
X5929705Y-16257008D02*
X5929705Y-16304627D01*
X5929705Y-16304627D02*
X5920182Y-16342722D01*
X5920182Y-16342722D02*
X5910658Y-16361770D01*
X5910658Y-16361770D02*
X5901134Y-16371294D01*
X5901134Y-16371294D02*
X5882086Y-16380818D01*
X5882086Y-16380818D02*
X5863039Y-16380818D01*
X5863039Y-16380818D02*
X5843991Y-16371294D01*
X5843991Y-16371294D02*
X5834467Y-16361770D01*
X5834467Y-16361770D02*
X5824943Y-16342722D01*
X5824943Y-16342722D02*
X5815420Y-16304627D01*
X5815420Y-16304627D02*
X5815420Y-16257008D01*
X5815420Y-16257008D02*
X5824943Y-16218913D01*
X5824943Y-16218913D02*
X5834467Y-16199865D01*
X5834467Y-16199865D02*
X5843991Y-16190341D01*
X5843991Y-16190341D02*
X5863039Y-16180818D01*
X6015420Y-16380818D02*
X6015420Y-16247484D01*
X6015420Y-16266532D02*
X6024943Y-16257008D01*
X6024943Y-16257008D02*
X6043991Y-16247484D01*
X6043991Y-16247484D02*
X6072563Y-16247484D01*
X6072563Y-16247484D02*
X6091610Y-16257008D01*
X6091610Y-16257008D02*
X6101134Y-16276056D01*
X6101134Y-16276056D02*
X6101134Y-16380818D01*
X6101134Y-16276056D02*
X6110658Y-16257008D01*
X6110658Y-16257008D02*
X6129705Y-16247484D01*
X6129705Y-16247484D02*
X6158277Y-16247484D01*
X6158277Y-16247484D02*
X6177324Y-16257008D01*
X6177324Y-16257008D02*
X6186848Y-16276056D01*
X6186848Y-16276056D02*
X6186848Y-16380818D01*
X6282086Y-16380818D02*
X6282086Y-16247484D01*
X6282086Y-16266532D02*
X6291610Y-16257008D01*
X6291610Y-16257008D02*
X6310658Y-16247484D01*
X6310658Y-16247484D02*
X6339229Y-16247484D01*
X6339229Y-16247484D02*
X6358277Y-16257008D01*
X6358277Y-16257008D02*
X6367801Y-16276056D01*
X6367801Y-16276056D02*
X6367801Y-16380818D01*
X6367801Y-16276056D02*
X6377324Y-16257008D01*
X6377324Y-16257008D02*
X6396372Y-16247484D01*
X6396372Y-16247484D02*
X6424943Y-16247484D01*
X6424943Y-16247484D02*
X6443991Y-16257008D01*
X6443991Y-16257008D02*
X6453515Y-16276056D01*
X6453515Y-16276056D02*
X6453515Y-16380818D01*
X6843991Y-16171294D02*
X6672563Y-16428437D01*
X7101134Y-16180818D02*
X7120182Y-16180818D01*
X7120182Y-16180818D02*
X7139229Y-16190341D01*
X7139229Y-16190341D02*
X7148753Y-16199865D01*
X7148753Y-16199865D02*
X7158277Y-16218913D01*
X7158277Y-16218913D02*
X7167801Y-16257008D01*
X7167801Y-16257008D02*
X7167801Y-16304627D01*
X7167801Y-16304627D02*
X7158277Y-16342722D01*
X7158277Y-16342722D02*
X7148753Y-16361770D01*
X7148753Y-16361770D02*
X7139229Y-16371294D01*
X7139229Y-16371294D02*
X7120182Y-16380818D01*
X7120182Y-16380818D02*
X7101134Y-16380818D01*
X7101134Y-16380818D02*
X7082086Y-16371294D01*
X7082086Y-16371294D02*
X7072563Y-16361770D01*
X7072563Y-16361770D02*
X7063039Y-16342722D01*
X7063039Y-16342722D02*
X7053515Y-16304627D01*
X7053515Y-16304627D02*
X7053515Y-16257008D01*
X7053515Y-16257008D02*
X7063039Y-16218913D01*
X7063039Y-16218913D02*
X7072563Y-16199865D01*
X7072563Y-16199865D02*
X7082086Y-16190341D01*
X7082086Y-16190341D02*
X7101134Y-16180818D01*
X7253515Y-16361770D02*
X7263039Y-16371294D01*
X7263039Y-16371294D02*
X7253515Y-16380818D01*
X7253515Y-16380818D02*
X7243991Y-16371294D01*
X7243991Y-16371294D02*
X7253515Y-16361770D01*
X7253515Y-16361770D02*
X7253515Y-16380818D01*
X7453515Y-16380818D02*
X7339229Y-16380818D01*
X7396372Y-16380818D02*
X7396372Y-16180818D01*
X7396372Y-16180818D02*
X7377325Y-16209389D01*
X7377325Y-16209389D02*
X7358277Y-16228437D01*
X7358277Y-16228437D02*
X7339229Y-16237960D01*
X7577325Y-16180818D02*
X7596372Y-16180818D01*
X7596372Y-16180818D02*
X7615420Y-16190341D01*
X7615420Y-16190341D02*
X7624944Y-16199865D01*
X7624944Y-16199865D02*
X7634467Y-16218913D01*
X7634467Y-16218913D02*
X7643991Y-16257008D01*
X7643991Y-16257008D02*
X7643991Y-16304627D01*
X7643991Y-16304627D02*
X7634467Y-16342722D01*
X7634467Y-16342722D02*
X7624944Y-16361770D01*
X7624944Y-16361770D02*
X7615420Y-16371294D01*
X7615420Y-16371294D02*
X7596372Y-16380818D01*
X7596372Y-16380818D02*
X7577325Y-16380818D01*
X7577325Y-16380818D02*
X7558277Y-16371294D01*
X7558277Y-16371294D02*
X7548753Y-16361770D01*
X7548753Y-16361770D02*
X7539229Y-16342722D01*
X7539229Y-16342722D02*
X7529706Y-16304627D01*
X7529706Y-16304627D02*
X7529706Y-16257008D01*
X7529706Y-16257008D02*
X7539229Y-16218913D01*
X7539229Y-16218913D02*
X7548753Y-16199865D01*
X7548753Y-16199865D02*
X7558277Y-16190341D01*
X7558277Y-16190341D02*
X7577325Y-16180818D01*
X7815420Y-16180818D02*
X7777325Y-16180818D01*
X7777325Y-16180818D02*
X7758277Y-16190341D01*
X7758277Y-16190341D02*
X7748753Y-16199865D01*
X7748753Y-16199865D02*
X7729706Y-16228437D01*
X7729706Y-16228437D02*
X7720182Y-16266532D01*
X7720182Y-16266532D02*
X7720182Y-16342722D01*
X7720182Y-16342722D02*
X7729706Y-16361770D01*
X7729706Y-16361770D02*
X7739229Y-16371294D01*
X7739229Y-16371294D02*
X7758277Y-16380818D01*
X7758277Y-16380818D02*
X7796372Y-16380818D01*
X7796372Y-16380818D02*
X7815420Y-16371294D01*
X7815420Y-16371294D02*
X7824944Y-16361770D01*
X7824944Y-16361770D02*
X7834467Y-16342722D01*
X7834467Y-16342722D02*
X7834467Y-16295103D01*
X7834467Y-16295103D02*
X7824944Y-16276056D01*
X7824944Y-16276056D02*
X7815420Y-16266532D01*
X7815420Y-16266532D02*
X7796372Y-16257008D01*
X7796372Y-16257008D02*
X7758277Y-16257008D01*
X7758277Y-16257008D02*
X7739229Y-16266532D01*
X7739229Y-16266532D02*
X7729706Y-16276056D01*
X7729706Y-16276056D02*
X7720182Y-16295103D01*
X7901134Y-16180818D02*
X8024944Y-16180818D01*
X8024944Y-16180818D02*
X7958277Y-16257008D01*
X7958277Y-16257008D02*
X7986848Y-16257008D01*
X7986848Y-16257008D02*
X8005896Y-16266532D01*
X8005896Y-16266532D02*
X8015420Y-16276056D01*
X8015420Y-16276056D02*
X8024944Y-16295103D01*
X8024944Y-16295103D02*
X8024944Y-16342722D01*
X8024944Y-16342722D02*
X8015420Y-16361770D01*
X8015420Y-16361770D02*
X8005896Y-16371294D01*
X8005896Y-16371294D02*
X7986848Y-16380818D01*
X7986848Y-16380818D02*
X7929706Y-16380818D01*
X7929706Y-16380818D02*
X7910658Y-16371294D01*
X7910658Y-16371294D02*
X7901134Y-16361770D01*
X8101134Y-16180818D02*
X8101134Y-16218913D01*
X8177325Y-16180818D02*
X8177325Y-16218913D01*
X8472563Y-16457008D02*
X8463039Y-16447484D01*
X8463039Y-16447484D02*
X8443991Y-16418913D01*
X8443991Y-16418913D02*
X8434468Y-16399865D01*
X8434468Y-16399865D02*
X8424944Y-16371294D01*
X8424944Y-16371294D02*
X8415420Y-16323675D01*
X8415420Y-16323675D02*
X8415420Y-16285579D01*
X8415420Y-16285579D02*
X8424944Y-16237960D01*
X8424944Y-16237960D02*
X8434468Y-16209389D01*
X8434468Y-16209389D02*
X8443991Y-16190341D01*
X8443991Y-16190341D02*
X8463039Y-16161770D01*
X8463039Y-16161770D02*
X8472563Y-16152246D01*
X8634468Y-16247484D02*
X8634468Y-16380818D01*
X8586849Y-16171294D02*
X8539230Y-16314151D01*
X8539230Y-16314151D02*
X8663039Y-16314151D01*
X8891611Y-16380818D02*
X8891611Y-16180818D01*
X8977325Y-16380818D02*
X8977325Y-16276056D01*
X8977325Y-16276056D02*
X8967801Y-16257008D01*
X8967801Y-16257008D02*
X8948753Y-16247484D01*
X8948753Y-16247484D02*
X8920182Y-16247484D01*
X8920182Y-16247484D02*
X8901134Y-16257008D01*
X8901134Y-16257008D02*
X8891611Y-16266532D01*
X9101134Y-16380818D02*
X9082087Y-16371294D01*
X9082087Y-16371294D02*
X9072563Y-16361770D01*
X9072563Y-16361770D02*
X9063039Y-16342722D01*
X9063039Y-16342722D02*
X9063039Y-16285579D01*
X9063039Y-16285579D02*
X9072563Y-16266532D01*
X9072563Y-16266532D02*
X9082087Y-16257008D01*
X9082087Y-16257008D02*
X9101134Y-16247484D01*
X9101134Y-16247484D02*
X9129706Y-16247484D01*
X9129706Y-16247484D02*
X9148753Y-16257008D01*
X9148753Y-16257008D02*
X9158277Y-16266532D01*
X9158277Y-16266532D02*
X9167801Y-16285579D01*
X9167801Y-16285579D02*
X9167801Y-16342722D01*
X9167801Y-16342722D02*
X9158277Y-16361770D01*
X9158277Y-16361770D02*
X9148753Y-16371294D01*
X9148753Y-16371294D02*
X9129706Y-16380818D01*
X9129706Y-16380818D02*
X9101134Y-16380818D01*
X9282087Y-16380818D02*
X9263039Y-16371294D01*
X9263039Y-16371294D02*
X9253515Y-16352246D01*
X9253515Y-16352246D02*
X9253515Y-16180818D01*
X9434468Y-16371294D02*
X9415420Y-16380818D01*
X9415420Y-16380818D02*
X9377325Y-16380818D01*
X9377325Y-16380818D02*
X9358277Y-16371294D01*
X9358277Y-16371294D02*
X9348753Y-16352246D01*
X9348753Y-16352246D02*
X9348753Y-16276056D01*
X9348753Y-16276056D02*
X9358277Y-16257008D01*
X9358277Y-16257008D02*
X9377325Y-16247484D01*
X9377325Y-16247484D02*
X9415420Y-16247484D01*
X9415420Y-16247484D02*
X9434468Y-16257008D01*
X9434468Y-16257008D02*
X9443992Y-16276056D01*
X9443992Y-16276056D02*
X9443992Y-16295103D01*
X9443992Y-16295103D02*
X9348753Y-16314151D01*
X9520182Y-16371294D02*
X9539230Y-16380818D01*
X9539230Y-16380818D02*
X9577325Y-16380818D01*
X9577325Y-16380818D02*
X9596373Y-16371294D01*
X9596373Y-16371294D02*
X9605896Y-16352246D01*
X9605896Y-16352246D02*
X9605896Y-16342722D01*
X9605896Y-16342722D02*
X9596373Y-16323675D01*
X9596373Y-16323675D02*
X9577325Y-16314151D01*
X9577325Y-16314151D02*
X9548753Y-16314151D01*
X9548753Y-16314151D02*
X9529706Y-16304627D01*
X9529706Y-16304627D02*
X9520182Y-16285579D01*
X9520182Y-16285579D02*
X9520182Y-16276056D01*
X9520182Y-16276056D02*
X9529706Y-16257008D01*
X9529706Y-16257008D02*
X9548753Y-16247484D01*
X9548753Y-16247484D02*
X9577325Y-16247484D01*
X9577325Y-16247484D02*
X9596373Y-16257008D01*
X9672563Y-16457008D02*
X9682087Y-16447484D01*
X9682087Y-16447484D02*
X9701134Y-16418913D01*
X9701134Y-16418913D02*
X9710658Y-16399865D01*
X9710658Y-16399865D02*
X9720182Y-16371294D01*
X9720182Y-16371294D02*
X9729706Y-16323675D01*
X9729706Y-16323675D02*
X9729706Y-16285579D01*
X9729706Y-16285579D02*
X9720182Y-16237960D01*
X9720182Y-16237960D02*
X9710658Y-16209389D01*
X9710658Y-16209389D02*
X9701134Y-16190341D01*
X9701134Y-16190341D02*
X9682087Y-16161770D01*
X9682087Y-16161770D02*
X9672563Y-16152246D01*
X4697500Y-16509334D02*
X4897500Y-16709334D01*
X4897500Y-16509334D02*
X4697500Y-16709334D01*
X4797500Y-16509334D02*
X4797500Y-16709334D01*
X4697500Y-16609334D02*
X4897500Y-16609334D01*
X5139229Y-16500818D02*
X5263039Y-16500818D01*
X5263039Y-16500818D02*
X5196372Y-16577008D01*
X5196372Y-16577008D02*
X5224944Y-16577008D01*
X5224944Y-16577008D02*
X5243991Y-16586532D01*
X5243991Y-16586532D02*
X5253515Y-16596056D01*
X5253515Y-16596056D02*
X5263039Y-16615103D01*
X5263039Y-16615103D02*
X5263039Y-16662722D01*
X5263039Y-16662722D02*
X5253515Y-16681770D01*
X5253515Y-16681770D02*
X5243991Y-16691294D01*
X5243991Y-16691294D02*
X5224944Y-16700818D01*
X5224944Y-16700818D02*
X5167801Y-16700818D01*
X5167801Y-16700818D02*
X5148753Y-16691294D01*
X5148753Y-16691294D02*
X5139229Y-16681770D01*
X5348753Y-16681770D02*
X5358277Y-16691294D01*
X5358277Y-16691294D02*
X5348753Y-16700818D01*
X5348753Y-16700818D02*
X5339229Y-16691294D01*
X5339229Y-16691294D02*
X5348753Y-16681770D01*
X5348753Y-16681770D02*
X5348753Y-16700818D01*
X5434467Y-16519865D02*
X5443991Y-16510341D01*
X5443991Y-16510341D02*
X5463039Y-16500818D01*
X5463039Y-16500818D02*
X5510658Y-16500818D01*
X5510658Y-16500818D02*
X5529705Y-16510341D01*
X5529705Y-16510341D02*
X5539229Y-16519865D01*
X5539229Y-16519865D02*
X5548753Y-16538913D01*
X5548753Y-16538913D02*
X5548753Y-16557960D01*
X5548753Y-16557960D02*
X5539229Y-16586532D01*
X5539229Y-16586532D02*
X5424944Y-16700818D01*
X5424944Y-16700818D02*
X5548753Y-16700818D01*
X5672562Y-16500818D02*
X5691610Y-16500818D01*
X5691610Y-16500818D02*
X5710658Y-16510341D01*
X5710658Y-16510341D02*
X5720182Y-16519865D01*
X5720182Y-16519865D02*
X5729705Y-16538913D01*
X5729705Y-16538913D02*
X5739229Y-16577008D01*
X5739229Y-16577008D02*
X5739229Y-16624627D01*
X5739229Y-16624627D02*
X5729705Y-16662722D01*
X5729705Y-16662722D02*
X5720182Y-16681770D01*
X5720182Y-16681770D02*
X5710658Y-16691294D01*
X5710658Y-16691294D02*
X5691610Y-16700818D01*
X5691610Y-16700818D02*
X5672562Y-16700818D01*
X5672562Y-16700818D02*
X5653515Y-16691294D01*
X5653515Y-16691294D02*
X5643991Y-16681770D01*
X5643991Y-16681770D02*
X5634467Y-16662722D01*
X5634467Y-16662722D02*
X5624943Y-16624627D01*
X5624943Y-16624627D02*
X5624943Y-16577008D01*
X5624943Y-16577008D02*
X5634467Y-16538913D01*
X5634467Y-16538913D02*
X5643991Y-16519865D01*
X5643991Y-16519865D02*
X5653515Y-16510341D01*
X5653515Y-16510341D02*
X5672562Y-16500818D01*
X5863039Y-16500818D02*
X5882086Y-16500818D01*
X5882086Y-16500818D02*
X5901134Y-16510341D01*
X5901134Y-16510341D02*
X5910658Y-16519865D01*
X5910658Y-16519865D02*
X5920182Y-16538913D01*
X5920182Y-16538913D02*
X5929705Y-16577008D01*
X5929705Y-16577008D02*
X5929705Y-16624627D01*
X5929705Y-16624627D02*
X5920182Y-16662722D01*
X5920182Y-16662722D02*
X5910658Y-16681770D01*
X5910658Y-16681770D02*
X5901134Y-16691294D01*
X5901134Y-16691294D02*
X5882086Y-16700818D01*
X5882086Y-16700818D02*
X5863039Y-16700818D01*
X5863039Y-16700818D02*
X5843991Y-16691294D01*
X5843991Y-16691294D02*
X5834467Y-16681770D01*
X5834467Y-16681770D02*
X5824943Y-16662722D01*
X5824943Y-16662722D02*
X5815420Y-16624627D01*
X5815420Y-16624627D02*
X5815420Y-16577008D01*
X5815420Y-16577008D02*
X5824943Y-16538913D01*
X5824943Y-16538913D02*
X5834467Y-16519865D01*
X5834467Y-16519865D02*
X5843991Y-16510341D01*
X5843991Y-16510341D02*
X5863039Y-16500818D01*
X6015420Y-16700818D02*
X6015420Y-16567484D01*
X6015420Y-16586532D02*
X6024943Y-16577008D01*
X6024943Y-16577008D02*
X6043991Y-16567484D01*
X6043991Y-16567484D02*
X6072563Y-16567484D01*
X6072563Y-16567484D02*
X6091610Y-16577008D01*
X6091610Y-16577008D02*
X6101134Y-16596056D01*
X6101134Y-16596056D02*
X6101134Y-16700818D01*
X6101134Y-16596056D02*
X6110658Y-16577008D01*
X6110658Y-16577008D02*
X6129705Y-16567484D01*
X6129705Y-16567484D02*
X6158277Y-16567484D01*
X6158277Y-16567484D02*
X6177324Y-16577008D01*
X6177324Y-16577008D02*
X6186848Y-16596056D01*
X6186848Y-16596056D02*
X6186848Y-16700818D01*
X6282086Y-16700818D02*
X6282086Y-16567484D01*
X6282086Y-16586532D02*
X6291610Y-16577008D01*
X6291610Y-16577008D02*
X6310658Y-16567484D01*
X6310658Y-16567484D02*
X6339229Y-16567484D01*
X6339229Y-16567484D02*
X6358277Y-16577008D01*
X6358277Y-16577008D02*
X6367801Y-16596056D01*
X6367801Y-16596056D02*
X6367801Y-16700818D01*
X6367801Y-16596056D02*
X6377324Y-16577008D01*
X6377324Y-16577008D02*
X6396372Y-16567484D01*
X6396372Y-16567484D02*
X6424943Y-16567484D01*
X6424943Y-16567484D02*
X6443991Y-16577008D01*
X6443991Y-16577008D02*
X6453515Y-16596056D01*
X6453515Y-16596056D02*
X6453515Y-16700818D01*
X6843991Y-16491294D02*
X6672563Y-16748437D01*
X7101134Y-16500818D02*
X7120182Y-16500818D01*
X7120182Y-16500818D02*
X7139229Y-16510341D01*
X7139229Y-16510341D02*
X7148753Y-16519865D01*
X7148753Y-16519865D02*
X7158277Y-16538913D01*
X7158277Y-16538913D02*
X7167801Y-16577008D01*
X7167801Y-16577008D02*
X7167801Y-16624627D01*
X7167801Y-16624627D02*
X7158277Y-16662722D01*
X7158277Y-16662722D02*
X7148753Y-16681770D01*
X7148753Y-16681770D02*
X7139229Y-16691294D01*
X7139229Y-16691294D02*
X7120182Y-16700818D01*
X7120182Y-16700818D02*
X7101134Y-16700818D01*
X7101134Y-16700818D02*
X7082086Y-16691294D01*
X7082086Y-16691294D02*
X7072563Y-16681770D01*
X7072563Y-16681770D02*
X7063039Y-16662722D01*
X7063039Y-16662722D02*
X7053515Y-16624627D01*
X7053515Y-16624627D02*
X7053515Y-16577008D01*
X7053515Y-16577008D02*
X7063039Y-16538913D01*
X7063039Y-16538913D02*
X7072563Y-16519865D01*
X7072563Y-16519865D02*
X7082086Y-16510341D01*
X7082086Y-16510341D02*
X7101134Y-16500818D01*
X7253515Y-16681770D02*
X7263039Y-16691294D01*
X7263039Y-16691294D02*
X7253515Y-16700818D01*
X7253515Y-16700818D02*
X7243991Y-16691294D01*
X7243991Y-16691294D02*
X7253515Y-16681770D01*
X7253515Y-16681770D02*
X7253515Y-16700818D01*
X7453515Y-16700818D02*
X7339229Y-16700818D01*
X7396372Y-16700818D02*
X7396372Y-16500818D01*
X7396372Y-16500818D02*
X7377325Y-16529389D01*
X7377325Y-16529389D02*
X7358277Y-16548437D01*
X7358277Y-16548437D02*
X7339229Y-16557960D01*
X7529706Y-16519865D02*
X7539229Y-16510341D01*
X7539229Y-16510341D02*
X7558277Y-16500818D01*
X7558277Y-16500818D02*
X7605896Y-16500818D01*
X7605896Y-16500818D02*
X7624944Y-16510341D01*
X7624944Y-16510341D02*
X7634467Y-16519865D01*
X7634467Y-16519865D02*
X7643991Y-16538913D01*
X7643991Y-16538913D02*
X7643991Y-16557960D01*
X7643991Y-16557960D02*
X7634467Y-16586532D01*
X7634467Y-16586532D02*
X7520182Y-16700818D01*
X7520182Y-16700818D02*
X7643991Y-16700818D01*
X7815420Y-16500818D02*
X7777325Y-16500818D01*
X7777325Y-16500818D02*
X7758277Y-16510341D01*
X7758277Y-16510341D02*
X7748753Y-16519865D01*
X7748753Y-16519865D02*
X7729706Y-16548437D01*
X7729706Y-16548437D02*
X7720182Y-16586532D01*
X7720182Y-16586532D02*
X7720182Y-16662722D01*
X7720182Y-16662722D02*
X7729706Y-16681770D01*
X7729706Y-16681770D02*
X7739229Y-16691294D01*
X7739229Y-16691294D02*
X7758277Y-16700818D01*
X7758277Y-16700818D02*
X7796372Y-16700818D01*
X7796372Y-16700818D02*
X7815420Y-16691294D01*
X7815420Y-16691294D02*
X7824944Y-16681770D01*
X7824944Y-16681770D02*
X7834467Y-16662722D01*
X7834467Y-16662722D02*
X7834467Y-16615103D01*
X7834467Y-16615103D02*
X7824944Y-16596056D01*
X7824944Y-16596056D02*
X7815420Y-16586532D01*
X7815420Y-16586532D02*
X7796372Y-16577008D01*
X7796372Y-16577008D02*
X7758277Y-16577008D01*
X7758277Y-16577008D02*
X7739229Y-16586532D01*
X7739229Y-16586532D02*
X7729706Y-16596056D01*
X7729706Y-16596056D02*
X7720182Y-16615103D01*
X7958277Y-16500818D02*
X7977325Y-16500818D01*
X7977325Y-16500818D02*
X7996372Y-16510341D01*
X7996372Y-16510341D02*
X8005896Y-16519865D01*
X8005896Y-16519865D02*
X8015420Y-16538913D01*
X8015420Y-16538913D02*
X8024944Y-16577008D01*
X8024944Y-16577008D02*
X8024944Y-16624627D01*
X8024944Y-16624627D02*
X8015420Y-16662722D01*
X8015420Y-16662722D02*
X8005896Y-16681770D01*
X8005896Y-16681770D02*
X7996372Y-16691294D01*
X7996372Y-16691294D02*
X7977325Y-16700818D01*
X7977325Y-16700818D02*
X7958277Y-16700818D01*
X7958277Y-16700818D02*
X7939229Y-16691294D01*
X7939229Y-16691294D02*
X7929706Y-16681770D01*
X7929706Y-16681770D02*
X7920182Y-16662722D01*
X7920182Y-16662722D02*
X7910658Y-16624627D01*
X7910658Y-16624627D02*
X7910658Y-16577008D01*
X7910658Y-16577008D02*
X7920182Y-16538913D01*
X7920182Y-16538913D02*
X7929706Y-16519865D01*
X7929706Y-16519865D02*
X7939229Y-16510341D01*
X7939229Y-16510341D02*
X7958277Y-16500818D01*
X8101134Y-16500818D02*
X8101134Y-16538913D01*
X8177325Y-16500818D02*
X8177325Y-16538913D01*
X8472563Y-16777008D02*
X8463039Y-16767484D01*
X8463039Y-16767484D02*
X8443991Y-16738913D01*
X8443991Y-16738913D02*
X8434468Y-16719865D01*
X8434468Y-16719865D02*
X8424944Y-16691294D01*
X8424944Y-16691294D02*
X8415420Y-16643675D01*
X8415420Y-16643675D02*
X8415420Y-16605579D01*
X8415420Y-16605579D02*
X8424944Y-16557960D01*
X8424944Y-16557960D02*
X8434468Y-16529389D01*
X8434468Y-16529389D02*
X8443991Y-16510341D01*
X8443991Y-16510341D02*
X8463039Y-16481770D01*
X8463039Y-16481770D02*
X8472563Y-16472246D01*
X8634468Y-16567484D02*
X8634468Y-16700818D01*
X8586849Y-16491294D02*
X8539230Y-16634151D01*
X8539230Y-16634151D02*
X8663039Y-16634151D01*
X8891611Y-16700818D02*
X8891611Y-16500818D01*
X8977325Y-16700818D02*
X8977325Y-16596056D01*
X8977325Y-16596056D02*
X8967801Y-16577008D01*
X8967801Y-16577008D02*
X8948753Y-16567484D01*
X8948753Y-16567484D02*
X8920182Y-16567484D01*
X8920182Y-16567484D02*
X8901134Y-16577008D01*
X8901134Y-16577008D02*
X8891611Y-16586532D01*
X9101134Y-16700818D02*
X9082087Y-16691294D01*
X9082087Y-16691294D02*
X9072563Y-16681770D01*
X9072563Y-16681770D02*
X9063039Y-16662722D01*
X9063039Y-16662722D02*
X9063039Y-16605579D01*
X9063039Y-16605579D02*
X9072563Y-16586532D01*
X9072563Y-16586532D02*
X9082087Y-16577008D01*
X9082087Y-16577008D02*
X9101134Y-16567484D01*
X9101134Y-16567484D02*
X9129706Y-16567484D01*
X9129706Y-16567484D02*
X9148753Y-16577008D01*
X9148753Y-16577008D02*
X9158277Y-16586532D01*
X9158277Y-16586532D02*
X9167801Y-16605579D01*
X9167801Y-16605579D02*
X9167801Y-16662722D01*
X9167801Y-16662722D02*
X9158277Y-16681770D01*
X9158277Y-16681770D02*
X9148753Y-16691294D01*
X9148753Y-16691294D02*
X9129706Y-16700818D01*
X9129706Y-16700818D02*
X9101134Y-16700818D01*
X9282087Y-16700818D02*
X9263039Y-16691294D01*
X9263039Y-16691294D02*
X9253515Y-16672246D01*
X9253515Y-16672246D02*
X9253515Y-16500818D01*
X9434468Y-16691294D02*
X9415420Y-16700818D01*
X9415420Y-16700818D02*
X9377325Y-16700818D01*
X9377325Y-16700818D02*
X9358277Y-16691294D01*
X9358277Y-16691294D02*
X9348753Y-16672246D01*
X9348753Y-16672246D02*
X9348753Y-16596056D01*
X9348753Y-16596056D02*
X9358277Y-16577008D01*
X9358277Y-16577008D02*
X9377325Y-16567484D01*
X9377325Y-16567484D02*
X9415420Y-16567484D01*
X9415420Y-16567484D02*
X9434468Y-16577008D01*
X9434468Y-16577008D02*
X9443992Y-16596056D01*
X9443992Y-16596056D02*
X9443992Y-16615103D01*
X9443992Y-16615103D02*
X9348753Y-16634151D01*
X9520182Y-16691294D02*
X9539230Y-16700818D01*
X9539230Y-16700818D02*
X9577325Y-16700818D01*
X9577325Y-16700818D02*
X9596373Y-16691294D01*
X9596373Y-16691294D02*
X9605896Y-16672246D01*
X9605896Y-16672246D02*
X9605896Y-16662722D01*
X9605896Y-16662722D02*
X9596373Y-16643675D01*
X9596373Y-16643675D02*
X9577325Y-16634151D01*
X9577325Y-16634151D02*
X9548753Y-16634151D01*
X9548753Y-16634151D02*
X9529706Y-16624627D01*
X9529706Y-16624627D02*
X9520182Y-16605579D01*
X9520182Y-16605579D02*
X9520182Y-16596056D01*
X9520182Y-16596056D02*
X9529706Y-16577008D01*
X9529706Y-16577008D02*
X9548753Y-16567484D01*
X9548753Y-16567484D02*
X9577325Y-16567484D01*
X9577325Y-16567484D02*
X9596373Y-16577008D01*
X9672563Y-16777008D02*
X9682087Y-16767484D01*
X9682087Y-16767484D02*
X9701134Y-16738913D01*
X9701134Y-16738913D02*
X9710658Y-16719865D01*
X9710658Y-16719865D02*
X9720182Y-16691294D01*
X9720182Y-16691294D02*
X9729706Y-16643675D01*
X9729706Y-16643675D02*
X9729706Y-16605579D01*
X9729706Y-16605579D02*
X9720182Y-16557960D01*
X9720182Y-16557960D02*
X9710658Y-16529389D01*
X9710658Y-16529389D02*
X9701134Y-16510341D01*
X9701134Y-16510341D02*
X9682087Y-16481770D01*
X9682087Y-16481770D02*
X9672563Y-16472246D01*
M02*
