G04 #@! TF.GenerationSoftware,KiCad,Pcbnew,8.0.3*
G04 #@! TF.CreationDate,2024-09-22T19:56:22+01:00*
G04 #@! TF.ProjectId,BetetrDom,42657465-7472-4446-9f6d-2e6b69636164,rev?*
G04 #@! TF.SameCoordinates,Original*
G04 #@! TF.FileFunction,Soldermask,Top*
G04 #@! TF.FilePolarity,Negative*
%FSLAX46Y46*%
G04 Gerber Fmt 4.6, Leading zero omitted, Abs format (unit mm)*
G04 Created by KiCad (PCBNEW 8.0.3) date 2024-09-22 19:56:22*
%MOMM*%
%LPD*%
G01*
G04 APERTURE LIST*
G04 Aperture macros list*
%AMRoundRect*
0 Rectangle with rounded corners*
0 $1 Rounding radius*
0 $2 $3 $4 $5 $6 $7 $8 $9 X,Y pos of 4 corners*
0 Add a 4 corners polygon primitive as box body*
4,1,4,$2,$3,$4,$5,$6,$7,$8,$9,$2,$3,0*
0 Add four circle primitives for the rounded corners*
1,1,$1+$1,$2,$3*
1,1,$1+$1,$4,$5*
1,1,$1+$1,$6,$7*
1,1,$1+$1,$8,$9*
0 Add four rect primitives between the rounded corners*
20,1,$1+$1,$2,$3,$4,$5,0*
20,1,$1+$1,$4,$5,$6,$7,0*
20,1,$1+$1,$6,$7,$8,$9,0*
20,1,$1+$1,$8,$9,$2,$3,0*%
G04 Aperture macros list end*
%ADD10R,1.500000X1.500000*%
%ADD11R,1.600000X1.600000*%
%ADD12O,1.600000X1.600000*%
%ADD13RoundRect,0.102000X1.750000X-1.000000X1.750000X1.000000X-1.750000X1.000000X-1.750000X-1.000000X0*%
%ADD14RoundRect,0.250000X-0.262500X-0.450000X0.262500X-0.450000X0.262500X0.450000X-0.262500X0.450000X0*%
%ADD15RoundRect,0.225000X-0.225000X-0.250000X0.225000X-0.250000X0.225000X0.250000X-0.225000X0.250000X0*%
%ADD16RoundRect,0.140000X0.170000X-0.140000X0.170000X0.140000X-0.170000X0.140000X-0.170000X-0.140000X0*%
%ADD17RoundRect,0.150000X-0.512500X-0.150000X0.512500X-0.150000X0.512500X0.150000X-0.512500X0.150000X0*%
%ADD18RoundRect,0.250000X0.312500X0.625000X-0.312500X0.625000X-0.312500X-0.625000X0.312500X-0.625000X0*%
%ADD19R,0.600000X0.400000*%
%ADD20R,0.550000X0.400000*%
%ADD21R,2.030000X2.650000*%
%ADD22R,2.100000X2.100000*%
%ADD23C,2.100000*%
%ADD24RoundRect,0.250000X-0.550000X1.412500X-0.550000X-1.412500X0.550000X-1.412500X0.550000X1.412500X0*%
%ADD25R,3.716000X3.716000*%
%ADD26C,3.716000*%
%ADD27O,2.400000X1.200000*%
%ADD28RoundRect,0.218750X0.218750X0.256250X-0.218750X0.256250X-0.218750X-0.256250X0.218750X-0.256250X0*%
%ADD29RoundRect,0.250000X-0.650000X0.325000X-0.650000X-0.325000X0.650000X-0.325000X0.650000X0.325000X0*%
%ADD30C,5.600000*%
%ADD31RoundRect,0.250000X-0.475000X0.250000X-0.475000X-0.250000X0.475000X-0.250000X0.475000X0.250000X0*%
%ADD32RoundRect,0.218750X-0.218750X-0.256250X0.218750X-0.256250X0.218750X0.256250X-0.218750X0.256250X0*%
%ADD33R,1.700000X1.700000*%
%ADD34O,1.700000X1.700000*%
%ADD35RoundRect,0.250000X-1.000000X1.950000X-1.000000X-1.950000X1.000000X-1.950000X1.000000X1.950000X0*%
%ADD36R,0.550000X0.300000*%
%ADD37R,0.300000X0.450000*%
%ADD38R,0.300000X0.725000*%
%ADD39R,0.725000X0.300000*%
%ADD40R,1.575000X1.050000*%
%ADD41R,1.150000X1.050000*%
%ADD42R,2.175000X1.200000*%
%ADD43R,0.580000X0.380000*%
%ADD44R,0.650000X0.455000*%
%ADD45R,2.350000X0.275000*%
%ADD46RoundRect,0.140000X-0.140000X-0.170000X0.140000X-0.170000X0.140000X0.170000X-0.140000X0.170000X0*%
%ADD47RoundRect,0.200000X0.275000X-0.200000X0.275000X0.200000X-0.275000X0.200000X-0.275000X-0.200000X0*%
%ADD48RoundRect,0.135000X-0.135000X-0.185000X0.135000X-0.185000X0.135000X0.185000X-0.135000X0.185000X0*%
%ADD49R,4.750000X14.000000*%
%ADD50RoundRect,0.135000X0.185000X-0.135000X0.185000X0.135000X-0.185000X0.135000X-0.185000X-0.135000X0*%
%ADD51RoundRect,0.250000X-0.375000X-0.850000X0.375000X-0.850000X0.375000X0.850000X-0.375000X0.850000X0*%
%ADD52RoundRect,0.135000X-0.185000X0.135000X-0.185000X-0.135000X0.185000X-0.135000X0.185000X0.135000X0*%
%ADD53RoundRect,0.140000X-0.170000X0.140000X-0.170000X-0.140000X0.170000X-0.140000X0.170000X0.140000X0*%
G04 APERTURE END LIST*
D10*
G04 #@! TO.C,TP2*
X130090000Y-102090000D03*
G04 #@! TD*
D11*
G04 #@! TO.C,A2*
X137890000Y-83010000D03*
D12*
X135350000Y-83010000D03*
X132810000Y-83010000D03*
X130270000Y-83010000D03*
X127730000Y-83010000D03*
X125190000Y-83010000D03*
X122650000Y-83010000D03*
X120110000Y-83010000D03*
X120110000Y-95710000D03*
X122650000Y-95710000D03*
X125190000Y-95710000D03*
X127730000Y-95710000D03*
X130270000Y-95710000D03*
X132810000Y-95710000D03*
X135350000Y-95710000D03*
X137890000Y-95710000D03*
G04 #@! TD*
D13*
G04 #@! TO.C,L9*
X107020000Y-73850000D03*
X107020000Y-67850000D03*
G04 #@! TD*
D14*
G04 #@! TO.C,RV1*
X120750000Y-65325000D03*
X122575000Y-65325000D03*
G04 #@! TD*
D15*
G04 #@! TO.C,C20*
X108320000Y-65850000D03*
X109870000Y-65850000D03*
G04 #@! TD*
D16*
G04 #@! TO.C,C3*
X104500000Y-123830000D03*
X104500000Y-122870000D03*
G04 #@! TD*
D17*
G04 #@! TO.C,U2*
X75900000Y-118450000D03*
X75900000Y-119400000D03*
X75900000Y-120350000D03*
X78175000Y-120350000D03*
X78175000Y-119400000D03*
X78175000Y-118450000D03*
G04 #@! TD*
D15*
G04 #@! TO.C,C14*
X126775000Y-65725000D03*
X128325000Y-65725000D03*
G04 #@! TD*
D14*
G04 #@! TO.C,RV8*
X102607500Y-65550000D03*
X104432500Y-65550000D03*
G04 #@! TD*
D18*
G04 #@! TO.C,R3*
X114962500Y-118500000D03*
X112037500Y-118500000D03*
G04 #@! TD*
D19*
G04 #@! TO.C,Q1*
X76000000Y-112300000D03*
X76000000Y-112950000D03*
X76000000Y-113600000D03*
X76000000Y-114250000D03*
D20*
X79225000Y-114250000D03*
X79225000Y-113600000D03*
X79225000Y-112950000D03*
X79225000Y-112300000D03*
D21*
X77935000Y-113275000D03*
G04 #@! TD*
D13*
G04 #@! TO.C,L8*
X99920000Y-73787500D03*
X99920000Y-67787500D03*
G04 #@! TD*
D22*
G04 #@! TO.C,StepperConnector1*
X92580000Y-52850000D03*
D23*
X95120000Y-52850000D03*
X97660000Y-52850000D03*
X100200000Y-52850000D03*
G04 #@! TD*
D24*
G04 #@! TO.C,C21*
X137425000Y-127975000D03*
X137425000Y-133050000D03*
G04 #@! TD*
D25*
G04 #@! TO.C,J1*
X65200000Y-124150000D03*
D26*
X65200000Y-131350000D03*
D27*
X59200000Y-121000000D03*
X59200000Y-134500000D03*
G04 #@! TD*
D28*
G04 #@! TO.C,D4*
X132250000Y-62325000D03*
X130675000Y-62325000D03*
G04 #@! TD*
D29*
G04 #@! TO.C,C9*
X113900000Y-131250000D03*
X113900000Y-134200000D03*
G04 #@! TD*
D14*
G04 #@! TO.C,RV3*
X115525000Y-64025000D03*
X117350000Y-64025000D03*
G04 #@! TD*
D19*
G04 #@! TO.C,Q2*
X76265000Y-126250000D03*
X76265000Y-126900000D03*
X76265000Y-127550000D03*
X76265000Y-128200000D03*
D20*
X79490000Y-128200000D03*
X79490000Y-127550000D03*
X79490000Y-126900000D03*
X79490000Y-126250000D03*
D21*
X78200000Y-127225000D03*
G04 #@! TD*
D16*
G04 #@! TO.C,C12*
X112500000Y-125150000D03*
X112500000Y-124190000D03*
G04 #@! TD*
D10*
G04 #@! TO.C,TP4*
X134670000Y-102090000D03*
G04 #@! TD*
D30*
G04 #@! TO.C,H4*
X143000000Y-53000000D03*
G04 #@! TD*
D13*
G04 #@! TO.C,L4*
X132750000Y-73725000D03*
X132750000Y-67725000D03*
G04 #@! TD*
D10*
G04 #@! TO.C,TP6*
X107825000Y-104625000D03*
G04 #@! TD*
D29*
G04 #@! TO.C,C7*
X107000000Y-131250000D03*
X107000000Y-134200000D03*
G04 #@! TD*
G04 #@! TO.C,C8*
X109300000Y-131250000D03*
X109300000Y-134200000D03*
G04 #@! TD*
D25*
G04 #@! TO.C,J4*
X65200000Y-107650000D03*
D26*
X65200000Y-114850000D03*
D27*
X59200000Y-104500000D03*
X59200000Y-118000000D03*
G04 #@! TD*
D14*
G04 #@! TO.C,RV5*
X130537500Y-64025000D03*
X132362500Y-64025000D03*
G04 #@! TD*
D30*
G04 #@! TO.C,H1*
X143000000Y-139000000D03*
G04 #@! TD*
D16*
G04 #@! TO.C,C11*
X105900000Y-119350000D03*
X105900000Y-118390000D03*
G04 #@! TD*
D13*
G04 #@! TO.C,L6*
X85720000Y-73787500D03*
X85720000Y-67787500D03*
G04 #@! TD*
D31*
G04 #@! TO.C,C1*
X101000000Y-122350000D03*
X101000000Y-124250000D03*
G04 #@! TD*
D32*
G04 #@! TO.C,D2*
X141250000Y-62325000D03*
X142825000Y-62325000D03*
G04 #@! TD*
D33*
G04 #@! TO.C,J2*
X140740000Y-110290000D03*
D34*
X140740000Y-107750000D03*
X138200000Y-110290000D03*
X138200000Y-107750000D03*
X135660000Y-110290000D03*
X135660000Y-107750000D03*
X133120000Y-110290000D03*
X133120000Y-107750000D03*
X130580000Y-110290000D03*
X130580000Y-107750000D03*
X128040000Y-110290000D03*
X128040000Y-107750000D03*
X125500000Y-110290000D03*
X125500000Y-107750000D03*
X122960000Y-110290000D03*
X122960000Y-107750000D03*
X120420000Y-110290000D03*
X120420000Y-107750000D03*
X117880000Y-110290000D03*
X117880000Y-107750000D03*
X115340000Y-110290000D03*
X115340000Y-107750000D03*
X112800000Y-110290000D03*
X112800000Y-107750000D03*
X110260000Y-110290000D03*
X110260000Y-107750000D03*
X107720000Y-110290000D03*
X107720000Y-107750000D03*
X105180000Y-110290000D03*
X105180000Y-107750000D03*
X102640000Y-110290000D03*
X102640000Y-107750000D03*
X100100000Y-110290000D03*
X100100000Y-107750000D03*
X97560000Y-110290000D03*
X97560000Y-107750000D03*
X95020000Y-110290000D03*
X95020000Y-107750000D03*
X92480000Y-110290000D03*
X92480000Y-107750000D03*
G04 #@! TD*
D35*
G04 #@! TO.C,C6*
X90100000Y-124350000D03*
X90100000Y-132750000D03*
G04 #@! TD*
D14*
G04 #@! TO.C,RV10*
X93395000Y-64050000D03*
X95220000Y-64050000D03*
G04 #@! TD*
D28*
G04 #@! TO.C,D8*
X117325000Y-62325000D03*
X115750000Y-62325000D03*
G04 #@! TD*
D30*
G04 #@! TO.C,H3*
X80000000Y-53000000D03*
G04 #@! TD*
D36*
G04 #@! TO.C,IC1*
X106488000Y-122275000D03*
X106488000Y-122725000D03*
X106488000Y-123625000D03*
X106488000Y-124075000D03*
D37*
X107038000Y-125175000D03*
X107488000Y-125175000D03*
X107938000Y-125175000D03*
X108638000Y-125175000D03*
X109088000Y-125175000D03*
D38*
X109538000Y-125038000D03*
D39*
X110450000Y-124525000D03*
X110450000Y-124075000D03*
X110450000Y-123625000D03*
X110450000Y-123175000D03*
X110450000Y-122725000D03*
X110450000Y-122275000D03*
X110450000Y-121825000D03*
D38*
X109988000Y-121163000D03*
X109538000Y-121163000D03*
X109088000Y-121163000D03*
X108638000Y-121163000D03*
X107938000Y-121163000D03*
X107488000Y-121163000D03*
X107038000Y-121163000D03*
D40*
X109000000Y-122350000D03*
D41*
X107338000Y-122350000D03*
D42*
X107850000Y-123775000D03*
D43*
X109498000Y-124090000D03*
D44*
X109263000Y-123403000D03*
D45*
X108063000Y-124813000D03*
G04 #@! TD*
D46*
G04 #@! TO.C,C23*
X69240000Y-116450000D03*
X70200000Y-116450000D03*
G04 #@! TD*
D16*
G04 #@! TO.C,C10*
X112500000Y-123330000D03*
X112500000Y-122370000D03*
G04 #@! TD*
D47*
G04 #@! TO.C,R2*
X81600000Y-120200000D03*
X81600000Y-118550000D03*
G04 #@! TD*
D13*
G04 #@! TO.C,L5*
X139950000Y-73725000D03*
X139950000Y-67725000D03*
G04 #@! TD*
D28*
G04 #@! TO.C,D3*
X99120000Y-62350000D03*
X97545000Y-62350000D03*
G04 #@! TD*
D48*
G04 #@! TO.C,R4*
X108880000Y-119250000D03*
X109900000Y-119250000D03*
G04 #@! TD*
D14*
G04 #@! TO.C,RV11*
X97595000Y-64050000D03*
X99420000Y-64050000D03*
G04 #@! TD*
D15*
G04 #@! TO.C,C13*
X115550000Y-65725000D03*
X117100000Y-65725000D03*
G04 #@! TD*
D32*
G04 #@! TO.C,D1*
X108320000Y-62450000D03*
X109895000Y-62450000D03*
G04 #@! TD*
D14*
G04 #@! TO.C,RV4*
X126625000Y-64025000D03*
X128450000Y-64025000D03*
G04 #@! TD*
D11*
G04 #@! TO.C,A1*
X104790000Y-83010000D03*
D12*
X102250000Y-83010000D03*
X99710000Y-83010000D03*
X97170000Y-83010000D03*
X94630000Y-83010000D03*
X92090000Y-83010000D03*
X89550000Y-83010000D03*
X87010000Y-83010000D03*
X87010000Y-95710000D03*
X89550000Y-95710000D03*
X92090000Y-95710000D03*
X94630000Y-95710000D03*
X97170000Y-95710000D03*
X99710000Y-95710000D03*
X102250000Y-95710000D03*
X104790000Y-95710000D03*
G04 #@! TD*
D49*
G04 #@! TO.C,L10*
X120100000Y-125850000D03*
X129350000Y-125850000D03*
G04 #@! TD*
D10*
G04 #@! TO.C,TP1*
X96270000Y-101770000D03*
G04 #@! TD*
D50*
G04 #@! TO.C,R5*
X107900000Y-119270000D03*
X107900000Y-118250000D03*
G04 #@! TD*
D30*
G04 #@! TO.C,H2*
X52800000Y-139450000D03*
G04 #@! TD*
D10*
G04 #@! TO.C,TP5*
X107800000Y-113350000D03*
G04 #@! TD*
D13*
G04 #@! TO.C,L7*
X92820000Y-73750000D03*
X92820000Y-67750000D03*
G04 #@! TD*
D22*
G04 #@! TO.C,StepperConnector2*
X125735000Y-52825000D03*
D23*
X128275000Y-52825000D03*
X130815000Y-52825000D03*
X133355000Y-52825000D03*
G04 #@! TD*
D28*
G04 #@! TO.C,D7*
X84420000Y-62350000D03*
X82845000Y-62350000D03*
G04 #@! TD*
D51*
G04 #@! TO.C,L1*
X107225000Y-127850000D03*
X109375000Y-127850000D03*
G04 #@! TD*
D14*
G04 #@! TO.C,RV6*
X141025000Y-64025000D03*
X142850000Y-64025000D03*
G04 #@! TD*
D13*
G04 #@! TO.C,L3*
X125650000Y-73725000D03*
X125650000Y-67725000D03*
G04 #@! TD*
D15*
G04 #@! TO.C,C18*
X93570000Y-65750000D03*
X95120000Y-65750000D03*
G04 #@! TD*
D14*
G04 #@! TO.C,RV9*
X82707500Y-64050000D03*
X84532500Y-64050000D03*
G04 #@! TD*
D13*
G04 #@! TO.C,L2*
X118450000Y-73725000D03*
X118450000Y-67725000D03*
G04 #@! TD*
D10*
G04 #@! TO.C,TP3*
X102240000Y-101770000D03*
G04 #@! TD*
D29*
G04 #@! TO.C,C4*
X111600000Y-131250000D03*
X111600000Y-134200000D03*
G04 #@! TD*
D52*
G04 #@! TO.C,R1*
X112500000Y-120460000D03*
X112500000Y-121480000D03*
G04 #@! TD*
D14*
G04 #@! TO.C,RV7*
X88420000Y-65550000D03*
X90245000Y-65550000D03*
G04 #@! TD*
D15*
G04 #@! TO.C,C15*
X130600000Y-65725000D03*
X132150000Y-65725000D03*
G04 #@! TD*
D31*
G04 #@! TO.C,C2*
X103000000Y-122350000D03*
X103000000Y-124250000D03*
G04 #@! TD*
D53*
G04 #@! TO.C,C22*
X133225000Y-132390000D03*
X133225000Y-133350000D03*
G04 #@! TD*
D52*
G04 #@! TO.C,R6*
X106900000Y-118330000D03*
X106900000Y-119350000D03*
G04 #@! TD*
D14*
G04 #@! TO.C,RV12*
X108220000Y-64150000D03*
X110045000Y-64150000D03*
G04 #@! TD*
D15*
G04 #@! TO.C,C19*
X97520000Y-65750000D03*
X99070000Y-65750000D03*
G04 #@! TD*
D46*
G04 #@! TO.C,C5*
X69020000Y-132575000D03*
X69980000Y-132575000D03*
G04 #@! TD*
D14*
G04 #@! TO.C,RV2*
X135450000Y-65525000D03*
X137275000Y-65525000D03*
G04 #@! TD*
D32*
G04 #@! TO.C,D5*
X93645000Y-62350000D03*
X95220000Y-62350000D03*
G04 #@! TD*
G04 #@! TO.C,D6*
X126750000Y-62325000D03*
X128325000Y-62325000D03*
G04 #@! TD*
D15*
G04 #@! TO.C,C17*
X82870000Y-65750000D03*
X84420000Y-65750000D03*
G04 #@! TD*
G04 #@! TO.C,C16*
X141200000Y-65725000D03*
X142750000Y-65725000D03*
G04 #@! TD*
M02*
