G04 #@! TF.GenerationSoftware,KiCad,Pcbnew,8.0.3*
G04 #@! TF.CreationDate,2024-09-22T19:56:22+01:00*
G04 #@! TF.ProjectId,BetetrDom,42657465-7472-4446-9f6d-2e6b69636164,rev?*
G04 #@! TF.SameCoordinates,Original*
G04 #@! TF.FileFunction,Soldermask,Bot*
G04 #@! TF.FilePolarity,Negative*
%FSLAX46Y46*%
G04 Gerber Fmt 4.6, Leading zero omitted, Abs format (unit mm)*
G04 Created by KiCad (PCBNEW 8.0.3) date 2024-09-22 19:56:22*
%MOMM*%
%LPD*%
G01*
G04 APERTURE LIST*
%ADD10R,1.600000X1.600000*%
%ADD11O,1.600000X1.600000*%
%ADD12R,2.100000X2.100000*%
%ADD13C,2.100000*%
%ADD14R,3.716000X3.716000*%
%ADD15C,3.716000*%
%ADD16O,2.400000X1.200000*%
%ADD17C,5.600000*%
%ADD18R,1.700000X1.700000*%
%ADD19O,1.700000X1.700000*%
G04 APERTURE END LIST*
D10*
G04 #@! TO.C,A2*
X137890000Y-83010000D03*
D11*
X135350000Y-83010000D03*
X132810000Y-83010000D03*
X130270000Y-83010000D03*
X127730000Y-83010000D03*
X125190000Y-83010000D03*
X122650000Y-83010000D03*
X120110000Y-83010000D03*
X120110000Y-95710000D03*
X122650000Y-95710000D03*
X125190000Y-95710000D03*
X127730000Y-95710000D03*
X130270000Y-95710000D03*
X132810000Y-95710000D03*
X135350000Y-95710000D03*
X137890000Y-95710000D03*
G04 #@! TD*
D12*
G04 #@! TO.C,StepperConnector1*
X92580000Y-52850000D03*
D13*
X95120000Y-52850000D03*
X97660000Y-52850000D03*
X100200000Y-52850000D03*
G04 #@! TD*
D14*
G04 #@! TO.C,J1*
X65200000Y-124150000D03*
D15*
X65200000Y-131350000D03*
D16*
X59200000Y-121000000D03*
X59200000Y-134500000D03*
G04 #@! TD*
D17*
G04 #@! TO.C,H4*
X143000000Y-53000000D03*
G04 #@! TD*
D14*
G04 #@! TO.C,J4*
X65200000Y-107650000D03*
D15*
X65200000Y-114850000D03*
D16*
X59200000Y-104500000D03*
X59200000Y-118000000D03*
G04 #@! TD*
D17*
G04 #@! TO.C,H1*
X143000000Y-139000000D03*
G04 #@! TD*
D18*
G04 #@! TO.C,J2*
X140740000Y-110290000D03*
D19*
X140740000Y-107750000D03*
X138200000Y-110290000D03*
X138200000Y-107750000D03*
X135660000Y-110290000D03*
X135660000Y-107750000D03*
X133120000Y-110290000D03*
X133120000Y-107750000D03*
X130580000Y-110290000D03*
X130580000Y-107750000D03*
X128040000Y-110290000D03*
X128040000Y-107750000D03*
X125500000Y-110290000D03*
X125500000Y-107750000D03*
X122960000Y-110290000D03*
X122960000Y-107750000D03*
X120420000Y-110290000D03*
X120420000Y-107750000D03*
X117880000Y-110290000D03*
X117880000Y-107750000D03*
X115340000Y-110290000D03*
X115340000Y-107750000D03*
X112800000Y-110290000D03*
X112800000Y-107750000D03*
X110260000Y-110290000D03*
X110260000Y-107750000D03*
X107720000Y-110290000D03*
X107720000Y-107750000D03*
X105180000Y-110290000D03*
X105180000Y-107750000D03*
X102640000Y-110290000D03*
X102640000Y-107750000D03*
X100100000Y-110290000D03*
X100100000Y-107750000D03*
X97560000Y-110290000D03*
X97560000Y-107750000D03*
X95020000Y-110290000D03*
X95020000Y-107750000D03*
X92480000Y-110290000D03*
X92480000Y-107750000D03*
G04 #@! TD*
D17*
G04 #@! TO.C,H3*
X80000000Y-53000000D03*
G04 #@! TD*
D10*
G04 #@! TO.C,A1*
X104790000Y-83010000D03*
D11*
X102250000Y-83010000D03*
X99710000Y-83010000D03*
X97170000Y-83010000D03*
X94630000Y-83010000D03*
X92090000Y-83010000D03*
X89550000Y-83010000D03*
X87010000Y-83010000D03*
X87010000Y-95710000D03*
X89550000Y-95710000D03*
X92090000Y-95710000D03*
X94630000Y-95710000D03*
X97170000Y-95710000D03*
X99710000Y-95710000D03*
X102250000Y-95710000D03*
X104790000Y-95710000D03*
G04 #@! TD*
D17*
G04 #@! TO.C,H2*
X52800000Y-139450000D03*
G04 #@! TD*
D12*
G04 #@! TO.C,StepperConnector2*
X125735000Y-52825000D03*
D13*
X128275000Y-52825000D03*
X130815000Y-52825000D03*
X133355000Y-52825000D03*
G04 #@! TD*
M02*
