M48
; DRILL file {KiCad 8.0.3} date 2024-09-22T19:56:22+0100
; FORMAT={-:-/ absolute / metric / decimal}
; #@! TF.CreationDate,2024-09-22T19:56:22+01:00
; #@! TF.GenerationSoftware,Kicad,Pcbnew,8.0.3
; #@! TF.FileFunction,Plated,1,4,PTH
FMAT,2
METRIC
; #@! TA.AperFunction,Plated,PTH,ViaDrill
T1C0.300
; #@! TA.AperFunction,Plated,PTH,ComponentDrill
T2C0.600
; #@! TA.AperFunction,Plated,PTH,ComponentDrill
T3C0.800
; #@! TA.AperFunction,Plated,PTH,ComponentDrill
T4C1.000
; #@! TA.AperFunction,Plated,PTH,ComponentDrill
T5C1.100
; #@! TA.AperFunction,Plated,PTH,ComponentDrill
T6C2.700
; #@! TA.AperFunction,Plated,PTH,ComponentDrill
T7C3.200
%
G90
G05
T1
X71.0Y-120.0
X72.0Y-135.0
X74.5Y-128.5
X75.5Y-115.0
X79.5Y-119.5
X79.75Y-122.0
X80.31Y-64.32
X80.32Y-66.33
X80.44Y-62.2
X83.96Y-83.28
X84.15Y-105.48
X87.0Y-59.5
X88.0Y-119.0
X88.0Y-121.0
X88.84Y-58.24
X88.94Y-78.4
X90.5Y-58.5
X93.0Y-57.5
X93.55Y-78.19
X93.71Y-58.59
X94.0Y-119.0
X94.0Y-121.0
X94.5Y-59.5
X95.0Y-136.0
X95.0Y-138.0
X96.25Y-59.0
X96.35Y-68.1
X96.41Y-60.54
X97.0Y-136.0
X97.0Y-138.0
X98.41Y-77.94
X98.5Y-59.75
X99.0Y-119.0
X99.0Y-121.0
X99.0Y-127.75
X99.35Y-58.63
X100.0Y-129.5
X100.5Y-59.75
X101.25Y-127.75
X102.25Y-58.0
X102.5Y-129.5
X102.63Y-78.69
X103.5Y-127.75
X104.17Y-58.2
X104.8Y-104.7
X105.5Y-59.75
X107.0Y-137.0
X107.4Y-123.825
X107.825Y-104.75
X107.825Y-113.525
X108.03Y-117.39
X108.425Y-123.825
X109.05Y-122.43
X110.0Y-137.0
X110.325Y-118.25
X112.5Y-82.0
X113.0Y-62.25
X113.0Y-137.0
X113.08Y-65.81
X113.11Y-64.01
X113.5Y-123.275
X115.43Y-105.93
X120.06Y-75.92
X120.5Y-57.5
X121.5Y-100.0
X122.5Y-59.75
X122.53Y-57.57
X122.96Y-112.41
X125.25Y-59.0
X126.31Y-76.47
X126.89Y-58.05
X128.0Y-57.5
X129.25Y-117.0
X129.41Y-61.03
X129.5Y-59.25
X129.5Y-67.11
X131.0Y-57.0
X131.58Y-76.52
X132.08Y-57.56
X133.0Y-58.25
X133.5Y-119.75
X133.5Y-124.25
X133.5Y-126.71
X134.01Y-104.29
X135.0Y-137.0
X135.5Y-59.0
X136.57Y-57.09
X136.65Y-124.225
X136.75Y-119.75
X137.0Y-137.0
X138.5Y-59.0
X138.88Y-76.18
X139.825Y-124.225
X143.0Y-103.5
X143.0Y-108.75
X145.07Y-64.16
X145.09Y-65.85
X145.14Y-62.3
T3
X87.01Y-83.01
X87.01Y-95.71
X89.55Y-83.01
X89.55Y-95.71
X92.09Y-83.01
X92.09Y-95.71
X94.63Y-83.01
X94.63Y-95.71
X97.17Y-83.01
X97.17Y-95.71
X99.71Y-83.01
X99.71Y-95.71
X102.25Y-83.01
X102.25Y-95.71
X104.79Y-83.01
X104.79Y-95.71
X120.11Y-83.01
X120.11Y-95.71
X122.65Y-83.01
X122.65Y-95.71
X125.19Y-83.01
X125.19Y-95.71
X127.73Y-83.01
X127.73Y-95.71
X130.27Y-83.01
X130.27Y-95.71
X132.81Y-83.01
X132.81Y-95.71
X135.35Y-83.01
X135.35Y-95.71
X137.89Y-83.01
X137.89Y-95.71
T4
X92.48Y-107.75
X92.48Y-110.29
X95.02Y-107.75
X95.02Y-110.29
X97.56Y-107.75
X97.56Y-110.29
X100.1Y-107.75
X100.1Y-110.29
X102.64Y-107.75
X102.64Y-110.29
X105.18Y-107.75
X105.18Y-110.29
X107.72Y-107.75
X107.72Y-110.29
X110.26Y-107.75
X110.26Y-110.29
X112.8Y-107.75
X112.8Y-110.29
X115.34Y-107.75
X115.34Y-110.29
X117.88Y-107.75
X117.88Y-110.29
X120.42Y-107.75
X120.42Y-110.29
X122.96Y-107.75
X122.96Y-110.29
X125.5Y-107.75
X125.5Y-110.29
X128.04Y-107.75
X128.04Y-110.29
X130.58Y-107.75
X130.58Y-110.29
X133.12Y-107.75
X133.12Y-110.29
X135.66Y-107.75
X135.66Y-110.29
X138.2Y-107.75
X138.2Y-110.29
X140.74Y-107.75
X140.74Y-110.29
T5
X92.58Y-52.85
X95.12Y-52.85
X97.66Y-52.85
X100.2Y-52.85
X125.735Y-52.825
X128.275Y-52.825
X130.815Y-52.825
X133.355Y-52.825
T6
X65.2Y-107.65
X65.2Y-114.85
X65.2Y-124.15
X65.2Y-131.35
T7
X52.8Y-139.45
X80.0Y-53.0
X143.0Y-53.0
X143.0Y-139.0
T2
G00X58.65Y-104.5
M15
G01X59.75Y-104.5
M16
G05
G00X58.65Y-118.0
M15
G01X59.75Y-118.0
M16
G05
G00X58.65Y-121.0
M15
G01X59.75Y-121.0
M16
G05
G00X58.65Y-134.5
M15
G01X59.75Y-134.5
M16
G05
M30
