%TF.GenerationSoftware,KiCad,Pcbnew,8.0.3*%
%TF.CreationDate,2024-09-22T19:56:22+01:00*%
%TF.ProjectId,BetetrDom,42657465-7472-4446-9f6d-2e6b69636164,rev?*%
%TF.SameCoordinates,Original*%
%TF.FileFunction,Drillmap*%
%TF.FilePolarity,Positive*%
%FSLAX45Y45*%
G04 Gerber Fmt 4.5, Leading zero omitted, Abs format (unit mm)*
G04 Created by KiCad (PCBNEW 8.0.3) date 2024-09-22 19:56:22*
%MOMM*%
%LPD*%
G01*
G04 APERTURE LIST*
%ADD10C,0.050000*%
%ADD11C,0.200000*%
G04 APERTURE END LIST*
D10*
X14400000Y-4900000D02*
X7900000Y-4900000D01*
X7600000Y-5200000D02*
G75*
G02*
X7900000Y-4900000I300000J0D01*
G01*
X14700000Y-13600000D02*
X14700000Y-5200000D01*
X5200000Y-14325000D02*
G75*
G02*
X4900000Y-14025000I0J300000D01*
G01*
X14700000Y-14087868D02*
G75*
G02*
X14400000Y-14325001I-268570J31438D01*
G01*
X14400000Y-4900000D02*
G75*
G02*
X14700000Y-5200000I0J-300000D01*
G01*
X4900000Y-10200000D02*
X4900000Y-14025000D01*
X5200000Y-14325000D02*
X14400000Y-14325000D01*
X7600000Y-5200000D02*
X7600000Y-9800000D01*
X7400000Y-10000000D02*
X5100000Y-10000000D01*
X14700000Y-14087868D02*
X14700000Y-13600000D01*
X4900000Y-10200000D02*
G75*
G02*
X5100000Y-10000000I200000J0D01*
G01*
X7600000Y-9800000D02*
G75*
G02*
X7400000Y-10000000I-200000J0D01*
G01*
D11*
X5158277Y-14640818D02*
X5158277Y-14440818D01*
X5158277Y-14440818D02*
X5205896Y-14440818D01*
X5205896Y-14440818D02*
X5234467Y-14450341D01*
X5234467Y-14450341D02*
X5253515Y-14469389D01*
X5253515Y-14469389D02*
X5263039Y-14488437D01*
X5263039Y-14488437D02*
X5272563Y-14526532D01*
X5272563Y-14526532D02*
X5272563Y-14555103D01*
X5272563Y-14555103D02*
X5263039Y-14593198D01*
X5263039Y-14593198D02*
X5253515Y-14612246D01*
X5253515Y-14612246D02*
X5234467Y-14631294D01*
X5234467Y-14631294D02*
X5205896Y-14640818D01*
X5205896Y-14640818D02*
X5158277Y-14640818D01*
X5358277Y-14640818D02*
X5358277Y-14507484D01*
X5358277Y-14545579D02*
X5367801Y-14526532D01*
X5367801Y-14526532D02*
X5377324Y-14517008D01*
X5377324Y-14517008D02*
X5396372Y-14507484D01*
X5396372Y-14507484D02*
X5415420Y-14507484D01*
X5482086Y-14640818D02*
X5482086Y-14507484D01*
X5482086Y-14440818D02*
X5472563Y-14450341D01*
X5472563Y-14450341D02*
X5482086Y-14459865D01*
X5482086Y-14459865D02*
X5491610Y-14450341D01*
X5491610Y-14450341D02*
X5482086Y-14440818D01*
X5482086Y-14440818D02*
X5482086Y-14459865D01*
X5605896Y-14640818D02*
X5586848Y-14631294D01*
X5586848Y-14631294D02*
X5577324Y-14612246D01*
X5577324Y-14612246D02*
X5577324Y-14440818D01*
X5710658Y-14640818D02*
X5691610Y-14631294D01*
X5691610Y-14631294D02*
X5682086Y-14612246D01*
X5682086Y-14612246D02*
X5682086Y-14440818D01*
X5939229Y-14640818D02*
X5939229Y-14440818D01*
X5939229Y-14440818D02*
X6005896Y-14583675D01*
X6005896Y-14583675D02*
X6072562Y-14440818D01*
X6072562Y-14440818D02*
X6072562Y-14640818D01*
X6253515Y-14640818D02*
X6253515Y-14536056D01*
X6253515Y-14536056D02*
X6243991Y-14517008D01*
X6243991Y-14517008D02*
X6224943Y-14507484D01*
X6224943Y-14507484D02*
X6186848Y-14507484D01*
X6186848Y-14507484D02*
X6167801Y-14517008D01*
X6253515Y-14631294D02*
X6234467Y-14640818D01*
X6234467Y-14640818D02*
X6186848Y-14640818D01*
X6186848Y-14640818D02*
X6167801Y-14631294D01*
X6167801Y-14631294D02*
X6158277Y-14612246D01*
X6158277Y-14612246D02*
X6158277Y-14593198D01*
X6158277Y-14593198D02*
X6167801Y-14574151D01*
X6167801Y-14574151D02*
X6186848Y-14564627D01*
X6186848Y-14564627D02*
X6234467Y-14564627D01*
X6234467Y-14564627D02*
X6253515Y-14555103D01*
X6348753Y-14507484D02*
X6348753Y-14707484D01*
X6348753Y-14517008D02*
X6367801Y-14507484D01*
X6367801Y-14507484D02*
X6405896Y-14507484D01*
X6405896Y-14507484D02*
X6424943Y-14517008D01*
X6424943Y-14517008D02*
X6434467Y-14526532D01*
X6434467Y-14526532D02*
X6443991Y-14545579D01*
X6443991Y-14545579D02*
X6443991Y-14602722D01*
X6443991Y-14602722D02*
X6434467Y-14621770D01*
X6434467Y-14621770D02*
X6424943Y-14631294D01*
X6424943Y-14631294D02*
X6405896Y-14640818D01*
X6405896Y-14640818D02*
X6367801Y-14640818D01*
X6367801Y-14640818D02*
X6348753Y-14631294D01*
X6529705Y-14621770D02*
X6539229Y-14631294D01*
X6539229Y-14631294D02*
X6529705Y-14640818D01*
X6529705Y-14640818D02*
X6520182Y-14631294D01*
X6520182Y-14631294D02*
X6529705Y-14621770D01*
X6529705Y-14621770D02*
X6529705Y-14640818D01*
X6529705Y-14517008D02*
X6539229Y-14526532D01*
X6539229Y-14526532D02*
X6529705Y-14536056D01*
X6529705Y-14536056D02*
X6520182Y-14526532D01*
X6520182Y-14526532D02*
X6529705Y-14517008D01*
X6529705Y-14517008D02*
X6529705Y-14536056D01*
M02*
